<svg width="521" height="370" viewBox="0 0 521 370" fill="none" xmlns="http://www.w3.org/2000/svg">
<g clip-path="url(#clip0_9587_21207)">
<rect width="521" height="370" fill="url(#paint0_linear_9587_21207)"/>
<g filter="url(#filter0_ddd_9587_21207)">
<circle cx="54" cy="40" r="92" fill="white"/>
</g>
<g clip-path="url(#clip1_9587_21207)">
<rect x="96" y="72" width="330.268" height="179" rx="6" fill="white"/>
<path d="M96 78C96 74.6863 98.6863 72 102 72H420.268C423.581 72 426.268 74.6863 426.268 78V95.9507H96V78Z" fill="#347357"/>
<path d="M227.082 138.044V133.77L237.798 116.887H241.483V122.803H239.302L232.547 133.494V133.695H247.775V138.044H227.082ZM239.403 142.556V136.741L239.503 134.848V116.887H244.592V142.556H239.403ZM261.456 143.12C259.3 143.112 257.445 142.581 255.891 141.529C254.345 140.476 253.155 138.951 252.319 136.954C251.492 134.957 251.082 132.554 251.091 129.747C251.091 126.947 251.504 124.562 252.331 122.59C253.167 120.618 254.358 119.118 255.904 118.09C257.458 117.054 259.309 116.536 261.456 116.536C263.604 116.536 265.45 117.054 266.996 118.09C268.55 119.126 269.745 120.63 270.581 122.602C271.417 124.566 271.83 126.947 271.822 129.747C271.822 132.563 271.404 134.969 270.568 136.966C269.741 138.963 268.555 140.488 267.009 141.541C265.463 142.594 263.612 143.12 261.456 143.12ZM261.456 138.621C262.927 138.621 264.101 137.881 264.978 136.402C265.856 134.923 266.29 132.705 266.282 129.747C266.282 127.8 266.081 126.179 265.68 124.883C265.287 123.588 264.728 122.615 264.001 121.963C263.282 121.311 262.434 120.985 261.456 120.985C259.994 120.985 258.824 121.717 257.947 123.179C257.069 124.641 256.626 126.83 256.618 129.747C256.618 131.719 256.814 133.365 257.207 134.685C257.608 135.997 258.172 136.983 258.899 137.643C259.626 138.295 260.479 138.621 261.456 138.621ZM285.18 142.907C283.308 142.907 281.641 142.586 280.179 141.942C278.725 141.29 277.576 140.396 276.732 139.26C275.896 138.115 275.466 136.795 275.441 135.299H280.906C280.939 135.926 281.144 136.477 281.52 136.954C281.904 137.422 282.414 137.785 283.049 138.044C283.684 138.303 284.399 138.433 285.193 138.433C286.02 138.433 286.751 138.286 287.386 137.994C288.021 137.702 288.518 137.296 288.878 136.778C289.237 136.26 289.416 135.663 289.416 134.986C289.416 134.301 289.224 133.695 288.84 133.168C288.464 132.634 287.921 132.216 287.21 131.915C286.509 131.614 285.673 131.464 284.704 131.464H282.31V127.478H284.704C285.523 127.478 286.245 127.336 286.872 127.052C287.507 126.768 288 126.375 288.351 125.874C288.702 125.364 288.878 124.771 288.878 124.094C288.878 123.45 288.723 122.886 288.414 122.402C288.113 121.909 287.687 121.524 287.135 121.249C286.592 120.973 285.957 120.835 285.23 120.835C284.495 120.835 283.822 120.969 283.212 121.236C282.602 121.495 282.113 121.867 281.746 122.352C281.378 122.836 281.182 123.404 281.157 124.056H275.955C275.98 122.577 276.402 121.274 277.221 120.146C278.04 119.018 279.143 118.136 280.53 117.501C281.925 116.857 283.5 116.536 285.255 116.536C287.027 116.536 288.577 116.857 289.905 117.501C291.234 118.144 292.266 119.013 293.001 120.108C293.745 121.194 294.113 122.414 294.104 123.768C294.113 125.205 293.666 126.404 292.763 127.365C291.869 128.326 290.703 128.936 289.266 129.195V129.396C291.155 129.638 292.592 130.294 293.578 131.364C294.572 132.425 295.065 133.753 295.057 135.349C295.065 136.812 294.643 138.111 293.791 139.247C292.947 140.384 291.781 141.278 290.294 141.93C288.806 142.581 287.102 142.907 285.18 142.907Z" fill="#347357"/>
<path d="M183.418 177.078H180.775L186.714 160.576H189.59L195.529 177.078H192.886L188.22 163.573H188.092L183.418 177.078ZM183.861 170.615H192.435V172.71H183.861V170.615ZM199.934 172.88L199.918 169.939H200.337L205.268 164.701H208.153L202.529 170.664H202.15L199.934 172.88ZM197.718 177.078V160.576H200.128V177.078H197.718ZM205.534 177.078L201.102 171.196L202.762 169.512L208.491 177.078H205.534ZM219.623 167.723L217.439 168.11C217.348 167.83 217.203 167.564 217.004 167.312C216.811 167.059 216.548 166.853 216.214 166.691C215.881 166.53 215.465 166.45 214.966 166.45C214.283 166.45 213.714 166.603 213.257 166.909C212.801 167.21 212.572 167.599 212.572 168.077C212.572 168.491 212.726 168.824 213.032 169.076C213.338 169.329 213.832 169.536 214.514 169.697L216.48 170.148C217.619 170.411 218.468 170.817 219.027 171.365C219.585 171.913 219.865 172.624 219.865 173.5C219.865 174.241 219.65 174.902 219.22 175.482C218.796 176.057 218.202 176.508 217.439 176.836C216.682 177.164 215.804 177.327 214.804 177.327C213.419 177.327 212.288 177.032 211.412 176.441C210.537 175.845 209.999 174.999 209.801 173.903L212.129 173.548C212.274 174.155 212.572 174.615 213.024 174.926C213.475 175.232 214.063 175.386 214.788 175.386C215.578 175.386 216.209 175.222 216.682 174.894C217.155 174.561 217.391 174.155 217.391 173.677C217.391 173.291 217.246 172.966 216.956 172.702C216.671 172.439 216.233 172.24 215.642 172.106L213.547 171.647C212.393 171.384 211.538 170.965 210.985 170.39C210.437 169.815 210.163 169.087 210.163 168.206C210.163 167.476 210.367 166.836 210.776 166.289C211.184 165.741 211.748 165.314 212.468 165.007C213.188 164.696 214.012 164.54 214.941 164.54C216.279 164.54 217.332 164.83 218.1 165.41C218.868 165.985 219.376 166.756 219.623 167.723ZM227.848 177.327C226.628 177.327 225.578 177.067 224.697 176.546C223.822 176.019 223.145 175.281 222.667 174.33C222.194 173.374 221.958 172.254 221.958 170.97C221.958 169.702 222.194 168.585 222.667 167.618C223.145 166.651 223.811 165.896 224.665 165.354C225.524 164.811 226.529 164.54 227.678 164.54C228.377 164.54 229.054 164.656 229.709 164.887C230.364 165.118 230.952 165.48 231.474 165.974C231.995 166.468 232.406 167.11 232.706 167.9C233.007 168.684 233.158 169.638 233.158 170.76V171.615H223.319V169.81H230.797C230.797 169.176 230.668 168.614 230.41 168.126C230.152 167.631 229.789 167.242 229.322 166.957C228.86 166.673 228.318 166.53 227.695 166.53C227.018 166.53 226.427 166.697 225.922 167.03C225.422 167.358 225.036 167.787 224.762 168.319C224.493 168.845 224.359 169.418 224.359 170.035V171.445C224.359 172.273 224.504 172.976 224.794 173.556C225.089 174.137 225.5 174.58 226.027 174.886C226.553 175.187 227.168 175.337 227.872 175.337C228.328 175.337 228.745 175.273 229.121 175.144C229.497 175.01 229.822 174.811 230.096 174.548C230.37 174.284 230.579 173.959 230.724 173.573L233.004 173.984C232.822 174.655 232.494 175.243 232.021 175.748C231.554 176.248 230.966 176.637 230.257 176.916C229.553 177.19 228.75 177.327 227.848 177.327ZM245.105 167.723L242.921 168.11C242.83 167.83 242.685 167.564 242.486 167.312C242.293 167.059 242.03 166.853 241.697 166.691C241.364 166.53 240.947 166.45 240.448 166.45C239.765 166.45 239.196 166.603 238.739 166.909C238.283 167.21 238.055 167.599 238.055 168.077C238.055 168.491 238.208 168.824 238.514 169.076C238.82 169.329 239.314 169.536 239.996 169.697L241.962 170.148C243.101 170.411 243.95 170.817 244.509 171.365C245.067 171.913 245.347 172.624 245.347 173.5C245.347 174.241 245.132 174.902 244.702 175.482C244.278 176.057 243.684 176.508 242.921 176.836C242.164 177.164 241.286 177.327 240.287 177.327C238.901 177.327 237.77 177.032 236.894 176.441C236.019 175.845 235.482 174.999 235.283 173.903L237.611 173.548C237.756 174.155 238.055 174.615 238.506 174.926C238.957 175.232 239.545 175.386 240.27 175.386C241.06 175.386 241.691 175.222 242.164 174.894C242.637 174.561 242.873 174.155 242.873 173.677C242.873 173.291 242.728 172.966 242.438 172.702C242.153 172.439 241.715 172.24 241.124 172.106L239.03 171.647C237.875 171.384 237.02 170.965 236.467 170.39C235.919 169.815 235.645 169.087 235.645 168.206C235.645 167.476 235.849 166.836 236.258 166.289C236.666 165.741 237.23 165.314 237.95 165.007C238.67 164.696 239.494 164.54 240.423 164.54C241.761 164.54 242.814 164.83 243.582 165.41C244.35 165.985 244.858 166.756 245.105 167.723ZM259.536 177.078H254.194V160.576H259.705C261.322 160.576 262.711 160.906 263.871 161.567C265.031 162.222 265.92 163.165 266.538 164.395C267.161 165.62 267.473 167.089 267.473 168.803C267.473 170.521 267.159 171.999 266.53 173.234C265.907 174.47 265.004 175.42 263.823 176.087C262.641 176.747 261.212 177.078 259.536 177.078ZM256.684 174.902H259.399C260.656 174.902 261.701 174.666 262.533 174.193C263.366 173.715 263.989 173.025 264.403 172.122C264.816 171.214 265.023 170.108 265.023 168.803C265.023 167.508 264.816 166.409 264.403 165.507C263.995 164.605 263.385 163.92 262.574 163.452C261.763 162.985 260.755 162.751 259.552 162.751H256.684V174.902ZM270.376 177.078V164.701H272.785V177.078H270.376ZM271.592 162.792C271.173 162.792 270.813 162.652 270.512 162.373C270.217 162.088 270.069 161.749 270.069 161.357C270.069 160.96 270.217 160.621 270.512 160.342C270.813 160.057 271.173 159.915 271.592 159.915C272.011 159.915 272.368 160.057 272.664 160.342C272.965 160.621 273.115 160.96 273.115 161.357C273.115 161.749 272.965 162.088 272.664 162.373C272.368 162.652 272.011 162.792 271.592 162.792ZM278.435 160.576V177.078H276.026V160.576H278.435ZM285.278 177.352C284.494 177.352 283.785 177.207 283.151 176.916C282.517 176.621 282.015 176.194 281.644 175.635C281.279 175.077 281.096 174.392 281.096 173.581C281.096 172.882 281.23 172.308 281.499 171.856C281.768 171.405 282.13 171.048 282.587 170.785C283.043 170.521 283.554 170.323 284.118 170.188C284.682 170.054 285.257 169.952 285.842 169.882C286.583 169.796 287.185 169.726 287.647 169.673C288.109 169.614 288.445 169.52 288.654 169.391C288.864 169.262 288.968 169.052 288.968 168.762V168.706C288.968 168.002 288.77 167.457 288.372 167.07C287.98 166.683 287.394 166.49 286.616 166.49C285.804 166.49 285.165 166.67 284.698 167.03C284.236 167.384 283.916 167.779 283.739 168.214L281.475 167.699C281.743 166.947 282.136 166.34 282.651 165.878C283.172 165.41 283.771 165.072 284.448 164.862C285.125 164.647 285.837 164.54 286.583 164.54C287.078 164.54 287.601 164.599 288.155 164.717C288.713 164.83 289.234 165.04 289.718 165.346C290.207 165.652 290.607 166.09 290.918 166.659C291.23 167.223 291.386 167.956 291.386 168.859V177.078H289.033V175.386H288.936C288.78 175.697 288.547 176.003 288.235 176.304C287.924 176.605 287.523 176.855 287.035 177.053C286.546 177.252 285.96 177.352 285.278 177.352ZM285.802 175.418C286.468 175.418 287.037 175.286 287.51 175.023C287.988 174.76 288.351 174.416 288.598 173.992C288.85 173.562 288.976 173.103 288.976 172.614V171.018C288.89 171.104 288.724 171.185 288.477 171.26C288.235 171.33 287.959 171.392 287.647 171.445C287.335 171.494 287.032 171.539 286.736 171.582C286.441 171.62 286.194 171.652 285.995 171.679C285.528 171.738 285.101 171.838 284.714 171.977C284.333 172.117 284.026 172.318 283.795 172.582C283.57 172.839 283.457 173.183 283.457 173.613C283.457 174.209 283.677 174.66 284.118 174.967C284.558 175.267 285.12 175.418 285.802 175.418ZM294.595 177.078V164.701H296.923V166.667H297.052C297.278 166.001 297.675 165.477 298.245 165.096C298.819 164.709 299.469 164.516 300.195 164.516C300.345 164.516 300.522 164.521 300.726 164.532C300.936 164.543 301.1 164.556 301.218 164.572V166.877C301.121 166.85 300.949 166.82 300.702 166.788C300.455 166.751 300.208 166.732 299.961 166.732C299.392 166.732 298.884 166.853 298.438 167.094C297.998 167.331 297.648 167.661 297.391 168.085C297.133 168.504 297.004 168.982 297.004 169.52V177.078H294.595ZM306.794 177.352C306.009 177.352 305.3 177.207 304.667 176.916C304.033 176.621 303.53 176.194 303.16 175.635C302.795 175.077 302.612 174.392 302.612 173.581C302.612 172.882 302.746 172.308 303.015 171.856C303.283 171.405 303.646 171.048 304.103 170.785C304.559 170.521 305.069 170.323 305.633 170.188C306.197 170.054 306.772 169.952 307.358 169.882C308.099 169.796 308.701 169.726 309.163 169.673C309.625 169.614 309.96 169.52 310.17 169.391C310.379 169.262 310.484 169.052 310.484 168.762V168.706C310.484 168.002 310.285 167.457 309.888 167.07C309.496 166.683 308.91 166.49 308.131 166.49C307.32 166.49 306.681 166.67 306.214 167.03C305.752 167.384 305.432 167.779 305.255 168.214L302.991 167.699C303.259 166.947 303.651 166.34 304.167 165.878C304.688 165.41 305.287 165.072 305.964 164.862C306.641 164.647 307.352 164.54 308.099 164.54C308.593 164.54 309.117 164.599 309.67 164.717C310.229 164.83 310.75 165.04 311.233 165.346C311.722 165.652 312.123 166.09 312.434 166.659C312.746 167.223 312.901 167.956 312.901 168.859V177.078H310.549V175.386H310.452C310.296 175.697 310.062 176.003 309.751 176.304C309.439 176.605 309.039 176.855 308.55 177.053C308.061 177.252 307.476 177.352 306.794 177.352ZM307.318 175.418C307.984 175.418 308.553 175.286 309.026 175.023C309.504 174.76 309.866 174.416 310.113 173.992C310.366 173.562 310.492 173.103 310.492 172.614V171.018C310.406 171.104 310.24 171.185 309.993 171.26C309.751 171.33 309.474 171.392 309.163 171.445C308.851 171.494 308.548 171.539 308.252 171.582C307.957 171.62 307.71 171.652 307.511 171.679C307.044 171.738 306.616 171.838 306.23 171.977C305.848 172.117 305.542 172.318 305.311 172.582C305.086 172.839 304.973 173.183 304.973 173.613C304.973 174.209 305.193 174.66 305.633 174.967C306.074 175.267 306.635 175.418 307.318 175.418ZM318.52 169.729V177.078H316.11V164.701H318.423V166.716H318.576C318.861 166.06 319.306 165.534 319.914 165.136C320.526 164.739 321.297 164.54 322.226 164.54C323.069 164.54 323.808 164.717 324.442 165.072C325.076 165.421 325.567 165.942 325.916 166.635C326.266 167.328 326.44 168.185 326.44 169.205V177.078H324.031V169.495C324.031 168.598 323.797 167.897 323.33 167.392C322.863 166.882 322.221 166.627 321.404 166.627C320.845 166.627 320.349 166.748 319.914 166.99C319.484 167.231 319.143 167.586 318.89 168.053C318.643 168.515 318.52 169.074 318.52 169.729ZM334.86 181.977C333.877 181.977 333.031 181.848 332.322 181.59C331.618 181.332 331.044 180.991 330.598 180.567C330.152 180.142 329.819 179.678 329.599 179.173L331.67 178.319C331.815 178.555 332.008 178.805 332.25 179.068C332.497 179.336 332.83 179.565 333.249 179.753C333.673 179.941 334.218 180.035 334.884 180.035C335.798 180.035 336.552 179.812 337.149 179.366C337.745 178.926 338.043 178.222 338.043 177.255V174.822H337.89C337.745 175.085 337.535 175.377 337.261 175.7C336.993 176.022 336.622 176.301 336.15 176.538C335.677 176.774 335.062 176.892 334.304 176.892C333.327 176.892 332.446 176.664 331.661 176.207C330.883 175.745 330.265 175.066 329.808 174.169C329.357 173.266 329.131 172.157 329.131 170.841C329.131 169.525 329.354 168.397 329.8 167.457C330.251 166.517 330.869 165.797 331.653 165.297C332.438 164.793 333.327 164.54 334.32 164.54C335.089 164.54 335.709 164.669 336.182 164.927C336.654 165.179 337.022 165.475 337.286 165.813C337.554 166.152 337.761 166.45 337.906 166.708H338.083V164.701H340.444V177.352C340.444 178.415 340.197 179.288 339.703 179.97C339.209 180.653 338.54 181.157 337.697 181.485C336.859 181.813 335.913 181.977 334.86 181.977ZM334.836 174.894C335.529 174.894 336.115 174.733 336.593 174.411C337.076 174.083 337.441 173.616 337.689 173.009C337.941 172.396 338.067 171.663 338.067 170.809C338.067 169.976 337.944 169.243 337.697 168.609C337.449 167.975 337.087 167.481 336.609 167.127C336.131 166.767 335.54 166.587 334.836 166.587C334.111 166.587 333.507 166.775 333.023 167.151C332.54 167.521 332.174 168.026 331.927 168.666C331.686 169.305 331.565 170.019 331.565 170.809C331.565 171.62 331.688 172.332 331.935 172.944C332.183 173.556 332.548 174.035 333.031 174.378C333.52 174.722 334.122 174.894 334.836 174.894Z" fill="#347357"/>
<path d="M135.737 192.597H137.751L141.253 201.149H141.382L144.885 192.597H146.899V203.599H145.32V195.638H145.218L141.973 203.583H140.663L137.418 195.632H137.316V203.599H135.737V192.597ZM151.585 203.781C151.062 203.781 150.589 203.685 150.167 203.491C149.744 203.294 149.409 203.01 149.162 202.637C148.918 202.265 148.797 201.808 148.797 201.267C148.797 200.802 148.886 200.419 149.065 200.118C149.244 199.817 149.486 199.579 149.79 199.403C150.095 199.228 150.435 199.095 150.811 199.006C151.187 198.916 151.57 198.848 151.961 198.802C152.455 198.744 152.856 198.698 153.164 198.662C153.472 198.623 153.696 198.56 153.835 198.474C153.975 198.388 154.045 198.248 154.045 198.055V198.017C154.045 197.548 153.912 197.185 153.647 196.927C153.386 196.669 152.996 196.54 152.476 196.54C151.936 196.54 151.509 196.66 151.198 196.9C150.89 197.136 150.677 197.4 150.559 197.69L149.049 197.346C149.228 196.845 149.49 196.44 149.833 196.132C150.181 195.82 150.58 195.595 151.031 195.455C151.483 195.312 151.957 195.24 152.455 195.24C152.784 195.24 153.133 195.28 153.502 195.358C153.875 195.434 154.222 195.573 154.544 195.777C154.87 195.982 155.137 196.273 155.345 196.653C155.553 197.029 155.656 197.518 155.656 198.119V203.599H154.088V202.471H154.023C153.92 202.678 153.764 202.882 153.556 203.083C153.348 203.283 153.082 203.45 152.756 203.583C152.43 203.715 152.039 203.781 151.585 203.781ZM151.934 202.492C152.378 202.492 152.757 202.404 153.073 202.229C153.391 202.053 153.633 201.824 153.798 201.541C153.966 201.255 154.05 200.949 154.05 200.623V199.559C153.993 199.616 153.882 199.67 153.717 199.72C153.556 199.767 153.372 199.808 153.164 199.844C152.956 199.876 152.754 199.906 152.557 199.935C152.36 199.96 152.195 199.982 152.063 200C151.751 200.039 151.466 200.105 151.209 200.198C150.954 200.291 150.75 200.426 150.596 200.601C150.446 200.773 150.371 201.002 150.371 201.289C150.371 201.686 150.517 201.987 150.811 202.191C151.105 202.392 151.479 202.492 151.934 202.492ZM160.197 203.781C159.674 203.781 159.201 203.685 158.779 203.491C158.356 203.294 158.021 203.01 157.774 202.637C157.531 202.265 157.409 201.808 157.409 201.267C157.409 200.802 157.498 200.419 157.678 200.118C157.857 199.817 158.098 199.579 158.403 199.403C158.707 199.228 159.047 199.095 159.423 199.006C159.799 198.916 160.183 198.848 160.573 198.802C161.067 198.744 161.468 198.698 161.776 198.662C162.084 198.623 162.308 198.56 162.448 198.474C162.587 198.388 162.657 198.248 162.657 198.055V198.017C162.657 197.548 162.525 197.185 162.26 196.927C161.998 196.669 161.608 196.54 161.089 196.54C160.548 196.54 160.122 196.66 159.81 196.9C159.502 197.136 159.289 197.4 159.171 197.69L157.661 197.346C157.84 196.845 158.102 196.44 158.446 196.132C158.793 195.82 159.192 195.595 159.644 195.455C160.095 195.312 160.569 195.24 161.067 195.24C161.397 195.24 161.746 195.28 162.115 195.358C162.487 195.434 162.834 195.573 163.157 195.777C163.483 195.982 163.749 196.273 163.957 196.653C164.165 197.029 164.269 197.518 164.269 198.119V203.599H162.7V202.471H162.636C162.532 202.678 162.376 202.882 162.168 203.083C161.961 203.283 161.694 203.45 161.368 203.583C161.042 203.715 160.652 203.781 160.197 203.781ZM160.546 202.492C160.99 202.492 161.37 202.404 161.685 202.229C162.004 202.053 162.245 201.824 162.41 201.541C162.578 201.255 162.662 200.949 162.662 200.623V199.559C162.605 199.616 162.494 199.67 162.329 199.72C162.168 199.767 161.984 199.808 161.776 199.844C161.568 199.876 161.366 199.906 161.169 199.935C160.972 199.96 160.807 199.982 160.675 200C160.363 200.039 160.079 200.105 159.821 200.198C159.567 200.291 159.362 200.426 159.208 200.601C159.058 200.773 158.983 201.002 158.983 201.289C158.983 201.686 159.13 201.987 159.423 202.191C159.717 202.392 160.091 202.492 160.546 202.492ZM170.335 195.348V196.637H165.672V195.348H170.335ZM166.95 203.599V194.392C166.95 193.876 167.063 193.448 167.289 193.108C167.514 192.764 167.814 192.508 168.186 192.34C168.558 192.168 168.963 192.082 169.4 192.082C169.722 192.082 169.998 192.109 170.227 192.162C170.456 192.212 170.626 192.259 170.738 192.302L170.361 193.602C170.286 193.58 170.19 193.555 170.071 193.527C169.953 193.494 169.81 193.478 169.642 193.478C169.251 193.478 168.972 193.575 168.804 193.768C168.639 193.962 168.557 194.241 168.557 194.606V203.599H166.95ZM173.225 202.095L173.144 202.68C173.09 203.11 172.999 203.557 172.87 204.023C172.745 204.492 172.614 204.927 172.478 205.328C172.345 205.729 172.236 206.048 172.15 206.284H171.011C171.058 206.062 171.122 205.762 171.205 205.382C171.287 205.006 171.368 204.585 171.447 204.12C171.525 203.654 171.584 203.18 171.624 202.696L171.678 202.095H173.225ZM180.796 200.8L180.785 198.839H181.065L184.352 195.348H186.275L182.526 199.323H182.273L180.796 200.8ZM179.319 203.599V192.597H180.925V203.599H179.319ZM184.529 203.599L181.575 199.677L182.682 198.555L186.501 203.599H184.529ZM190.14 203.781C189.617 203.781 189.145 203.685 188.722 203.491C188.299 203.294 187.965 203.01 187.718 202.637C187.474 202.265 187.352 201.808 187.352 201.267C187.352 200.802 187.442 200.419 187.621 200.118C187.8 199.817 188.042 199.579 188.346 199.403C188.65 199.228 188.991 199.095 189.367 199.006C189.743 198.916 190.126 198.848 190.516 198.802C191.01 198.744 191.411 198.698 191.719 198.662C192.027 198.623 192.251 198.56 192.391 198.474C192.531 198.388 192.6 198.248 192.6 198.055V198.017C192.6 197.548 192.468 197.185 192.203 196.927C191.941 196.669 191.551 196.54 191.032 196.54C190.491 196.54 190.065 196.66 189.753 196.9C189.445 197.136 189.232 197.4 189.114 197.69L187.605 197.346C187.784 196.845 188.045 196.44 188.389 196.132C188.736 195.82 189.136 195.595 189.587 195.455C190.038 195.312 190.513 195.24 191.01 195.24C191.34 195.24 191.689 195.28 192.058 195.358C192.43 195.434 192.778 195.573 193.1 195.777C193.426 195.982 193.693 196.273 193.9 196.653C194.108 197.029 194.212 197.518 194.212 198.119V203.599H192.643V202.471H192.579C192.475 202.678 192.319 202.882 192.112 203.083C191.904 203.283 191.637 203.45 191.311 203.583C190.985 203.715 190.595 203.781 190.14 203.781ZM190.489 202.492C190.933 202.492 191.313 202.404 191.628 202.229C191.947 202.053 192.189 201.824 192.353 201.541C192.522 201.255 192.606 200.949 192.606 200.623V199.559C192.548 199.616 192.437 199.67 192.273 199.72C192.112 199.767 191.927 199.808 191.719 199.844C191.512 199.876 191.309 199.906 191.112 199.935C190.915 199.96 190.751 199.982 190.618 200C190.307 200.039 190.022 200.105 189.764 200.198C189.51 200.291 189.306 200.426 189.152 200.601C189.001 200.773 188.926 201.002 188.926 201.289C188.926 201.686 189.073 201.987 189.367 202.191C189.66 202.392 190.035 202.492 190.489 202.492ZM196.351 203.599V195.348H197.893V196.691H197.995C198.167 196.236 198.448 195.881 198.838 195.627C199.229 195.369 199.696 195.24 200.24 195.24C200.792 195.24 201.254 195.369 201.626 195.627C202.002 195.885 202.28 196.239 202.459 196.691H202.545C202.742 196.25 203.055 195.899 203.485 195.638C203.915 195.373 204.427 195.24 205.021 195.24C205.77 195.24 206.38 195.475 206.853 195.944C207.329 196.413 207.567 197.12 207.567 198.066V203.599H205.961V198.216C205.961 197.658 205.809 197.253 205.505 197.002C205.2 196.751 204.837 196.626 204.414 196.626C203.891 196.626 203.485 196.787 203.195 197.11C202.905 197.428 202.76 197.838 202.76 198.34V203.599H201.159V198.114C201.159 197.666 201.019 197.307 200.74 197.034C200.461 196.762 200.097 196.626 199.649 196.626C199.345 196.626 199.064 196.707 198.806 196.868C198.552 197.025 198.346 197.246 198.188 197.529C198.034 197.812 197.957 198.139 197.957 198.512V203.599H196.351ZM214.947 200.177V195.348H216.558V203.599H214.979V202.17H214.893C214.703 202.61 214.399 202.977 213.98 203.271C213.564 203.561 213.047 203.706 212.427 203.706C211.897 203.706 211.428 203.59 211.02 203.357C210.615 203.121 210.297 202.771 210.064 202.309C209.835 201.847 209.72 201.276 209.72 200.596V195.348H211.326V200.402C211.326 200.965 211.482 201.412 211.794 201.745C212.105 202.078 212.51 202.245 213.008 202.245C213.308 202.245 213.607 202.17 213.905 202.019C214.205 201.869 214.454 201.642 214.651 201.337C214.852 201.033 214.95 200.646 214.947 200.177ZM226.571 195.348V196.637H222.064V195.348H226.571ZM223.273 193.371H224.879V201.176C224.879 201.488 224.926 201.722 225.019 201.88C225.112 202.034 225.232 202.139 225.379 202.197C225.529 202.25 225.692 202.277 225.867 202.277C225.996 202.277 226.109 202.268 226.206 202.25C226.303 202.232 226.378 202.218 226.431 202.207L226.722 203.534C226.628 203.57 226.496 203.606 226.324 203.642C226.152 203.681 225.937 203.702 225.679 203.706C225.257 203.713 224.863 203.638 224.498 203.48C224.132 203.323 223.837 203.079 223.611 202.75C223.386 202.42 223.273 202.007 223.273 201.509V193.371ZM228.348 203.599V195.348H229.954V203.599H228.348ZM229.159 194.075C228.88 194.075 228.64 193.981 228.439 193.795C228.242 193.605 228.144 193.38 228.144 193.118C228.144 192.853 228.242 192.628 228.439 192.442C228.64 192.252 228.88 192.157 229.159 192.157C229.438 192.157 229.676 192.252 229.873 192.442C230.074 192.628 230.174 192.853 230.174 193.118C230.174 193.38 230.074 193.605 229.873 193.795C229.676 193.981 229.438 194.075 229.159 194.075ZM235.204 203.76C234.537 203.76 233.943 203.59 233.42 203.249C232.901 202.906 232.493 202.417 232.195 201.783C231.902 201.146 231.755 200.381 231.755 199.489C231.755 198.598 231.903 197.835 232.201 197.201C232.502 196.567 232.913 196.082 233.436 195.745C233.959 195.409 234.552 195.24 235.214 195.24C235.726 195.24 236.138 195.326 236.45 195.498C236.765 195.666 237.008 195.863 237.18 196.089C237.356 196.315 237.492 196.513 237.589 196.685H237.685V192.597H239.291V203.599H237.723V202.315H237.589C237.492 202.49 237.352 202.691 237.17 202.916C236.991 203.142 236.743 203.339 236.428 203.507C236.113 203.676 235.705 203.76 235.204 203.76ZM235.558 202.39C236.02 202.39 236.41 202.268 236.729 202.025C237.051 201.778 237.295 201.436 237.46 200.999C237.628 200.562 237.712 200.053 237.712 199.473C237.712 198.9 237.63 198.399 237.465 197.969C237.3 197.539 237.059 197.204 236.74 196.965C236.421 196.725 236.027 196.605 235.558 196.605C235.075 196.605 234.672 196.73 234.349 196.981C234.027 197.231 233.784 197.573 233.619 198.007C233.458 198.44 233.377 198.929 233.377 199.473C233.377 200.025 233.459 200.521 233.624 200.961C233.789 201.402 234.032 201.751 234.355 202.009C234.681 202.263 235.082 202.39 235.558 202.39ZM243.985 203.781C243.462 203.781 242.989 203.685 242.567 203.491C242.144 203.294 241.809 203.01 241.562 202.637C241.319 202.265 241.197 201.808 241.197 201.267C241.197 200.802 241.287 200.419 241.466 200.118C241.645 199.817 241.886 199.579 242.191 199.403C242.495 199.228 242.835 199.095 243.211 199.006C243.587 198.916 243.971 198.848 244.361 198.802C244.855 198.744 245.256 198.698 245.564 198.662C245.872 198.623 246.096 198.56 246.236 198.474C246.375 198.388 246.445 198.248 246.445 198.055V198.017C246.445 197.548 246.313 197.185 246.048 196.927C245.786 196.669 245.396 196.54 244.877 196.54C244.336 196.54 243.91 196.66 243.598 196.9C243.29 197.136 243.077 197.4 242.959 197.69L241.449 197.346C241.629 196.845 241.89 196.44 242.234 196.132C242.581 195.82 242.98 195.595 243.432 195.455C243.883 195.312 244.357 195.24 244.855 195.24C245.185 195.24 245.534 195.28 245.903 195.358C246.275 195.434 246.622 195.573 246.945 195.777C247.271 195.982 247.537 196.273 247.745 196.653C247.953 197.029 248.057 197.518 248.057 198.119V203.599H246.488V202.471H246.424C246.32 202.678 246.164 202.882 245.956 203.083C245.749 203.283 245.482 203.45 245.156 203.583C244.83 203.715 244.44 203.781 243.985 203.781ZM244.334 202.492C244.778 202.492 245.158 202.404 245.473 202.229C245.792 202.053 246.033 201.824 246.198 201.541C246.366 201.255 246.451 200.949 246.451 200.623V199.559C246.393 199.616 246.282 199.67 246.118 199.72C245.956 199.767 245.772 199.808 245.564 199.844C245.357 199.876 245.154 199.906 244.957 199.935C244.76 199.96 244.596 199.982 244.463 200C244.151 200.039 243.867 200.105 243.609 200.198C243.355 200.291 243.151 200.426 242.997 200.601C242.846 200.773 242.771 201.002 242.771 201.289C242.771 201.686 242.918 201.987 243.211 202.191C243.505 202.392 243.879 202.492 244.334 202.492ZM251.673 200.8L251.662 198.839H251.942L255.229 195.348H257.152L253.403 199.323H253.15L251.673 200.8ZM250.196 203.599V192.597H251.802V203.599H250.196ZM255.407 203.599L252.452 199.677L253.559 198.555L257.378 203.599H255.407ZM262.619 203.599V195.348H264.161V196.691H264.263C264.435 196.236 264.716 195.881 265.107 195.627C265.497 195.369 265.964 195.24 266.509 195.24C267.06 195.24 267.522 195.369 267.894 195.627C268.27 195.885 268.548 196.239 268.727 196.691H268.813C269.01 196.25 269.323 195.899 269.753 195.638C270.183 195.373 270.695 195.24 271.289 195.24C272.038 195.24 272.648 195.475 273.121 195.944C273.597 196.413 273.836 197.12 273.836 198.066V203.599H272.229V198.216C272.229 197.658 272.077 197.253 271.773 197.002C271.468 196.751 271.105 196.626 270.682 196.626C270.16 196.626 269.753 196.787 269.463 197.11C269.173 197.428 269.028 197.838 269.028 198.34V203.599H267.427V198.114C267.427 197.666 267.287 197.307 267.008 197.034C266.729 196.762 266.365 196.626 265.918 196.626C265.613 196.626 265.332 196.707 265.074 196.868C264.82 197.025 264.614 197.246 264.457 197.529C264.303 197.812 264.226 198.139 264.226 198.512V203.599H262.619ZM279.544 203.765C278.731 203.765 278.031 203.591 277.444 203.244C276.86 202.893 276.409 202.401 276.09 201.767C275.775 201.129 275.618 200.383 275.618 199.527C275.618 198.682 275.775 197.937 276.09 197.292C276.409 196.648 276.853 196.144 277.423 195.783C277.996 195.421 278.665 195.24 279.432 195.24C279.897 195.24 280.348 195.317 280.785 195.471C281.222 195.625 281.614 195.867 281.962 196.196C282.309 196.526 282.583 196.954 282.784 197.48C282.984 198.003 283.084 198.639 283.084 199.387V199.957H276.525V198.753H281.51C281.51 198.331 281.424 197.957 281.253 197.631C281.081 197.301 280.839 197.042 280.527 196.852C280.219 196.662 279.858 196.567 279.442 196.567C278.991 196.567 278.597 196.678 278.261 196.9C277.927 197.119 277.67 197.405 277.487 197.76C277.308 198.111 277.218 198.492 277.218 198.904V199.844C277.218 200.395 277.315 200.864 277.508 201.251C277.705 201.638 277.979 201.933 278.33 202.138C278.681 202.338 279.091 202.438 279.56 202.438C279.865 202.438 280.142 202.395 280.393 202.309C280.644 202.22 280.86 202.087 281.043 201.912C281.226 201.736 281.365 201.52 281.462 201.262L282.982 201.536C282.861 201.984 282.642 202.376 282.327 202.712C282.015 203.045 281.623 203.305 281.151 203.491C280.681 203.674 280.146 203.765 279.544 203.765ZM284.866 203.599V195.348H286.408V196.691H286.51C286.682 196.236 286.963 195.881 287.354 195.627C287.744 195.369 288.211 195.24 288.756 195.24C289.307 195.24 289.769 195.369 290.141 195.627C290.517 195.885 290.795 196.239 290.974 196.691H291.06C291.257 196.25 291.57 195.899 292 195.638C292.43 195.373 292.942 195.24 293.536 195.24C294.285 195.24 294.895 195.475 295.368 195.944C295.844 196.413 296.083 197.12 296.083 198.066V203.599H294.476V198.216C294.476 197.658 294.324 197.253 294.02 197.002C293.715 196.751 293.352 196.626 292.929 196.626C292.407 196.626 292 196.787 291.71 197.11C291.42 197.428 291.275 197.838 291.275 198.34V203.599H289.674V198.114C289.674 197.666 289.534 197.307 289.255 197.034C288.976 196.762 288.612 196.626 288.165 196.626C287.86 196.626 287.579 196.707 287.321 196.868C287.067 197.025 286.861 197.246 286.704 197.529C286.55 197.812 286.473 198.139 286.473 198.512V203.599H284.866ZM298.235 203.599V195.348H299.841V203.599H298.235ZM299.046 194.075C298.767 194.075 298.527 193.981 298.327 193.795C298.13 193.605 298.031 193.38 298.031 193.118C298.031 192.853 298.13 192.628 298.327 192.442C298.527 192.252 298.767 192.157 299.046 192.157C299.326 192.157 299.564 192.252 299.761 192.442C299.961 192.628 300.062 192.853 300.062 193.118C300.062 193.38 299.961 193.605 299.761 193.795C299.564 193.981 299.326 194.075 299.046 194.075ZM303.608 192.597V203.599H302.002V192.597H303.608ZM305.769 203.599V195.348H307.375V203.599H305.769ZM306.58 194.075C306.301 194.075 306.061 193.981 305.86 193.795C305.663 193.605 305.565 193.38 305.565 193.118C305.565 192.853 305.663 192.628 305.86 192.442C306.061 192.252 306.301 192.157 306.58 192.157C306.86 192.157 307.098 192.252 307.295 192.442C307.495 192.628 307.595 192.853 307.595 193.118C307.595 193.38 307.495 193.605 307.295 193.795C307.098 193.981 306.86 194.075 306.58 194.075ZM311.013 200.8L311.002 198.839H311.282L314.569 195.348H316.492L312.743 199.323H312.49L311.013 200.8ZM309.536 203.599V192.597H311.142V203.599H309.536ZM314.747 203.599L311.792 199.677L312.899 198.555L316.718 203.599H314.747ZM317.956 203.599V195.348H319.562V203.599H317.956ZM318.767 194.075C318.488 194.075 318.248 193.981 318.047 193.795C317.851 193.605 317.752 193.38 317.752 193.118C317.752 192.853 317.851 192.628 318.047 192.442C318.248 192.252 318.488 192.157 318.767 192.157C319.047 192.157 319.285 192.252 319.482 192.442C319.682 192.628 319.783 192.853 319.783 193.118C319.783 193.38 319.682 193.605 319.482 193.795C319.285 193.981 319.047 194.075 318.767 194.075ZM328.128 203.781C327.605 203.781 327.132 203.685 326.709 203.491C326.287 203.294 325.952 203.01 325.705 202.637C325.461 202.265 325.34 201.808 325.34 201.267C325.34 200.802 325.429 200.419 325.608 200.118C325.787 199.817 326.029 199.579 326.333 199.403C326.638 199.228 326.978 199.095 327.354 199.006C327.73 198.916 328.113 198.848 328.504 198.802C328.998 198.744 329.399 198.698 329.707 198.662C330.015 198.623 330.239 198.56 330.378 198.474C330.518 198.388 330.588 198.248 330.588 198.055V198.017C330.588 197.548 330.455 197.185 330.19 196.927C329.929 196.669 329.539 196.54 329.019 196.54C328.478 196.54 328.052 196.66 327.741 196.9C327.433 197.136 327.22 197.4 327.102 197.69L325.592 197.346C325.771 196.845 326.033 196.44 326.376 196.132C326.724 195.82 327.123 195.595 327.574 195.455C328.025 195.312 328.5 195.24 328.998 195.24C329.327 195.24 329.676 195.28 330.045 195.358C330.418 195.434 330.765 195.573 331.087 195.777C331.413 195.982 331.68 196.273 331.888 196.653C332.095 197.029 332.199 197.518 332.199 198.119V203.599H330.631V202.471H330.566C330.462 202.678 330.307 202.882 330.099 203.083C329.891 203.283 329.624 203.45 329.299 203.583C328.973 203.715 328.582 203.781 328.128 203.781ZM328.477 202.492C328.921 202.492 329.3 202.404 329.616 202.229C329.934 202.053 330.176 201.824 330.341 201.541C330.509 201.255 330.593 200.949 330.593 200.623V199.559C330.536 199.616 330.425 199.67 330.26 199.72C330.099 199.767 329.915 199.808 329.707 199.844C329.499 199.876 329.297 199.906 329.1 199.935C328.903 199.96 328.738 199.982 328.606 200C328.294 200.039 328.009 200.105 327.752 200.198C327.497 200.291 327.293 200.426 327.139 200.601C326.989 200.773 326.914 201.002 326.914 201.289C326.914 201.686 327.06 201.987 327.354 202.191C327.648 202.392 328.022 202.492 328.477 202.492ZM335.816 200.8L335.805 198.839H336.084L339.372 195.348H341.295L337.546 199.323H337.293L335.816 200.8ZM334.339 203.599V192.597H335.945V203.599H334.339ZM339.549 203.599L336.595 199.677L337.701 198.555L341.521 203.599H339.549ZM348.942 197.362L347.486 197.62C347.425 197.434 347.328 197.256 347.196 197.088C347.067 196.92 346.891 196.782 346.669 196.674C346.447 196.567 346.17 196.513 345.837 196.513C345.382 196.513 345.002 196.615 344.698 196.82C344.394 197.02 344.241 197.28 344.241 197.598C344.241 197.874 344.343 198.096 344.548 198.265C344.752 198.433 345.081 198.571 345.536 198.678L346.847 198.979C347.606 199.154 348.172 199.425 348.544 199.79C348.917 200.155 349.103 200.63 349.103 201.214C349.103 201.708 348.96 202.148 348.673 202.535C348.39 202.918 347.994 203.219 347.486 203.437C346.981 203.656 346.395 203.765 345.729 203.765C344.805 203.765 344.052 203.568 343.468 203.174C342.884 202.777 342.526 202.213 342.393 201.482L343.946 201.246C344.043 201.65 344.241 201.957 344.542 202.164C344.843 202.369 345.235 202.471 345.719 202.471C346.245 202.471 346.666 202.361 346.981 202.143C347.296 201.921 347.454 201.65 347.454 201.332C347.454 201.074 347.357 200.857 347.164 200.682C346.974 200.506 346.682 200.374 346.288 200.284L344.891 199.978C344.121 199.803 343.552 199.523 343.183 199.14C342.818 198.757 342.635 198.272 342.635 197.684C342.635 197.197 342.771 196.771 343.043 196.406C343.316 196.041 343.692 195.756 344.172 195.552C344.651 195.344 345.201 195.24 345.821 195.24C346.712 195.24 347.414 195.434 347.926 195.82C348.438 196.204 348.777 196.717 348.942 197.362ZM354.425 203.765C353.612 203.765 352.912 203.591 352.324 203.244C351.741 202.893 351.29 202.401 350.971 201.767C350.656 201.129 350.498 200.383 350.498 199.527C350.498 198.682 350.656 197.937 350.971 197.292C351.29 196.648 351.734 196.144 352.303 195.783C352.876 195.421 353.546 195.24 354.312 195.24C354.778 195.24 355.229 195.317 355.666 195.471C356.103 195.625 356.495 195.867 356.842 196.196C357.189 196.526 357.463 196.954 357.664 197.48C357.864 198.003 357.965 198.639 357.965 199.387V199.957H351.406V198.753H356.391C356.391 198.331 356.305 197.957 356.133 197.631C355.961 197.301 355.719 197.042 355.408 196.852C355.1 196.662 354.738 196.567 354.323 196.567C353.872 196.567 353.478 196.678 353.141 196.9C352.808 197.119 352.55 197.405 352.367 197.76C352.188 198.111 352.099 198.492 352.099 198.904V199.844C352.099 200.395 352.196 200.864 352.389 201.251C352.586 201.638 352.86 201.933 353.211 202.138C353.562 202.338 353.972 202.438 354.441 202.438C354.745 202.438 355.023 202.395 355.274 202.309C355.524 202.22 355.741 202.087 355.924 201.912C356.106 201.736 356.246 201.52 356.342 201.262L357.863 201.536C357.741 201.984 357.522 202.376 357.207 202.712C356.896 203.045 356.504 203.305 356.031 203.491C355.562 203.674 355.026 203.765 354.425 203.765ZM365.93 197.362L364.474 197.62C364.413 197.434 364.316 197.256 364.184 197.088C364.055 196.92 363.879 196.782 363.657 196.674C363.435 196.567 363.158 196.513 362.825 196.513C362.37 196.513 361.99 196.615 361.686 196.82C361.382 197.02 361.229 197.28 361.229 197.598C361.229 197.874 361.331 198.096 361.536 198.265C361.74 198.433 362.069 198.571 362.524 198.678L363.835 198.979C364.594 199.154 365.16 199.425 365.532 199.79C365.905 200.155 366.091 200.63 366.091 201.214C366.091 201.708 365.948 202.148 365.661 202.535C365.378 202.918 364.982 203.219 364.474 203.437C363.969 203.656 363.383 203.765 362.717 203.765C361.793 203.765 361.04 203.568 360.456 203.174C359.872 202.777 359.514 202.213 359.382 201.482L360.934 201.246C361.031 201.65 361.229 201.957 361.53 202.164C361.831 202.369 362.223 202.471 362.707 202.471C363.233 202.471 363.654 202.361 363.969 202.143C364.284 201.921 364.442 201.65 364.442 201.332C364.442 201.074 364.345 200.857 364.152 200.682C363.962 200.506 363.67 200.374 363.276 200.284L361.879 199.978C361.109 199.803 360.54 199.523 360.171 199.14C359.806 198.757 359.623 198.272 359.623 197.684C359.623 197.197 359.759 196.771 360.032 196.406C360.304 196.041 360.68 195.756 361.16 195.552C361.639 195.344 362.189 195.24 362.809 195.24C363.7 195.24 364.402 195.434 364.914 195.82C365.427 196.204 365.765 196.717 365.93 197.362ZM373.337 200.8L373.327 198.839H373.606L376.893 195.348H378.816L375.067 199.323H374.814L373.337 200.8ZM371.86 203.599V192.597H373.466V203.599H371.86ZM377.071 203.599L374.116 199.677L375.223 198.555L379.042 203.599H377.071ZM383.497 203.765C382.684 203.765 381.984 203.591 381.396 203.244C380.812 202.893 380.361 202.401 380.043 201.767C379.727 201.129 379.57 200.383 379.57 199.527C379.57 198.682 379.727 197.937 380.043 197.292C380.361 196.648 380.805 196.144 381.375 195.783C381.948 195.421 382.617 195.24 383.384 195.24C383.849 195.24 384.301 195.317 384.737 195.471C385.174 195.625 385.566 195.867 385.914 196.196C386.261 196.526 386.535 196.954 386.736 197.48C386.936 198.003 387.037 198.639 387.037 199.387V199.957H380.478V198.753H385.463C385.463 198.331 385.377 197.957 385.205 197.631C385.033 197.301 384.791 197.042 384.48 196.852C384.172 196.662 383.81 196.567 383.394 196.567C382.943 196.567 382.549 196.678 382.213 196.9C381.88 197.119 381.622 197.405 381.439 197.76C381.26 198.111 381.171 198.492 381.171 198.904V199.844C381.171 200.395 381.267 200.864 381.461 201.251C381.658 201.638 381.932 201.933 382.283 202.138C382.633 202.338 383.044 202.438 383.513 202.438C383.817 202.438 384.095 202.395 384.345 202.309C384.596 202.22 384.813 202.087 384.995 201.912C385.178 201.736 385.318 201.52 385.414 201.262L386.934 201.536C386.813 201.984 386.594 202.376 386.279 202.712C385.968 203.045 385.575 203.305 385.103 203.491C384.634 203.674 384.098 203.765 383.497 203.765ZM222.974 219.7V224.599H221.368V213.597H222.953V217.691H223.055C223.248 217.247 223.544 216.894 223.941 216.632C224.339 216.371 224.858 216.24 225.499 216.24C226.065 216.24 226.559 216.357 226.981 216.589C227.408 216.822 227.737 217.17 227.97 217.632C228.206 218.09 228.324 218.663 228.324 219.35V224.599H226.718V219.544C226.718 218.939 226.562 218.47 226.251 218.136C225.939 217.8 225.506 217.632 224.951 217.632C224.571 217.632 224.231 217.712 223.93 217.873C223.633 218.034 223.398 218.271 223.227 218.582C223.058 218.89 222.974 219.263 222.974 219.7ZM232.869 224.781C232.346 224.781 231.873 224.685 231.451 224.491C231.028 224.294 230.693 224.01 230.446 223.637C230.203 223.265 230.081 222.808 230.081 222.267C230.081 221.802 230.17 221.419 230.349 221.118C230.529 220.817 230.77 220.579 231.075 220.403C231.379 220.228 231.719 220.095 232.095 220.006C232.471 219.916 232.855 219.848 233.245 219.802C233.739 219.744 234.14 219.698 234.448 219.662C234.756 219.623 234.98 219.56 235.12 219.474C235.259 219.388 235.329 219.248 235.329 219.055V219.017C235.329 218.548 235.197 218.185 234.932 217.927C234.67 217.669 234.28 217.54 233.761 217.54C233.22 217.54 232.794 217.66 232.482 217.9C232.174 218.136 231.961 218.4 231.843 218.69L230.333 218.346C230.512 217.845 230.774 217.44 231.118 217.132C231.465 216.82 231.864 216.595 232.316 216.455C232.767 216.312 233.241 216.24 233.739 216.24C234.069 216.24 234.418 216.28 234.787 216.358C235.159 216.434 235.506 216.573 235.829 216.777C236.155 216.982 236.421 217.273 236.629 217.653C236.837 218.029 236.941 218.518 236.941 219.119V224.599H235.372V223.471H235.308C235.204 223.678 235.048 223.882 234.84 224.083C234.633 224.283 234.366 224.45 234.04 224.583C233.714 224.715 233.324 224.781 232.869 224.781ZM233.218 223.492C233.662 223.492 234.042 223.404 234.357 223.229C234.676 223.053 234.917 222.824 235.082 222.541C235.25 222.255 235.334 221.949 235.334 221.623V220.559C235.277 220.616 235.166 220.67 235.001 220.72C234.84 220.767 234.656 220.808 234.448 220.844C234.24 220.876 234.038 220.906 233.841 220.935C233.644 220.96 233.479 220.982 233.347 221C233.035 221.039 232.751 221.105 232.493 221.198C232.239 221.291 232.034 221.426 231.88 221.601C231.73 221.773 231.655 222.002 231.655 222.289C231.655 222.686 231.802 222.987 232.095 223.191C232.389 223.392 232.763 223.492 233.218 223.492ZM240.686 213.597V224.599H239.08V213.597H240.686ZM245.248 224.781C244.725 224.781 244.252 224.685 243.83 224.491C243.407 224.294 243.072 224.01 242.825 223.637C242.582 223.265 242.46 222.808 242.46 222.267C242.46 221.802 242.55 221.419 242.729 221.118C242.908 220.817 243.149 220.579 243.454 220.403C243.758 220.228 244.098 220.095 244.474 220.006C244.85 219.916 245.234 219.848 245.624 219.802C246.118 219.744 246.519 219.698 246.827 219.662C247.135 219.623 247.359 219.56 247.499 219.474C247.638 219.388 247.708 219.248 247.708 219.055V219.017C247.708 218.548 247.576 218.185 247.311 217.927C247.049 217.669 246.659 217.54 246.14 217.54C245.599 217.54 245.173 217.66 244.861 217.9C244.553 218.136 244.34 218.4 244.222 218.69L242.712 218.346C242.892 217.845 243.153 217.44 243.497 217.132C243.844 216.82 244.243 216.595 244.695 216.455C245.146 216.312 245.62 216.24 246.118 216.24C246.448 216.24 246.797 216.28 247.166 216.358C247.538 216.434 247.885 216.573 248.208 216.777C248.534 216.982 248.8 217.273 249.008 217.653C249.216 218.029 249.32 218.518 249.32 219.119V224.599H247.751V223.471H247.687C247.583 223.678 247.427 223.882 247.219 224.083C247.012 224.283 246.745 224.45 246.419 224.583C246.093 224.715 245.703 224.781 245.248 224.781ZM245.597 223.492C246.041 223.492 246.421 223.404 246.736 223.229C247.055 223.053 247.296 222.824 247.461 222.541C247.629 222.255 247.714 221.949 247.714 221.623V220.559C247.656 220.616 247.545 220.67 247.381 220.72C247.219 220.767 247.035 220.808 246.827 220.844C246.62 220.876 246.417 220.906 246.22 220.935C246.023 220.96 245.859 220.982 245.726 221C245.414 221.039 245.13 221.105 244.872 221.198C244.618 221.291 244.414 221.426 244.26 221.601C244.109 221.773 244.034 222.002 244.034 222.289C244.034 222.686 244.181 222.987 244.474 223.191C244.768 223.392 245.142 223.492 245.597 223.492ZM251.459 224.599V216.348H253.001V217.691H253.103C253.275 217.236 253.556 216.881 253.946 216.627C254.336 216.369 254.804 216.24 255.348 216.24C255.9 216.24 256.362 216.369 256.734 216.627C257.11 216.885 257.388 217.239 257.567 217.691H257.653C257.85 217.25 258.163 216.899 258.593 216.638C259.022 216.373 259.534 216.24 260.129 216.24C260.877 216.24 261.488 216.475 261.961 216.944C262.437 217.413 262.675 218.12 262.675 219.066V224.599H261.069V219.216C261.069 218.658 260.917 218.253 260.612 218.002C260.308 217.751 259.945 217.626 259.522 217.626C258.999 217.626 258.593 217.787 258.303 218.11C258.013 218.428 257.867 218.838 257.867 219.34V224.599H256.267V219.114C256.267 218.666 256.127 218.307 255.848 218.034C255.568 217.762 255.205 217.626 254.757 217.626C254.453 217.626 254.172 217.707 253.914 217.868C253.66 218.025 253.454 218.246 253.296 218.529C253.142 218.812 253.065 219.139 253.065 219.512V224.599H251.459ZM267.229 224.781C266.706 224.781 266.233 224.685 265.811 224.491C265.388 224.294 265.053 224.01 264.806 223.637C264.563 223.265 264.441 222.808 264.441 222.267C264.441 221.802 264.531 221.419 264.71 221.118C264.889 220.817 265.13 220.579 265.435 220.403C265.739 220.228 266.079 220.095 266.456 220.006C266.832 219.916 267.215 219.848 267.605 219.802C268.099 219.744 268.5 219.698 268.808 219.662C269.116 219.623 269.34 219.56 269.48 219.474C269.619 219.388 269.689 219.248 269.689 219.055V219.017C269.689 218.548 269.557 218.185 269.292 217.927C269.03 217.669 268.64 217.54 268.121 217.54C267.58 217.54 267.154 217.66 266.842 217.9C266.534 218.136 266.321 218.4 266.203 218.69L264.694 218.346C264.873 217.845 265.134 217.44 265.478 217.132C265.825 216.82 266.225 216.595 266.676 216.455C267.127 216.312 267.601 216.24 268.099 216.24C268.429 216.24 268.778 216.28 269.147 216.358C269.519 216.434 269.867 216.573 270.189 216.777C270.515 216.982 270.782 217.273 270.989 217.653C271.197 218.029 271.301 218.518 271.301 219.119V224.599H269.732V223.471H269.668C269.564 223.678 269.408 223.882 269.2 224.083C268.993 224.283 268.726 224.45 268.4 224.583C268.074 224.715 267.684 224.781 267.229 224.781ZM267.578 223.492C268.022 223.492 268.402 223.404 268.717 223.229C269.036 223.053 269.277 222.824 269.442 222.541C269.61 222.255 269.695 221.949 269.695 221.623V220.559C269.637 220.616 269.526 220.67 269.362 220.72C269.2 220.767 269.016 220.808 268.808 220.844C268.601 220.876 268.398 220.906 268.201 220.935C268.004 220.96 267.84 220.982 267.707 221C267.396 221.039 267.111 221.105 266.853 221.198C266.599 221.291 266.395 221.426 266.241 221.601C266.09 221.773 266.015 222.002 266.015 222.289C266.015 222.686 266.162 222.987 266.456 223.191C266.749 223.392 267.123 223.492 267.578 223.492ZM275.046 219.7V224.599H273.44V216.348H274.982V217.691H275.084C275.274 217.254 275.571 216.903 275.976 216.638C276.384 216.373 276.898 216.24 277.517 216.24C278.079 216.24 278.572 216.358 278.994 216.595C279.417 216.828 279.745 217.175 279.977 217.637C280.21 218.099 280.327 218.67 280.327 219.35V224.599H278.72V219.544C278.72 218.946 278.565 218.478 278.253 218.142C277.942 217.802 277.514 217.632 276.969 217.632C276.597 217.632 276.266 217.712 275.976 217.873C275.689 218.034 275.462 218.271 275.293 218.582C275.129 218.89 275.046 219.263 275.046 219.7ZM286.484 224.599V216.348H288.09V224.599H286.484ZM287.295 215.075C287.016 215.075 286.776 214.981 286.575 214.795C286.378 214.605 286.28 214.38 286.28 214.118C286.28 213.853 286.378 213.628 286.575 213.442C286.776 213.252 287.016 213.157 287.295 213.157C287.574 213.157 287.813 213.252 288.01 213.442C288.21 213.628 288.31 213.853 288.31 214.118C288.31 214.38 288.21 214.605 288.01 214.795C287.813 214.981 287.574 215.075 287.295 215.075ZM291.857 219.7V224.599H290.251V216.348H291.793V217.691H291.895C292.084 217.254 292.382 216.903 292.786 216.638C293.195 216.373 293.708 216.24 294.328 216.24C294.89 216.24 295.383 216.358 295.805 216.595C296.228 216.828 296.555 217.175 296.788 217.637C297.021 218.099 297.137 218.67 297.137 219.35V224.599H295.531V219.544C295.531 218.946 295.375 218.478 295.064 218.142C294.752 217.802 294.324 217.632 293.78 217.632C293.408 217.632 293.076 217.712 292.786 217.873C292.5 218.034 292.272 218.271 292.104 218.582C291.939 218.89 291.857 219.263 291.857 219.7ZM299.291 224.599V216.348H300.898V224.599H299.291ZM300.103 215.075C299.823 215.075 299.583 214.981 299.383 214.795C299.186 214.605 299.087 214.38 299.087 214.118C299.087 213.853 299.186 213.628 299.383 213.442C299.583 213.252 299.823 213.157 300.103 213.157C300.382 213.157 300.62 213.252 300.817 213.442C301.018 213.628 301.118 213.853 301.118 214.118C301.118 214.38 301.018 214.605 300.817 214.795C300.62 214.981 300.382 215.075 300.103 215.075Z" fill="#347357"/>
<g opacity="0.5">
<path d="M532.697 242.204H492.322V247.503H532.697V242.204Z" fill="#9ED0BB"/>
<path d="M532.697 246.973H488.603V254.921H532.697V246.973Z" fill="#9ED0BB"/>
<path d="M483.822 278.234H532.697V286.712H483.821L483.822 278.234Z" fill="#9ED0BB"/>
<path d="M532.697 316.383V307.906H483.822V316.383H532.697Z" fill="#9ED0BB"/>
<path d="M532.697 348.175V339.697H483.822V348.175H532.697Z" fill="#9ED0BB"/>
<path d="M532.697 377.846V369.369H483.822V377.846H532.697Z" fill="#9ED0BB"/>
<path d="M491.259 278.234H483.822V377.846H491.259V278.234Z" fill="#9ED0BB"/>
<path d="M483.822 278.234H491.259L499.759 254.921H492.322L483.822 278.234Z" fill="#9ED0BB"/>
<path d="M491.259 377.846H483.822L473.196 410.697H483.821L491.259 377.846Z" fill="#9ED0BB"/>
<path d="M491.259 280.354L489.134 277.174L531.635 252.801L533.76 255.98L491.259 280.354Z" fill="#9ED0BB"/>
<path d="M458.651 315.642L456.196 313.734L456.205 312.675L489.505 277.777L492.449 280.222L458.651 315.642Z" fill="#9ED0BB"/>
<path d="M458.664 375.952L456.223 374.04L456.23 372.981L489.218 338.176L492.146 340.626L458.664 375.952Z" fill="#9ED0BB"/>
<path d="M493.384 312.145L491.259 308.966L533.76 284.592L535.885 287.771L493.384 312.145Z" fill="#9ED0BB"/>
<path d="M493.384 342.876L491.259 339.697L533.76 315.324L535.885 318.503L493.384 342.876Z" fill="#9ED0BB"/>
<path d="M493.384 372.548L491.259 369.369L533.76 344.996L535.885 348.175L493.384 372.548Z" fill="#9ED0BB"/>
<path d="M484.884 410.697L482.759 407.518L532.697 376.787L534.822 379.966L484.884 410.697Z" fill="#9ED0BB"/>
<path d="M538.01 282.473L540.135 279.294L497.634 254.921L495.509 258.1L538.01 282.473Z" fill="#9ED0BB"/>
<path d="M531.635 312.145L533.76 308.966L491.259 284.592L489.134 287.771L531.635 312.145Z" fill="#9ED0BB"/>
<path d="M531.635 342.876L533.76 339.697L491.259 315.324L489.134 318.503L531.635 342.876Z" fill="#9ED0BB"/>
<path d="M531.635 372.548L533.76 369.369L491.259 344.996L489.134 348.175L531.635 372.548Z" fill="#9ED0BB"/>
<path d="M536.947 405.399L539.072 403.279L491.259 376.787L489.134 379.966L536.947 405.399Z" fill="#9ED0BB"/>
<path d="M456.727 312.145H484.884V316.383H456.196V312.675L456.727 312.145Z" fill="#9ED0BB"/>
<path d="M456.727 372.548H484.884V376.787H456.196V373.078L456.727 372.548Z" fill="#9ED0BB"/>
<path d="M456.196 316.383H460.446V319.563H456.196V316.383Z" fill="#9ED0BB"/>
<path d="M456.196 376.787H460.446V379.966H456.196V376.787Z" fill="#9ED0BB"/>
<path d="M483.821 278.234H532.697V286.712H483.821L483.821 278.234ZM483.821 278.234H491.259M483.821 278.234V377.846M483.821 278.234L492.322 254.921H499.759L491.259 278.234M483.821 377.846H532.697V369.369H483.821V377.846ZM483.821 377.846H491.259M483.821 377.846L473.196 410.697H483.821L491.259 377.846M491.259 278.234V377.846M456.196 316.383H484.884V312.145H456.727L456.196 312.675V316.383ZM456.196 316.383H460.446V319.563H456.196V316.383ZM456.196 376.787H484.884V372.548H456.727L456.196 373.078V376.787ZM456.196 376.787H460.446V379.966H456.196V376.787ZM456.727 319.033C431.472 334.676 222.222 403.279 -17.8652 379.966M457.259 378.906C422.727 400.63 156.623 522.333 4.89529 493.932M492.322 242.204H532.697V247.503H492.322V242.204ZM488.603 246.973H532.697V254.921H488.603V246.973ZM532.697 307.906V316.383H483.821V307.906H532.697ZM532.697 339.697V348.175H483.821V339.697H532.697ZM489.134 277.174L491.259 280.354L533.76 255.98L531.635 252.801L489.134 277.174ZM456.196 313.734L458.651 315.642L492.449 280.222L489.505 277.777L456.205 312.675L456.196 313.734ZM456.223 374.04L458.664 375.952L492.146 340.626L489.218 338.176L456.23 372.981L456.223 374.04ZM491.259 308.966L493.384 312.145L535.885 287.771L533.76 284.592L491.259 308.966ZM491.259 339.697L493.384 342.876L535.885 318.503L533.76 315.324L491.259 339.697ZM491.259 369.369L493.384 372.548L535.885 348.175L533.76 344.996L491.259 369.369ZM482.759 407.518L484.884 410.697L534.822 379.966L532.697 376.787L482.759 407.518ZM540.135 279.294L538.01 282.473L495.509 258.1L497.634 254.921L540.135 279.294ZM533.76 308.966L531.635 312.145L489.134 287.771L491.259 284.592L533.76 308.966ZM533.76 339.697L531.635 342.876L489.134 318.503L491.259 315.324L533.76 339.697ZM533.76 369.369L531.635 372.548L489.134 348.175L491.259 344.996L533.76 369.369ZM539.072 403.279L536.947 405.399L489.134 379.966L491.259 376.787L539.072 403.279Z" stroke="#9ED0BB"/>
</g>
<path d="M186.078 316.97C190.206 306.836 185.338 295.274 175.204 291.146L167.309 287.93C161.064 285.386 153.938 288.387 151.394 294.632L148.7 301.246C144.476 311.616 149.458 323.446 159.828 327.671L160.254 327.844C170.388 331.973 181.95 327.104 186.078 316.97Z" fill="#BBD0C7"/>
<rect width="47.9203" height="70.0374" rx="17.4437" transform="matrix(-0.92611 -0.377255 -0.377255 0.92611 224.213 267.327)" fill="#E4EDE9"/>
<path d="M220.923 275.404C222.74 270.943 220.597 265.854 216.136 264.036L187.911 252.539C183.45 250.722 178.36 252.865 176.543 257.326L175.662 259.49L220.041 277.568L220.923 275.404Z" fill="#444956"/>
<path d="M201.963 321.948L157.583 303.87L156.702 306.034C154.885 310.495 157.028 315.584 161.489 317.401L189.714 328.899C194.175 330.716 199.264 328.573 201.081 324.112L201.963 321.948Z" fill="#444956"/>
<g clip-path="url(#clip2_9587_21207)">
<path d="M183.372 304.326L182.171 303.139C181.886 302.858 181.824 302.422 182.019 302.073L186.169 294.625C184.637 292.912 184.683 290.268 186.319 288.607C187.068 287.847 188.049 287.396 189.083 287.31C189.049 286.129 189.493 284.968 190.348 284.099C191.173 283.262 192.274 282.796 193.449 282.788C194.318 282.782 195.151 283.027 195.864 283.491C195.988 283.355 196.121 283.226 196.261 283.104C197.177 282.308 198.355 281.885 199.578 281.915C200.8 281.944 201.955 282.423 202.832 283.262C203.783 284.174 204.317 285.401 204.336 286.719C204.355 288.039 203.856 289.283 202.93 290.224C202.889 290.265 202.847 290.306 202.805 290.346C203.936 292.043 203.763 294.365 202.275 295.875C201.42 296.743 200.266 297.204 199.086 297.187C199.015 298.222 198.579 299.211 197.83 299.971C197.005 300.809 195.904 301.274 194.73 301.282C193.65 301.29 192.627 300.909 191.82 300.206L184.442 304.463L183.372 304.326Z" fill="#244E3B"/>
<path d="M181.483 303.258L179.18 295.056C178.111 294.996 177.114 294.554 176.346 293.794C175.512 292.967 175.05 291.865 175.045 290.689C175.04 289.622 175.419 288.61 176.092 287.82C175.236 287.007 174.732 285.872 174.727 284.653C174.718 282.533 176.216 280.751 178.212 280.328C178.209 280.27 178.208 280.211 178.208 280.153C178.202 278.833 178.715 277.594 179.651 276.663C180.585 275.734 181.825 275.229 183.142 275.242C184.355 275.253 185.516 275.718 186.411 276.551C187.307 277.384 187.854 278.51 187.953 279.72C187.968 279.905 187.972 280.09 187.967 280.274C188.8 280.44 189.568 280.847 190.186 281.459C191.02 282.285 191.482 283.388 191.487 284.563C191.492 285.782 190.998 286.923 190.149 287.744C190.828 288.528 191.215 289.536 191.22 290.603C191.229 292.934 189.415 294.858 187.122 295.013L184.887 303.241C184.782 303.627 184.433 303.895 184.033 303.898L182.344 303.907L181.483 303.258Z" fill="#347357"/>
<path d="M198.745 288.568C199.591 286.491 198.813 284.149 197.006 282.965C197.038 282.895 197.069 282.824 197.098 282.753C197.622 281.466 197.608 280.056 197.06 278.781C196.65 277.827 195.978 277.039 195.123 276.492L193.764 277.127L193.431 275.794C192.464 275.586 191.45 275.664 190.507 276.027C189.307 276.489 188.331 277.373 187.76 278.515C187.665 278.704 187.582 278.899 187.511 279.097C185.391 278.682 183.198 279.813 182.352 281.89C181.862 283.093 181.904 284.419 182.431 285.563C181.439 286.058 180.647 286.899 180.218 287.954C179.288 290.235 180.318 292.835 182.517 293.872L181.451 302.911C181.404 303.309 181.628 303.689 181.998 303.839L182.006 303.842L183.277 303.08L183.653 304.514L183.661 304.517C184.031 304.668 184.457 304.552 184.701 304.235L190.255 297.023C192.552 297.818 195.105 296.678 196.034 294.397C196.464 293.342 196.486 292.188 196.122 291.14C197.299 290.69 198.255 289.771 198.745 288.568Z" fill="#78A28F"/>
<path d="M198.745 288.568C199.591 286.491 198.812 284.149 197.006 282.965C197.038 282.895 197.069 282.824 197.098 282.753C197.622 281.466 197.608 280.056 197.06 278.781C196.65 277.827 195.978 277.039 195.123 276.492L193.869 277.078L183.277 303.08L183.277 303.08L183.653 304.514L183.66 304.517C184.031 304.668 184.457 304.553 184.701 304.236L190.255 297.024C192.552 297.818 195.105 296.678 196.034 294.397C196.464 293.342 196.486 292.188 196.122 291.14C197.298 290.69 198.255 289.771 198.745 288.568Z" fill="#347357"/>
<path d="M191.542 290.263C191.351 289.811 190.829 289.599 190.377 289.79L189.502 290.159L190.791 286.995L193.308 285.932C193.76 285.741 193.972 285.219 193.781 284.767C193.59 284.314 193.068 284.102 192.616 284.293L191.741 284.663L195.08 276.465C194.808 276.295 194.518 276.148 194.212 276.028C193.957 275.929 193.696 275.852 193.432 275.796L190.093 283.991L189.726 283.116C189.535 282.663 189.014 282.45 188.561 282.64C188.108 282.831 187.895 283.352 188.085 283.805L189.143 286.324L187.854 289.488L187.487 288.613C187.296 288.16 186.775 287.947 186.322 288.137C185.869 288.327 185.656 288.849 185.846 289.302L186.904 291.82L182.007 303.843L183.655 304.514L188.552 292.492L191.069 291.429C191.521 291.238 191.733 290.716 191.542 290.263Z" fill="#347357"/>
<path d="M193.304 285.932C193.757 285.741 193.969 285.219 193.777 284.766C193.586 284.314 193.065 284.102 192.612 284.293L191.737 284.662L195.076 276.465C194.826 276.308 194.56 276.172 194.281 276.059L182.827 304.178L183.651 304.513L188.548 292.491L191.065 291.429C191.518 291.237 191.729 290.716 191.538 290.263C191.347 289.81 190.826 289.598 190.373 289.79L189.498 290.159L190.787 286.995L193.304 285.932Z" fill="#244E3B"/>
</g>
<rect width="28.5679" height="13.8232" rx="6.91159" transform="matrix(-0.92611 -0.377255 -0.377255 0.92611 182.457 294.101)" fill="#BBD0C7"/>
<path d="M28.6027 264.152C28.6027 252.715 33.1462 241.746 41.2337 233.658C49.3212 225.571 60.2902 221.027 71.7277 221.027C83.1651 221.027 94.1341 225.571 102.222 233.658C110.309 241.746 114.853 252.715 114.853 264.152C114.853 275.59 110.309 286.559 102.222 294.646C94.1341 302.734 83.1651 307.277 71.7277 307.277C60.2902 307.277 49.3212 302.734 41.2337 294.646C33.1462 286.559 28.6027 275.59 28.6027 264.152ZM70.2127 318.61C70.5355 318.561 70.8612 318.534 71.1877 318.527H72.2676C72.5976 318.527 72.9226 318.555 73.2426 318.61L127.955 328.232L128.24 328.292C138.32 330.617 149.15 337.015 151.258 349.442L151.288 349.66L152.143 356.237V356.252C154.123 371.32 142.175 382.277 128.068 382.277C127.756 382.272 127.446 382.247 127.138 382.202H15.3877C1.28016 382.202 -10.6748 371.237 -8.68733 356.162L-7.83233 349.645L-7.79483 349.42C-5.69483 337.217 5.22516 330.46 15.2827 328.277L15.5002 328.232L70.2127 318.61Z" fill="#BBD0C7"/>
<path d="M81.7119 261.096C81.7119 284.927 97.1228 305.479 71.2324 307.329C47.401 307.329 26.2324 287.393 26.2324 263.562C26.2324 239.73 47.401 220.411 71.2324 220.411C95.0639 220.411 134.109 237.055 81.7119 261.096Z" fill="#EAF6F1"/>
<path d="M96.5064 323.356H47.1914C37.1229 325 19.0818 327.301 15.1366 328.287C10.2051 329.52 -7.67177 333.835 -8.90465 356.027C-9.89095 373.781 3.83508 381.096 10.8214 382.534C46.9858 382.74 121.287 383.027 129.178 382.534C139.041 381.918 156.301 373.287 151.986 352.329C148.534 335.561 134.52 329.315 127.945 328.287L96.5064 323.356Z" fill="#78A28F" stroke="#78A28F" stroke-width="1.74437"/>
<g clip-path="url(#clip3_9587_21207)">
<path d="M236.289 293.325C249.521 288.485 256.325 273.835 251.485 260.602C246.645 247.37 231.995 240.567 218.763 245.407M236.289 293.325C223.057 298.165 208.407 291.361 203.567 278.129C198.727 264.897 205.53 250.246 218.763 245.407M236.289 293.325L218.763 245.407" stroke="#F26950" stroke-width="5.23311" stroke-linecap="round" stroke-linejoin="round"/>
</g>
<rect x="359" y="262" width="67" height="21" rx="4" fill="#347357"/>
<path d="M374.418 276.5V269.227H375.515V272.7H375.604L378.655 269.227H380.036L377.103 272.501L380.047 276.5H378.726L376.375 273.251L375.515 274.238V276.5H374.418ZM382.924 276.61C382.387 276.61 381.924 276.495 381.536 276.266C381.15 276.034 380.851 275.708 380.641 275.289C380.432 274.868 380.328 274.374 380.328 273.808C380.328 273.25 380.432 272.757 380.641 272.331C380.851 271.905 381.145 271.572 381.521 271.333C381.9 271.094 382.343 270.974 382.849 270.974C383.157 270.974 383.455 271.025 383.744 271.127C384.033 271.229 384.292 271.389 384.522 271.607C384.752 271.824 384.933 272.107 385.065 272.455C385.198 272.801 385.264 273.221 385.264 273.716V274.092H380.928V273.297H384.224C384.224 273.018 384.167 272.77 384.053 272.555C383.94 272.337 383.78 272.165 383.574 272.04C383.37 271.914 383.131 271.852 382.857 271.852C382.558 271.852 382.298 271.925 382.075 272.072C381.855 272.216 381.685 272.406 381.564 272.64C381.446 272.872 381.386 273.124 381.386 273.396V274.018C381.386 274.382 381.45 274.692 381.578 274.948C381.708 275.204 381.889 275.399 382.121 275.534C382.353 275.667 382.625 275.733 382.935 275.733C383.136 275.733 383.319 275.705 383.485 275.648C383.651 275.589 383.794 275.501 383.915 275.385C384.036 275.269 384.128 275.126 384.192 274.955L385.197 275.136C385.116 275.432 384.972 275.692 384.763 275.914C384.558 276.134 384.298 276.306 383.986 276.429C383.676 276.55 383.322 276.61 382.924 276.61ZM386.442 276.5V271.045H387.461V271.933H387.529C387.643 271.633 387.828 271.398 388.086 271.23C388.345 271.06 388.653 270.974 389.013 270.974C389.378 270.974 389.683 271.06 389.93 271.23C390.178 271.401 390.362 271.635 390.48 271.933H390.537C390.667 271.642 390.874 271.41 391.158 271.237C391.442 271.062 391.781 270.974 392.174 270.974C392.669 270.974 393.072 271.129 393.385 271.44C393.7 271.75 393.857 272.217 393.857 272.842V276.5H392.795V272.942C392.795 272.572 392.695 272.305 392.493 272.139C392.292 271.973 392.052 271.891 391.773 271.891C391.427 271.891 391.158 271.997 390.966 272.21C390.775 272.421 390.679 272.692 390.679 273.023V276.5H389.621V272.874C389.621 272.578 389.528 272.34 389.344 272.161C389.159 271.981 388.919 271.891 388.623 271.891C388.421 271.891 388.236 271.944 388.065 272.05C387.897 272.155 387.761 272.3 387.657 272.487C387.555 272.674 387.504 272.891 387.504 273.137V276.5H386.442ZM395.365 276.5V269.227H396.427V271.93H396.491C396.553 271.816 396.641 271.685 396.757 271.536C396.873 271.386 397.034 271.256 397.24 271.145C397.446 271.031 397.719 270.974 398.057 270.974C398.498 270.974 398.891 271.086 399.236 271.308C399.582 271.531 399.853 271.852 400.049 272.271C400.248 272.69 400.348 273.194 400.348 273.783C400.348 274.373 400.249 274.878 400.053 275.3C399.856 275.719 399.587 276.042 399.243 276.269C398.9 276.494 398.508 276.607 398.068 276.607C397.736 276.607 397.465 276.551 397.255 276.44C397.046 276.328 396.883 276.198 396.765 276.049C396.646 275.9 396.555 275.767 396.491 275.651H396.402V276.5H395.365ZM396.406 273.773C396.406 274.156 396.462 274.492 396.573 274.781C396.684 275.07 396.845 275.296 397.056 275.46C397.266 275.621 397.525 275.701 397.83 275.701C398.147 275.701 398.412 275.617 398.625 275.449C398.838 275.278 398.999 275.048 399.108 274.756C399.22 274.465 399.275 274.137 399.275 273.773C399.275 273.413 399.221 273.09 399.112 272.803C399.005 272.517 398.844 272.291 398.629 272.125C398.416 271.959 398.15 271.876 397.83 271.876C397.522 271.876 397.262 271.956 397.049 272.114C396.838 272.273 396.678 272.494 396.569 272.778C396.46 273.062 396.406 273.394 396.406 273.773ZM403.127 276.621C402.782 276.621 402.469 276.557 402.19 276.429C401.91 276.299 401.689 276.111 401.526 275.864C401.365 275.618 401.284 275.316 401.284 274.959C401.284 274.651 401.343 274.398 401.462 274.199C401.58 274 401.74 273.843 401.941 273.727C402.142 273.611 402.367 273.523 402.616 273.464C402.865 273.405 403.118 273.36 403.376 273.329C403.703 273.291 403.968 273.26 404.171 273.237C404.375 273.21 404.523 273.169 404.615 273.112C404.708 273.055 404.754 272.963 404.754 272.835V272.81C404.754 272.5 404.666 272.26 404.491 272.089C404.318 271.919 404.06 271.834 403.717 271.834C403.359 271.834 403.078 271.913 402.872 272.072C402.668 272.228 402.527 272.402 402.449 272.594L401.451 272.366C401.57 272.035 401.742 271.768 401.97 271.564C402.199 271.358 402.463 271.209 402.762 271.116C403.06 271.022 403.374 270.974 403.703 270.974C403.92 270.974 404.151 271 404.395 271.053C404.641 271.102 404.871 271.195 405.084 271.33C405.299 271.464 405.476 271.657 405.613 271.908C405.75 272.157 405.819 272.48 405.819 272.878V276.5H404.782V275.754H404.74C404.671 275.892 404.568 276.027 404.431 276.159C404.293 276.292 404.117 276.402 403.901 276.489C403.686 276.577 403.428 276.621 403.127 276.621ZM403.358 275.768C403.652 275.768 403.903 275.71 404.111 275.594C404.322 275.478 404.481 275.327 404.59 275.14C404.702 274.951 404.757 274.748 404.757 274.533V273.83C404.719 273.867 404.646 273.903 404.537 273.936C404.431 273.967 404.309 273.994 404.171 274.018C404.034 274.039 403.9 274.059 403.77 274.078C403.64 274.095 403.531 274.109 403.443 274.121C403.237 274.147 403.049 274.191 402.879 274.252C402.711 274.314 402.576 274.402 402.474 274.518C402.374 274.632 402.325 274.784 402.325 274.973C402.325 275.236 402.422 275.435 402.616 275.57C402.81 275.702 403.057 275.768 403.358 275.768ZM408.295 269.227V276.5H407.233V269.227H408.295ZM409.724 276.5V271.045H410.785V276.5H409.724ZM410.26 270.204C410.075 270.204 409.916 270.142 409.784 270.019C409.654 269.894 409.589 269.745 409.589 269.572C409.589 269.397 409.654 269.247 409.784 269.124C409.916 268.999 410.075 268.936 410.26 268.936C410.444 268.936 410.602 268.999 410.732 269.124C410.865 269.247 410.931 269.397 410.931 269.572C410.931 269.745 410.865 269.894 410.732 270.019C410.602 270.142 410.444 270.204 410.26 270.204Z" fill="white"/>
</g>
</g>
<defs>
<filter id="filter0_ddd_9587_21207" x="-158" y="-172" width="424" height="424" filterUnits="userSpaceOnUse" color-interpolation-filters="sRGB">
<feFlood flood-opacity="0" result="BackgroundImageFix"/>
<feColorMatrix in="SourceAlpha" type="matrix" values="0 0 0 0 0 0 0 0 0 0 0 0 0 0 0 0 0 0 127 0" result="hardAlpha"/>
<feOffset/>
<feGaussianBlur stdDeviation="20"/>
<feColorMatrix type="matrix" values="0 0 0 0 1 0 0 0 0 1 0 0 0 0 1 0 0 0 0.8 0"/>
<feBlend mode="normal" in2="BackgroundImageFix" result="effect1_dropShadow_9587_21207"/>
<feColorMatrix in="SourceAlpha" type="matrix" values="0 0 0 0 0 0 0 0 0 0 0 0 0 0 0 0 0 0 127 0" result="hardAlpha"/>
<feOffset/>
<feGaussianBlur stdDeviation="40"/>
<feColorMatrix type="matrix" values="0 0 0 0 1 0 0 0 0 1 0 0 0 0 1 0 0 0 0.6 0"/>
<feBlend mode="normal" in2="effect1_dropShadow_9587_21207" result="effect2_dropShadow_9587_21207"/>
<feColorMatrix in="SourceAlpha" type="matrix" values="0 0 0 0 0 0 0 0 0 0 0 0 0 0 0 0 0 0 127 0" result="hardAlpha"/>
<feOffset/>
<feGaussianBlur stdDeviation="60"/>
<feColorMatrix type="matrix" values="0 0 0 0 1 0 0 0 0 1 0 0 0 0 1 0 0 0 0.24 0"/>
<feBlend mode="normal" in2="effect2_dropShadow_9587_21207" result="effect3_dropShadow_9587_21207"/>
<feBlend mode="normal" in="SourceGraphic" in2="effect3_dropShadow_9587_21207" result="shape"/>
</filter>
<linearGradient id="paint0_linear_9587_21207" x1="260.5" y1="0" x2="260.5" y2="370" gradientUnits="userSpaceOnUse">
<stop offset="0.206731" stop-color="#EEF8F4"/>
<stop offset="0.807692" stop-color="white"/>
</linearGradient>
<clipPath id="clip0_9587_21207">
<rect width="521" height="370" fill="white"/>
</clipPath>
<clipPath id="clip1_9587_21207">
<rect width="521" height="370" fill="white"/>
</clipPath>
<clipPath id="clip2_9587_21207">
<rect width="30.411" height="30.411" fill="white" transform="translate(180.215 270.3) rotate(22.1637)"/>
</clipPath>
<clipPath id="clip3_9587_21207">
<rect width="68.0304" height="68.0304" fill="white" transform="translate(211 224.188) rotate(24.9095)"/>
</clipPath>
</defs>
</svg>
