<svg width="360" height="145" viewBox="0 0 360 145" fill="none" xmlns="http://www.w3.org/2000/svg">
<g clip-path="url(#clip0_6814_14186)">
<path d="M0 0H360V129C360 137.837 352.837 145 344 145H16C7.16344 145 0 137.837 0 129V0Z" fill="url(#paint0_radial_6814_14186)"/>
<mask id="mask0_6814_14186" style="mask-type:alpha" maskUnits="userSpaceOnUse" x="101" y="99" width="207" height="18">
<path d="M155 102.282L101 116.898L308 116.898C217.981 92.0503 175.5 99.3979 155 102.282Z" fill="#6A6A6A"/>
</mask>
<g mask="url(#mask0_6814_14186)">
<path d="M155 102.282L101 116.898L308 116.898C217.981 92.0503 175.5 99.3979 155 102.282Z" fill="#347357"/>
<rect x="141.349" y="95" width="3.91025" height="34" transform="rotate(36.7611 141.349 95)" fill="#99B9AB"/>
<rect x="149.829" y="93" width="3.91025" height="34" transform="rotate(36.7611 149.829 93)" fill="#99B9AB"/>
<rect x="158.311" y="92" width="3.91025" height="34" transform="rotate(36.7611 158.311 92)" fill="#99B9AB"/>
<rect x="166.791" y="92" width="3.91025" height="34" transform="rotate(36.7611 166.791 92)" fill="#99B9AB"/>
<rect x="175.272" y="92" width="3.91025" height="34" transform="rotate(36.7611 175.272 92)" fill="#99B9AB"/>
<rect x="182.349" y="93" width="3.91025" height="34" transform="rotate(36.7611 182.349 93)" fill="#99B9AB"/>
<rect x="191.349" y="92" width="3.91025" height="34" transform="rotate(36.7611 191.349 92)" fill="#99B9AB"/>
<rect x="200.349" y="91" width="3.91025" height="34" transform="rotate(36.7611 200.349 91)" fill="#99B9AB"/>
<rect x="209.196" y="91" width="3.91025" height="34" transform="rotate(36.7611 209.196 91)" fill="#99B9AB"/>
<rect x="217.677" y="92" width="3.91025" height="34" transform="rotate(36.7611 217.677 92)" fill="#99B9AB"/>
<rect x="226.158" y="92" width="3.91025" height="34" transform="rotate(36.7611 226.158 92)" fill="#99B9AB"/>
<rect x="234.639" y="93" width="3.91025" height="34" transform="rotate(36.7611 234.639 93)" fill="#99B9AB"/>
<rect x="243.12" y="95" width="3.91025" height="34" transform="rotate(36.7611 243.12 95)" fill="#99B9AB"/>
<rect x="251.601" y="94" width="3.91025" height="34" transform="rotate(36.7611 251.601 94)" fill="#99B9AB"/>
<rect x="260.082" y="94" width="3.91025" height="34" transform="rotate(36.7611 260.082 94)" fill="#99B9AB"/>
<rect x="268.349" y="95" width="3.91025" height="34" transform="rotate(36.7611 268.349 95)" fill="#99B9AB"/>
<rect x="275.349" y="97" width="3.91025" height="34" transform="rotate(36.7611 275.349 97)" fill="#99B9AB"/>
</g>
<path fill-rule="evenodd" clip-rule="evenodd" d="M75.0054 161.996H7.17101C7.07467 161.999 6.97804 162 6.88113 162C6.78423 162 6.6876 161.999 6.59126 161.996H-98.1798C-79.0784 161.898 -39.0849 159.861 -11.1911 152.143C-10.192 150.813 -8.60123 149.952 -6.80948 149.952C-6.03046 149.952 -5.28942 150.115 -4.6185 150.408C-4.56922 144.099 0.560463 139 6.88113 139C10.2222 139 13.2306 140.425 15.3316 142.7C16.5316 141.117 18.4321 140.095 20.5713 140.095C20.6627 140.095 20.7537 140.097 20.8442 140.101C21.7679 135.541 24.9577 131.803 29.1873 130.114C31.7905 121.929 39.4527 116 48.4998 116C58.559 116 66.9061 123.33 68.4908 132.941C70.5505 131.912 72.8742 131.333 75.3332 131.333C83.4342 131.333 90.068 137.616 90.6282 145.574L90.6665 145.572L90.6665 146.666L90.6665 161.996H75.6609C75.5519 161.999 75.4427 162 75.3332 162C75.2236 162 75.1144 161.999 75.0054 161.996ZM-101 161.996H-98.1798C-99.1786 162.001 -100.12 162.001 -101 161.996Z" fill="white" fill-opacity="0.4"/>
<path fill-rule="evenodd" clip-rule="evenodd" d="M27.9611 54.9968H83.9619C84.0456 54.9989 84.1296 55 84.2138 55C84.2981 55 84.3821 54.9989 84.4658 54.9968H171.003C155.224 54.9158 122.186 53.2328 99.1431 46.8572C98.3177 45.7583 97.0037 45.0475 95.5236 45.0475C94.88 45.0475 94.2678 45.1819 93.7135 45.4241C93.6727 40.2124 89.4352 36 84.2138 36C81.4538 36 78.9686 37.1771 77.2329 39.0566C76.2417 37.7493 74.6717 36.9049 72.9046 36.9049C72.829 36.9049 72.7539 36.9064 72.6791 36.9095C71.9162 33.1424 69.281 30.0547 65.7868 28.6594C63.6364 21.8982 57.3067 17 49.8331 17C41.5232 17 34.6277 23.0556 33.3187 30.9947C31.6172 30.1449 29.6976 29.6668 27.6664 29.6668C20.9744 29.6668 15.4945 34.8563 15.0314 41.4305L14.9997 41.4284V54.9968H27.3717C27.4697 54.999 27.5679 55.0001 27.6664 55.0001C27.7649 55.0001 27.8631 54.999 27.9611 54.9968ZM173.333 54.9968H171.003C171.828 55.001 172.606 55.0008 173.333 54.9968Z" fill="white" fill-opacity="0.4"/>
<path fill-rule="evenodd" clip-rule="evenodd" d="M257.901 74.7579H222.882C222.829 74.7593 222.776 74.76 222.723 74.76C222.67 74.76 222.617 74.7593 222.564 74.7579H168.457C178.323 74.7073 198.981 73.655 213.388 69.6685C213.904 68.9815 214.726 68.5372 215.651 68.5372C216.054 68.5372 216.436 68.6212 216.783 68.7726C216.809 65.5139 219.458 62.88 222.723 62.88C224.449 62.88 226.003 63.616 227.088 64.7913C227.708 63.9738 228.689 63.4457 229.794 63.4457C229.841 63.4457 229.888 63.4467 229.935 63.4486C230.412 61.0932 232.06 59.1625 234.245 58.2902C235.589 54.0626 239.547 51 244.22 51C249.416 51 253.727 54.7863 254.546 59.7502C255.61 59.2189 256.81 58.9199 258.08 58.9199C262.264 58.9199 265.691 62.1648 265.98 66.2755L266 66.2742V66.8399V74.7579H258.259C258.199 74.7593 258.14 74.7599 258.08 74.7599C258.02 74.7599 257.961 74.7593 257.901 74.7579ZM167 74.7579H168.457C167.941 74.7606 167.454 74.7605 167 74.7579Z" fill="white" fill-opacity="0.4"/>
<mask id="path-24-inside-1_6814_14186" fill="white">
<path d="M0 116H360V128H0V116Z"/>
</mask>
<path d="M0 116H360V128H0V116Z" fill="#568A73"/>
<path d="M360 125H0V131H360V125Z" fill="#1A392B" mask="url(#path-24-inside-1_6814_14186)"/>
<path d="M360 101.384V116H256C317.189 91.1523 350.829 95.9026 360 101.384Z" fill="#78A28F"/>
<path d="M290.546 80.6875V115.832H250V80.6875L270.272 60.4141L290.546 80.6875Z" fill="#BBD0C7" fill-opacity="0.7" stroke="#2B6048" stroke-width="2"/>
<path d="M319.529 60L338.802 79.2725H316.812L297.539 60H319.529ZM294.711 60L313.982 79.2725H291.994L272.721 60H294.711Z" fill="#BBD0C7" fill-opacity="0.7"/>
<path d="M319.529 60L338.802 79.2725H316.812L297.539 60H319.529ZM294.711 60L313.982 79.2725H291.994L272.721 60H294.711Z" fill="white" fill-opacity="0.5"/>
<path d="M319.529 60L338.802 79.2725H316.812L297.539 60H319.529ZM294.711 60L313.982 79.2725H291.994L272.721 60H294.711Z" stroke="#2B6048" stroke-width="2"/>
<path d="M340.183 81.3064V115.832H292.612V81.3064H340.183Z" fill="#BBD0C7" fill-opacity="0.7"/>
<path d="M340.183 81.3064V115.832H292.612V81.3064H340.183Z" fill="white" fill-opacity="0.5"/>
<path d="M340.183 81.3064V115.832H292.612V81.3064H340.183Z" stroke="#2B6048" stroke-width="2"/>
<path d="M0 101.384V116H153C62.981 91.1523 13.4921 95.9026 0 101.384Z" fill="#347357"/>
<rect y="128" width="360" height="45" fill="#244E3B"/>
<path d="M141.27 124.733C144.32 117.245 140.723 108.702 133.235 105.652L125.529 102.513C121.949 101.055 117.864 102.775 116.406 106.355L113.652 113.115C110.531 120.777 114.212 129.519 121.874 132.64L122.189 132.768C129.677 135.818 138.22 132.221 141.27 124.733Z" fill="#BBD0C7"/>
<rect width="35.4078" height="51.7499" rx="10" transform="matrix(-0.92611 -0.377255 -0.377255 0.92611 169.446 88.0522)" fill="#E4EDE9"/>
<path d="M167.56 92.6828C168.602 90.1254 167.373 87.2077 164.816 86.166L141.285 76.5808C138.728 75.539 135.81 76.7677 134.769 79.325L133.572 82.2618L166.364 95.6195L167.56 92.6828Z" fill="#444956"/>
<path d="M153.006 128.411L120.214 115.053L119.018 117.99C117.976 120.547 119.205 123.465 121.762 124.507L145.293 134.092C147.85 135.134 150.768 133.905 151.81 131.348L153.006 128.411Z" fill="#444956"/>
<g clip-path="url(#clip1_6814_14186)">
<path d="M139.268 115.39L138.381 114.513C138.17 114.306 138.125 113.984 138.268 113.726L141.335 108.222C140.203 106.956 140.237 105.003 141.446 103.776C141.999 103.214 142.724 102.881 143.488 102.818C143.463 101.945 143.791 101.087 144.423 100.445C145.033 99.8262 145.846 99.4821 146.714 99.4761C147.356 99.4716 147.972 99.653 148.498 99.9956C148.59 99.8953 148.688 99.7999 148.792 99.7099C149.469 99.1212 150.339 98.809 151.242 98.8308C152.145 98.8527 152.999 99.2063 153.647 99.8267C154.349 100.5 154.744 101.407 154.758 102.38C154.773 103.356 154.403 104.275 153.719 104.97C153.689 105.001 153.658 105.031 153.627 105.061C154.463 106.315 154.335 108.03 153.236 109.146C152.604 109.788 151.751 110.128 150.879 110.115C150.827 110.88 150.504 111.611 149.951 112.172C149.341 112.791 148.528 113.135 147.66 113.141C146.862 113.147 146.107 112.866 145.511 112.346L140.059 115.492L139.268 115.39Z" fill="#244E3B"/>
<path d="M137.872 114.601L136.171 108.541C135.381 108.497 134.644 108.17 134.077 107.608C133.461 106.998 133.119 106.183 133.115 105.315C133.112 104.526 133.392 103.778 133.889 103.194C133.256 102.594 132.884 101.755 132.881 100.854C132.874 99.2882 133.981 97.9715 135.455 97.6587C135.454 97.6157 135.453 97.5726 135.453 97.5295C135.448 96.5542 135.827 95.6384 136.519 94.9506C137.209 94.264 138.125 93.8911 139.098 93.9005C139.995 93.9092 140.853 94.2528 141.514 94.8681C142.176 95.4837 142.58 96.3152 142.653 97.2094C142.664 97.3462 142.668 97.4827 142.663 97.6189C143.279 97.7418 143.846 98.0419 144.303 98.4941C144.919 99.1047 145.261 99.9194 145.265 100.788C145.268 101.689 144.903 102.532 144.275 103.139C144.778 103.718 145.064 104.462 145.067 105.251C145.074 106.973 143.733 108.394 142.039 108.509L140.387 114.589C140.31 114.874 140.052 115.072 139.757 115.074L138.509 115.081L137.872 114.601Z" fill="#347357"/>
<path d="M150.628 103.747C151.253 102.212 150.678 100.482 149.343 99.6067C149.367 99.5551 149.389 99.5029 149.411 99.4502C149.798 98.4997 149.788 97.4574 149.383 96.5152C149.08 95.8103 148.583 95.2281 147.952 94.8241L146.947 95.2931L146.701 94.3084C145.987 94.1548 145.237 94.2121 144.541 94.4805C143.654 94.8222 142.933 95.4751 142.511 96.3188C142.441 96.4589 142.379 96.6025 142.327 96.7489C140.761 96.4425 139.14 97.2781 138.515 98.813C138.153 99.7019 138.184 100.681 138.573 101.527C137.84 101.892 137.256 102.514 136.938 103.293C136.251 104.979 137.013 106.9 138.637 107.666L137.849 114.345C137.814 114.639 137.98 114.919 138.254 115.031L138.259 115.033L139.199 114.469L139.477 115.529L139.482 115.531C139.756 115.643 140.07 115.558 140.251 115.323L144.354 109.995C146.052 110.582 147.938 109.74 148.625 108.054C148.943 107.274 148.959 106.421 148.69 105.648C149.559 105.315 150.266 104.636 150.628 103.747Z" fill="#78A28F"/>
<path d="M150.628 103.747C151.254 102.212 150.678 100.482 149.343 99.6067C149.367 99.555 149.39 99.5028 149.411 99.4501C149.798 98.4996 149.789 97.4573 149.383 96.5152C149.08 95.8103 148.584 95.2281 147.952 94.824L147.025 95.2567L139.199 114.469L139.199 114.469L139.477 115.529L139.483 115.531C139.756 115.643 140.071 115.558 140.251 115.323L144.355 109.995C146.052 110.582 147.939 109.74 148.626 108.054C148.943 107.274 148.959 106.421 148.69 105.648C149.56 105.315 150.266 104.636 150.628 103.747Z" fill="#347357"/>
<path d="M145.305 105C145.164 104.665 144.778 104.508 144.444 104.65L143.797 104.923L144.75 102.585L146.609 101.799C146.944 101.658 147.101 101.273 146.959 100.938C146.818 100.604 146.433 100.447 146.098 100.588L145.452 100.861L147.919 94.8042C147.718 94.6784 147.504 94.5698 147.278 94.4815C147.089 94.4081 146.896 94.3514 146.701 94.3094L144.234 100.365L143.963 99.7184C143.822 99.3837 143.437 99.2263 143.102 99.3669C142.767 99.5075 142.61 99.8928 142.751 100.227L143.532 102.089L142.58 104.427L142.308 103.78C142.168 103.445 141.782 103.288 141.448 103.428C141.113 103.569 140.956 103.954 141.096 104.289L141.878 106.15L138.259 115.033L139.477 115.529L143.095 106.646L144.955 105.861C145.289 105.72 145.446 105.334 145.305 105Z" fill="#347357"/>
<path d="M146.61 101.799C146.944 101.658 147.101 101.273 146.96 100.938C146.819 100.604 146.433 100.447 146.099 100.588L145.452 100.861L147.92 94.8043C147.735 94.6886 147.538 94.5883 147.332 94.5042L138.868 115.281L139.477 115.529L143.096 106.646L144.956 105.861C145.29 105.72 145.447 105.334 145.305 105C145.164 104.665 144.779 104.509 144.444 104.65L143.798 104.923L144.75 102.585L146.61 101.799Z" fill="#244E3B"/>
</g>
<rect width="21.1085" height="10.2138" rx="5.10689" transform="matrix(-0.92611 -0.377255 -0.377255 0.92611 138.595 107.836)" fill="#BBD0C7"/>
<g filter="url(#filter0_ddd_6814_14186)">
<circle cx="346.5" cy="11.5" r="24.5" fill="white"/>
</g>
<path d="M287.417 48.7084C287.092 48.7084 286.767 48.6001 286.55 48.2751C286.117 47.8418 286.225 47.0834 286.659 46.7584C291.534 42.7501 298.467 42.7501 303.342 46.7584C303.775 47.1918 303.884 47.8418 303.45 48.2751C303.017 48.7084 302.367 48.8168 301.934 48.3834C297.925 45.0251 292.075 45.0251 288.067 48.3834C287.959 48.7084 287.634 48.7084 287.417 48.7084Z" fill="#347357"/>
<path d="M306.483 44.9167C306.267 44.9167 305.942 44.8084 305.725 44.5917C299.55 39.175 290.342 39.175 284.275 44.5917C283.842 45.025 283.192 44.9167 282.758 44.4834C282.325 44.05 282.433 43.4 282.867 42.9667C289.8 36.7917 300.308 36.7917 307.242 42.9667C307.675 43.4 307.783 44.05 307.35 44.4834C307.025 44.8084 306.808 44.9167 306.483 44.9167Z" fill="#347357"/>
<path d="M298.791 52.6084C298.575 52.6084 298.358 52.5 298.141 52.3917C296.3 51.0917 293.7 51.0917 291.858 52.3917C291.316 52.7167 290.666 52.6084 290.341 52.175C290.016 51.6334 290.125 50.9833 290.558 50.6583C293.158 48.8167 296.733 48.8167 299.333 50.6583C299.875 50.9833 299.983 51.6334 299.55 52.175C299.441 52.5 299.116 52.6084 298.791 52.6084Z" fill="#347357"/>
<g clip-path="url(#clip2_6814_14186)">
<path d="M131.982 72.5603C131.766 72.6098 131.534 72.5874 131.341 72.4047C130.987 72.1832 130.944 71.6634 131.182 71.3817C133.806 67.9789 138.408 66.9228 142.254 68.8404C142.607 69.0619 142.778 69.4768 142.557 69.8304C142.335 70.184 141.92 70.3549 141.567 70.1333C138.395 68.5151 134.512 69.4062 132.364 72.2456C132.341 72.4778 132.126 72.5273 131.982 72.5603Z" fill="#347357"/>
<path d="M144.058 67.1395C143.914 67.1725 143.682 67.1501 143.505 67.0393C138.582 64.3851 132.471 65.7878 129.27 70.3067C129.048 70.6603 128.6 70.6874 128.247 70.4659C127.893 70.2443 127.866 69.7964 128.087 69.4428C131.748 64.2885 138.722 62.6878 144.264 65.7298C144.618 65.9514 144.789 66.3663 144.567 66.7199C144.401 66.9851 144.274 67.09 144.058 67.1395Z" fill="#347357"/>
<path d="M140.125 73.4159C139.981 73.4489 139.82 73.41 139.66 73.3711C138.24 72.7889 136.514 73.1849 135.49 74.3282C135.18 74.6264 134.732 74.6535 134.451 74.4154C134.152 74.1055 134.125 73.6576 134.363 73.3759C135.808 71.7576 138.181 71.213 140.187 72.0392C140.596 72.1724 140.767 72.5873 140.562 73.0128C140.539 73.245 140.34 73.3664 140.125 73.4159Z" fill="#347357"/>
</g>
<path d="M24.9117 85.7071C24.9117 77.2561 28.2689 69.1512 34.2446 63.1754C40.2204 57.1997 48.3253 53.8425 56.7763 53.8425C65.2273 53.8425 73.3322 57.1997 79.308 63.1754C85.2837 69.1512 88.6409 77.2561 88.6409 85.7071C88.6409 94.1581 85.2837 102.263 79.308 108.239C73.3322 114.215 65.2273 117.572 56.7763 117.572C48.3253 117.572 40.2204 114.215 34.2446 108.239C28.2689 102.263 24.9117 94.1581 24.9117 85.7071ZM55.6569 125.945C55.8954 125.909 56.1361 125.889 56.3773 125.884H57.1753C57.4191 125.884 57.6593 125.905 57.8957 125.945L98.3222 133.055L98.5328 133.099C105.981 134.817 113.983 139.544 115.54 148.727L115.562 148.888L116.194 153.748V153.759C117.657 164.892 108.829 172.988 98.4053 172.988C98.1753 172.984 97.9458 172.966 97.7181 172.933H15.1473C4.72343 172.933 -4.10999 164.831 -2.64145 153.692L-2.0097 148.877L-1.98199 148.71C-0.430322 139.694 7.63834 134.701 15.0697 133.088L15.2304 133.055L55.6569 125.945Z" fill="#BBD0C7"/>
<path d="M64.1543 83.4486C64.1543 101.057 75.5413 116.243 56.4111 117.61C38.8023 117.61 23.1611 102.879 23.1611 85.2705C23.1611 67.6617 38.8023 53.387 56.4111 53.387C74.0199 53.387 102.87 65.6849 64.1543 83.4486Z" fill="#EAF6F1"/>
<path d="M75.0855 129.452H38.6471C31.2077 130.667 17.8773 132.367 14.9622 133.096C11.3184 134.007 -1.89065 137.195 -2.80161 153.593C-3.53037 166.71 6.61164 172.115 11.7737 173.178C38.4952 173.33 93.3957 173.543 99.2258 173.178C106.513 172.723 119.267 166.346 116.079 150.86C113.528 138.471 103.173 133.855 98.3148 133.096L75.0855 129.452Z" fill="#78A28F" stroke="#78A28F"/>
</g>
<defs>
<filter id="filter0_ddd_6814_14186" x="202" y="-133" width="289" height="289" filterUnits="userSpaceOnUse" color-interpolation-filters="sRGB">
<feFlood flood-opacity="0" result="BackgroundImageFix"/>
<feColorMatrix in="SourceAlpha" type="matrix" values="0 0 0 0 0 0 0 0 0 0 0 0 0 0 0 0 0 0 127 0" result="hardAlpha"/>
<feOffset/>
<feGaussianBlur stdDeviation="20"/>
<feColorMatrix type="matrix" values="0 0 0 0 1 0 0 0 0 1 0 0 0 0 1 0 0 0 0.8 0"/>
<feBlend mode="normal" in2="BackgroundImageFix" result="effect1_dropShadow_6814_14186"/>
<feColorMatrix in="SourceAlpha" type="matrix" values="0 0 0 0 0 0 0 0 0 0 0 0 0 0 0 0 0 0 127 0" result="hardAlpha"/>
<feOffset/>
<feGaussianBlur stdDeviation="40"/>
<feColorMatrix type="matrix" values="0 0 0 0 1 0 0 0 0 1 0 0 0 0 1 0 0 0 0.6 0"/>
<feBlend mode="normal" in2="effect1_dropShadow_6814_14186" result="effect2_dropShadow_6814_14186"/>
<feColorMatrix in="SourceAlpha" type="matrix" values="0 0 0 0 0 0 0 0 0 0 0 0 0 0 0 0 0 0 127 0" result="hardAlpha"/>
<feOffset/>
<feGaussianBlur stdDeviation="60"/>
<feColorMatrix type="matrix" values="0 0 0 0 1 0 0 0 0 1 0 0 0 0 1 0 0 0 0.24 0"/>
<feBlend mode="normal" in2="effect2_dropShadow_6814_14186" result="effect3_dropShadow_6814_14186"/>
<feBlend mode="normal" in="SourceGraphic" in2="effect3_dropShadow_6814_14186" result="shape"/>
</filter>
<radialGradient id="paint0_radial_6814_14186" cx="0" cy="0" r="1" gradientTransform="matrix(225.5 -37.1451 92.2222 448.525 59 88.6111)" gradientUnits="userSpaceOnUse">
<stop stop-color="#C3E8D8"/>
<stop offset="1" stop-color="#E2F3EC"/>
</radialGradient>
<clipPath id="clip0_6814_14186">
<path d="M0 0H360V129C360 137.837 352.837 145 344 145H16C7.16344 145 0 137.837 0 129V0Z" fill="white"/>
</clipPath>
<clipPath id="clip1_6814_14186">
<rect width="22.4703" height="22.4703" fill="white" transform="translate(136.936 90.2493) rotate(22.1637)"/>
</clipPath>
<clipPath id="clip2_6814_14186">
<rect width="17.7039" height="17.7039" fill="white" transform="translate(125.994 62.9604) rotate(-12.9269)"/>
</clipPath>
</defs>
</svg>
