<svg width="360" height="145" viewBox="0 0 360 145" fill="none" xmlns="http://www.w3.org/2000/svg">
<g clip-path="url(#clip0_6383_25112)">
<path d="M0 0H360V129C360 137.837 352.837 145 344 145H16C7.16344 145 0 137.837 0 129V0Z" fill="url(#paint0_radial_6383_25112)"/>
<path fill-rule="evenodd" clip-rule="evenodd" d="M63.2026 157.637H16.503C16.4346 157.639 16.366 157.64 16.2971 157.64C16.2283 157.64 16.1596 157.639 16.0912 157.637H-56.0577C-42.9027 157.57 -15.3593 156.167 3.8511 150.851C4.53916 149.935 5.63467 149.343 6.86859 149.343C7.40504 149.343 7.91534 149.455 8.37736 149.657C8.41135 145.312 11.9441 141.8 16.2971 141.8C18.5982 141.8 20.6701 142.781 22.1171 144.348C22.9435 143.258 24.2524 142.554 25.7258 142.554C25.7887 142.554 25.8513 142.556 25.9136 142.558C26.5498 139.418 28.7467 136.843 31.6597 135.68C33.4525 130.044 38.7294 125.96 44.9601 125.96C51.8879 125.96 57.6365 131.008 58.7278 137.627C60.1464 136.919 61.7467 136.52 63.4402 136.52C69.0193 136.52 73.5878 140.846 73.9738 146.327L74 146.326V147.015C74.0001 147.036 74.0002 147.058 74.0002 147.08C74.0002 147.102 74.0001 147.124 74 147.145V157.637H63.6778C63.5988 157.639 63.5196 157.64 63.4402 157.64C63.3608 157.64 63.2816 157.639 63.2026 157.637ZM-58 157.637H-56.0577C-56.7456 157.641 -57.3941 157.641 -58 157.637Z" fill="white" fill-opacity="0.4"/>
<g opacity="0.5">
<path d="M359.935 27H332.439V30.6098H359.935V27Z" fill="#9ED0BB"/>
<path d="M359.935 30.2489H329.907V35.6636H359.935V30.2489Z" fill="#9ED0BB"/>
<path d="M326.65 51.5469H359.935V57.3226H326.65L326.65 51.5469Z" fill="#9ED0BB"/>
<path d="M359.935 77.5377V71.762H326.65V77.5377H359.935Z" fill="#9ED0BB"/>
<path d="M359.935 99.1967V93.421H326.65V99.1967H359.935Z" fill="#9ED0BB"/>
<path d="M359.935 119.412V113.636H326.65V119.412H359.935Z" fill="#9ED0BB"/>
<path d="M331.715 51.5469H326.65V119.412H331.715V51.5469Z" fill="#9ED0BB"/>
<path d="M326.65 51.5469H331.715L337.504 35.6636H332.439L326.65 51.5469Z" fill="#9ED0BB"/>
<path d="M331.715 119.412H326.65L319.415 141.793H326.65L331.715 119.412Z" fill="#9ED0BB"/>
<path d="M331.715 52.9908L330.268 50.8249L359.211 34.2197L360.659 36.3856L331.715 52.9908Z" fill="#9ED0BB"/>
<path d="M309.509 77.0325L307.837 75.7328L307.844 75.0108L330.521 51.2355L332.525 52.9014L309.509 77.0325Z" fill="#9ED0BB"/>
<path d="M309.518 118.121L307.856 116.818L307.861 116.097L330.326 92.3844L332.319 94.0535L309.518 118.121Z" fill="#9ED0BB"/>
<path d="M333.163 74.6498L331.715 72.4839L360.659 55.8787L362.106 58.0446L333.163 74.6498Z" fill="#9ED0BB"/>
<path d="M333.163 95.5869L331.715 93.421L360.659 76.8157L362.106 78.9816L333.163 95.5869Z" fill="#9ED0BB"/>
<path d="M333.163 115.802L331.715 113.636L360.659 97.0308L362.106 99.1967L333.163 115.802Z" fill="#9ED0BB"/>
<path d="M327.374 141.793L325.927 139.627L359.935 118.69L361.382 120.856L327.374 141.793Z" fill="#9ED0BB"/>
<path d="M363.553 54.4347L365 52.2688L336.057 35.6636L334.61 37.8295L363.553 54.4347Z" fill="#9ED0BB"/>
<path d="M359.211 74.6498L360.659 72.4839L331.715 55.8787L330.268 58.0446L359.211 74.6498Z" fill="#9ED0BB"/>
<path d="M359.211 95.5869L360.659 93.421L331.715 76.8157L330.268 78.9816L359.211 95.5869Z" fill="#9ED0BB"/>
<path d="M359.211 115.802L360.659 113.636L331.715 97.0308L330.268 99.1967L359.211 115.802Z" fill="#9ED0BB"/>
<path d="M362.829 138.183L364.276 136.739L331.715 118.69L330.268 120.856L362.829 138.183Z" fill="#9ED0BB"/>
<path d="M308.199 74.6498H327.374V77.5377H307.837V75.0108L308.199 74.6498Z" fill="#9ED0BB"/>
<path d="M308.199 115.802H327.374V118.69H307.837V116.163L308.199 115.802Z" fill="#9ED0BB"/>
<path d="M307.837 77.5377H310.732V79.7036H307.837V77.5377Z" fill="#9ED0BB"/>
<path d="M307.837 118.69H310.732V120.856H307.837V118.69Z" fill="#9ED0BB"/>
<path d="M326.65 51.5469H359.935V57.3226H326.65L326.65 51.5469ZM326.65 51.5469H331.715M326.65 51.5469V119.412M326.65 51.5469L332.439 35.6636H337.504L331.715 51.5469M326.65 119.412H359.935V113.636H326.65V119.412ZM326.65 119.412H331.715M326.65 119.412L319.415 141.793H326.65L331.715 119.412M331.715 51.5469V119.412M307.837 77.5377H327.374V74.6498H308.199L307.837 75.0108V77.5377ZM307.837 77.5377H310.732V79.7036H307.837V77.5377ZM307.837 118.69H327.374V115.802H308.199L307.837 116.163V118.69ZM307.837 118.69H310.732V120.856H307.837V118.69ZM308.199 79.3426C291 90 148.5 136.739 -15 120.856M308.561 120.134C285.045 134.934 103.827 217.849 0.5 198.5M332.439 27H359.935V30.6098H332.439V27ZM329.907 30.2489H359.935V35.6636H329.907V30.2489ZM359.935 71.762V77.5377H326.65V71.762H359.935ZM359.935 93.421V99.1967H326.65V93.421H359.935ZM330.268 50.8249L331.715 52.9908L360.659 36.3856L359.211 34.2197L330.268 50.8249ZM307.837 75.7328L309.509 77.0325L332.525 52.9014L330.521 51.2355L307.844 75.0108L307.837 75.7328ZM307.856 116.818L309.518 118.121L332.319 94.0535L330.326 92.3844L307.861 116.097L307.856 116.818ZM331.715 72.4839L333.163 74.6498L362.106 58.0446L360.659 55.8787L331.715 72.4839ZM331.715 93.421L333.163 95.5869L362.106 78.9816L360.659 76.8157L331.715 93.421ZM331.715 113.636L333.163 115.802L362.106 99.1967L360.659 97.0308L331.715 113.636ZM325.927 139.627L327.374 141.793L361.382 120.856L359.935 118.69L325.927 139.627ZM365 52.2688L363.553 54.4347L334.61 37.8295L336.057 35.6636L365 52.2688ZM360.659 72.4839L359.211 74.6498L330.268 58.0446L331.715 55.8787L360.659 72.4839ZM360.659 93.421L359.211 95.5869L330.268 78.9816L331.715 76.8157L360.659 93.421ZM360.659 113.636L359.211 115.802L330.268 99.1967L331.715 97.0308L360.659 113.636ZM364.276 136.739L362.829 138.183L330.268 120.856L331.715 118.69L364.276 136.739Z" stroke="#9ED0BB"/>
</g>
<g filter="url(#filter0_ddd_6383_25112)">
<circle cx="19" cy="29" r="51" fill="white"/>
</g>
<path fill-rule="evenodd" clip-rule="evenodd" d="M209.307 57.2375H253.883C253.949 57.2392 254.014 57.24 254.08 57.24C254.146 57.24 254.211 57.2392 254.277 57.2375H323.146C310.589 57.1731 284.298 55.8337 265.96 50.76C265.304 49.8856 264.258 49.32 263.08 49.32C262.568 49.32 262.081 49.4269 261.64 49.6196C261.607 45.4721 258.235 42.12 254.08 42.12C251.884 42.12 249.906 43.0567 248.525 44.5525C247.736 43.5121 246.486 42.84 245.08 42.84C245.02 42.84 244.96 42.8412 244.901 42.8437C244.293 39.846 242.196 37.3888 239.416 36.2785C237.704 30.8979 232.667 27 226.72 27C220.107 27 214.62 31.819 213.578 38.1368C212.224 37.4605 210.696 37.08 209.08 37.08C203.754 37.08 199.393 41.2098 199.025 46.4416L199 46.44V47.0973C199 47.1182 199 47.1391 199 47.16C199 47.1809 199 47.2018 199 47.2227V57.2375H208.852C208.928 57.2392 209.004 57.24 209.08 57.24C209.156 57.24 209.232 57.2392 209.307 57.2375ZM325 57.2375H323.146C323.803 57.2408 324.422 57.2407 325 57.2375Z" fill="white" fill-opacity="0.4"/>
<path d="M266.685 65.7532C266.685 57.7288 269.882 50.033 275.574 44.3589C281.266 38.6848 288.986 35.4971 297.036 35.4971C305.086 35.4971 312.806 38.6848 318.498 44.3589C324.19 50.033 327.387 57.7288 327.387 65.7532C327.387 73.7777 324.19 81.4734 318.498 87.1476C312.806 92.8217 305.086 96.0094 297.036 96.0094C288.986 96.0094 281.266 92.8217 275.574 87.1476C269.882 81.4734 266.685 73.7777 266.685 65.7532ZM295.97 103.96C296.197 103.926 296.426 103.907 296.656 103.902H297.416C297.648 103.902 297.877 103.922 298.102 103.96L336.609 110.711L336.809 110.753C343.904 112.385 351.526 116.873 353.009 125.592L353.03 125.745L353.632 130.359V130.37C355.026 140.941 346.617 148.629 336.688 148.629C336.469 148.625 336.25 148.607 336.034 148.576H257.384C247.455 148.576 239.041 140.883 240.44 130.307L241.042 125.734L241.068 125.576C242.546 117.015 250.231 112.274 257.31 110.743L257.463 110.711L295.97 103.96Z" fill="#BBD0C7"/>
<path d="M265.816 65.3387C265.816 82.0587 279.027 52.8649 297.248 54.1624C314.021 54.1624 328.205 82.0587 328.205 65.3387C328.205 48.6188 314.021 33.7476 297.248 33.7476C280.476 33.7476 267.244 44.924 265.816 65.3387Z" fill="#27513E"/>
<path d="M314.475 107.29H279.767C272.681 108.443 259.984 110.058 257.207 110.75C253.736 111.615 241.155 114.642 240.287 130.212C239.593 142.668 245.083 164.991 250 166C275.452 166.144 335.447 166.346 341 166C347.942 165.568 356.559 142.322 353.522 127.617C351.092 115.853 341.229 111.471 336.602 110.75L314.475 107.29Z" fill="#2C6149" stroke="#2C6149"/>
<path d="M259.148 49.3417C259.148 50.4463 258.253 51.3417 257.148 51.3417H255.965C255.038 51.3417 254.247 51.9836 253.943 52.8587C253.774 53.3446 253.581 53.8169 253.366 54.2742C252.972 55.1084 253.068 56.1179 253.713 56.7773L254.612 57.6958C255.372 58.4732 255.372 59.7154 254.612 60.4927L252.82 62.3242C252.036 63.1263 250.745 63.1263 249.961 62.3242L249.159 61.504C248.498 60.8286 247.461 60.722 246.609 61.1303C246.202 61.325 245.785 61.5005 245.36 61.6556C244.491 61.9722 243.852 62.762 243.852 63.6863V64.9809C243.852 66.0855 242.956 66.9809 241.852 66.9809H239.296C238.192 66.9809 237.296 66.0855 237.296 64.9809V63.6863C237.296 62.762 236.657 61.9722 235.788 61.6556C235.363 61.5005 234.946 61.325 234.539 61.1303C233.687 60.722 232.65 60.8286 231.989 61.504L231.187 62.3242C230.403 63.1263 229.112 63.1263 228.328 62.3242L226.493 60.4481C225.732 59.6708 225.732 58.4285 226.493 57.6512L227.405 56.7186C228.043 56.0656 228.145 55.0684 227.759 54.2405C227.552 53.7958 227.367 53.3383 227.204 52.8708C226.898 51.9907 226.103 51.3417 225.172 51.3417H224C222.895 51.3417 222 50.4463 222 49.3417V46.7062C222 45.6017 222.895 44.7062 224 44.7062H225.14C226.076 44.7062 226.873 44.0507 227.181 43.1661C227.351 42.6743 227.548 42.1955 227.766 41.7306C228.153 40.9092 228.048 39.9199 227.413 39.271L226.493 38.3298C225.732 37.5525 225.732 36.3102 226.493 35.5329L228.284 33.7014C229.068 32.8993 230.359 32.8993 231.143 33.7014L231.931 34.5068C232.598 35.1889 233.649 35.2904 234.508 34.8754C234.929 34.672 235.363 34.4893 235.807 34.3275C236.668 34.0135 237.296 33.2282 237.296 32.3118V31C237.296 29.8954 238.192 29 239.296 29H241.852C242.956 29 243.852 29.8954 243.852 31V32.2946C243.852 33.2189 244.491 34.0087 245.36 34.3253C245.785 34.4804 246.202 34.6559 246.609 34.8507C247.461 35.259 248.498 35.1524 249.159 34.4769L249.961 33.6567C250.745 32.8547 252.036 32.8547 252.82 33.6567L254.655 35.5329C255.416 36.3102 255.416 37.5525 254.655 38.3298L253.735 39.271C253.1 39.9199 252.995 40.9092 253.382 41.7306C253.6 42.1955 253.797 42.6743 253.967 43.1661C254.275 44.0507 255.072 44.7062 256.008 44.7062H257.148C258.253 44.7062 259.148 45.6017 259.148 46.7062V49.3417ZM240.574 54.693C244.201 54.693 247.13 51.6992 247.13 47.9905C247.13 44.2817 244.201 41.2879 240.574 41.2879C236.947 41.2879 234.018 44.2817 234.018 47.9905C234.018 51.6992 236.947 54.693 240.574 54.693Z" fill="#2B6048"/>
</g>
<defs>
<filter id="filter0_ddd_6383_25112" x="-152" y="-142" width="342" height="342" filterUnits="userSpaceOnUse" color-interpolation-filters="sRGB">
<feFlood flood-opacity="0" result="BackgroundImageFix"/>
<feColorMatrix in="SourceAlpha" type="matrix" values="0 0 0 0 0 0 0 0 0 0 0 0 0 0 0 0 0 0 127 0" result="hardAlpha"/>
<feOffset/>
<feGaussianBlur stdDeviation="20"/>
<feColorMatrix type="matrix" values="0 0 0 0 1 0 0 0 0 1 0 0 0 0 1 0 0 0 0.8 0"/>
<feBlend mode="normal" in2="BackgroundImageFix" result="effect1_dropShadow_6383_25112"/>
<feColorMatrix in="SourceAlpha" type="matrix" values="0 0 0 0 0 0 0 0 0 0 0 0 0 0 0 0 0 0 127 0" result="hardAlpha"/>
<feOffset/>
<feGaussianBlur stdDeviation="40"/>
<feColorMatrix type="matrix" values="0 0 0 0 1 0 0 0 0 1 0 0 0 0 1 0 0 0 0.6 0"/>
<feBlend mode="normal" in2="effect1_dropShadow_6383_25112" result="effect2_dropShadow_6383_25112"/>
<feColorMatrix in="SourceAlpha" type="matrix" values="0 0 0 0 0 0 0 0 0 0 0 0 0 0 0 0 0 0 127 0" result="hardAlpha"/>
<feOffset/>
<feGaussianBlur stdDeviation="60"/>
<feColorMatrix type="matrix" values="0 0 0 0 1 0 0 0 0 1 0 0 0 0 1 0 0 0 0.24 0"/>
<feBlend mode="normal" in2="effect2_dropShadow_6383_25112" result="effect3_dropShadow_6383_25112"/>
<feBlend mode="normal" in="SourceGraphic" in2="effect3_dropShadow_6383_25112" result="shape"/>
</filter>
<radialGradient id="paint0_radial_6383_25112" cx="0" cy="0" r="1" gradientTransform="matrix(-272 101.788 -252.715 -155.677 321 23.2864)" gradientUnits="userSpaceOnUse">
<stop stop-color="#C3E8D8"/>
<stop offset="1" stop-color="#E2F3EC"/>
</radialGradient>
<clipPath id="clip0_6383_25112">
<path d="M0 0H360V129C360 137.837 352.837 145 344 145H16C7.16344 145 0 137.837 0 129V0Z" fill="white"/>
</clipPath>
</defs>
</svg>
