<svg width="12" height="12" viewBox="0 0 12 12" fill="none" xmlns="http://www.w3.org/2000/svg">
<path d="M2.2502 1.80005C1.6703 1.80005 1.2002 2.27015 1.2002 2.85005V4.80659C1.50329 4.61255 1.8636 4.50005 2.2502 4.50005H9.7502C10.1368 4.50005 10.4971 4.61255 10.8002 4.80659V4.05005C10.8002 3.47015 10.3301 3.00005 9.7502 3.00005H6.84872C6.80894 3.00005 6.77079 2.98425 6.74266 2.95612L5.89413 2.10759C5.69722 1.91067 5.43014 1.80005 5.15167 1.80005H2.2502Z" fill="#347357"/>
<path d="M2.2502 5.40005C1.6703 5.40005 1.2002 5.87015 1.2002 6.45005V9.15005C1.2002 9.72995 1.6703 10.2 2.2502 10.2H9.7502C10.3301 10.2 10.8002 9.72995 10.8002 9.15005V6.45005C10.8002 5.87015 10.3301 5.40005 9.7502 5.40005H2.2502Z" fill="#347357"/>
</svg>
