<svg width="41" height="40" viewBox="0 0 41 40" fill="none" xmlns="http://www.w3.org/2000/svg">
<path d="M27.5396 31.3498L21.7238 25.4875H23.9536C24.6095 25.4875 25.1897 25.1636 25.4663 24.6414C25.7429 24.1205 25.652 23.5232 25.2275 23.0833L19.5399 17.1951H21.643C22.3055 17.1951 22.9024 16.8485 23.1616 16.3134C23.4178 15.7867 23.297 15.1738 22.8529 14.7534L14.8256 7.1425C14.3866 6.72464 13.5676 6.72464 13.1279 7.1425L5.09985 14.7534C4.65578 15.1738 4.53567 15.7867 4.79119 16.3134C5.05035 16.8485 5.64801 17.1951 6.31046 17.1951H8.41358L2.7252 23.0846C2.30225 23.5239 2.21125 24.1205 2.48716 24.642C2.76379 25.1636 3.34325 25.4875 3.99988 25.4875H6.22966L0.413892 31.3498C-0.0228912 31.7897 -0.121895 32.3922 0.154734 32.9215C0.427723 33.443 1.0283 33.7799 1.6842 33.7799H11.6472V35.3639L9.4422 38.4994C9.05492 39.1887 9.61837 39.9998 10.4839 39.9998H17.4695C18.3351 39.9998 18.8986 39.1887 18.5113 38.4994L16.3062 35.3639V33.7799H26.2693C26.9252 33.7799 27.5258 33.443 27.7987 32.9215C28.0754 32.3922 27.9764 31.7897 27.5396 31.3498Z" fill="url(#paint0_linear_11141_20047)"/>
<path d="M34.6314 33.5126L30.2695 29.1159H31.9419C32.4338 29.1159 32.869 28.8729 33.0764 28.4813C33.2839 28.0906 33.2156 27.6427 32.8973 27.3127L28.6316 22.8966H30.2089C30.7058 22.8966 31.1535 22.6366 31.3479 22.2353C31.54 21.8402 31.4494 21.3806 31.1164 21.0653L25.0958 15.3571C24.7666 15.0437 24.1524 15.0437 23.8226 15.3571L17.8016 21.0653C17.4685 21.3806 17.3784 21.8402 17.5701 22.2353C17.7644 22.6366 18.2127 22.8966 18.7095 22.8966H20.2869L16.0206 27.3137C15.7034 27.6431 15.6351 28.0906 15.8421 28.4818C16.0495 28.8729 16.4841 29.1159 16.9766 29.1159H18.6489L14.2871 33.5126C13.9595 33.8425 13.8853 34.2944 14.0927 34.6914C14.2975 35.0825 14.7479 35.3352 15.2398 35.3352H22.7121V36.5231L21.0583 38.8748C20.7679 39.3918 21.1905 40.0001 21.8396 40.0001H27.0788C27.728 40.0001 28.1506 39.3918 27.8601 38.8748L26.2064 36.5231V35.3352H33.6786C34.1706 35.3352 34.621 35.0825 34.8257 34.6914C35.0332 34.2944 34.959 33.8425 34.6314 33.5126Z" fill="url(#paint1_linear_11141_20047)"/>
<path d="M27.8662 12.4246C27.3397 12.912 27.3352 13.7071 27.8561 14.2004C28.377 14.6937 29.2262 14.6985 29.7526 14.2111C29.79 14.1765 29.8505 14.1769 29.8875 14.2119C30.4084 14.7052 31.2575 14.71 31.7839 14.2226C32.3104 13.7352 32.3149 12.9401 31.794 12.4468C30.7169 11.4266 28.9548 11.4167 27.8662 12.4246Z" fill="#FDE047"/>
<path d="M23.8263 8.59743C23.2998 9.08483 23.2954 9.87992 23.8163 10.3732C24.3372 10.8666 25.1863 10.8713 25.7128 10.3839C28.0021 8.2644 31.7077 8.28531 33.973 10.4306C34.4939 10.9239 35.343 10.9287 35.8694 10.4413C36.3959 9.95385 36.4004 9.15876 35.8795 8.66545C32.5739 5.53506 27.1669 5.50455 23.8263 8.59743Z" fill="#FDE047"/>
<path d="M19.7863 4.77028C19.2599 5.25768 19.2554 6.05277 19.7763 6.54609C20.2972 7.0394 21.1463 7.04419 21.6728 6.55679C26.2142 2.35219 33.5647 2.39367 38.0584 6.64926C38.5793 7.14257 39.4284 7.14736 39.9549 6.65996C40.4813 6.17255 40.4858 5.37747 39.9649 4.88415C34.431 -0.356518 25.379 -0.407601 19.7863 4.77028Z" fill="#FDE047"/>
<path d="M31.783 14.2227C32.3094 13.7353 32.3139 12.9402 31.793 12.447C31.2544 11.9369 30.5446 11.6794 29.8335 11.6754L29.8193 14.1855C29.8437 14.1856 29.8681 14.1945 29.8866 14.212C30.4075 14.7053 31.2565 14.7101 31.783 14.2227Z" fill="#FACC15"/>
<path d="M35.8689 10.4407C36.3953 9.9533 36.3998 9.15828 35.8789 8.66502C34.2263 7.1 32.0483 6.30984 29.8661 6.29752L29.8519 8.80745C31.3475 8.81589 32.8401 9.35744 33.9726 10.43C34.4935 10.9232 35.3425 10.928 35.8689 10.4407Z" fill="#FACC15"/>
<path d="M38.0582 6.64754C38.5791 7.14079 39.4281 7.14559 39.9545 6.65824C40.4809 6.17089 40.4854 5.37589 39.9645 4.88263C37.1979 2.26259 33.5518 0.939803 29.8984 0.919127L29.8842 3.42901C32.8509 3.44581 35.8116 4.51998 38.0582 6.64754Z" fill="#FACC15"/>
<defs>
<linearGradient id="paint0_linear_11141_20047" x1="0" y1="23.4145" x2="27.9535" y2="23.4145" gradientUnits="userSpaceOnUse">
<stop offset="0.499914" stop-color="#347357"/>
<stop offset="0.525" stop-color="#2B6049"/>
</linearGradient>
<linearGradient id="paint1_linear_11141_20047" x1="13.9767" y1="27.5611" x2="34.9418" y2="27.5611" gradientUnits="userSpaceOnUse">
<stop offset="0.499914" stop-color="#568A73"/>
<stop offset="0.500014" stop-color="#347357"/>
</linearGradient>
</defs>
</svg>
