<svg width="40" height="40" viewBox="0 0 40 40" fill="none" xmlns="http://www.w3.org/2000/svg">
<path d="M28.1516 15.4995C28.1611 15.9989 27.7307 16.4063 27.1904 16.4094C26.6501 16.4125 26.2043 16.0101 26.1949 15.5107C26.1942 15.4752 26.1624 15.4466 26.1241 15.4468C25.5837 15.4499 25.138 15.0475 25.1286 14.5481C25.1191 14.0487 25.5495 13.6413 26.0898 13.6382C27.2071 13.6317 28.1321 14.4668 28.1516 15.4995Z" fill="#FDE047"/>
<path d="M32.3586 15.478C32.368 15.9774 31.9376 16.3848 31.3973 16.3879C30.857 16.391 30.4113 15.9886 30.4018 15.4892C30.3607 13.3174 28.4155 11.5613 26.0658 11.5748C25.5255 11.5778 25.0798 11.1754 25.0703 10.676C25.0609 10.1766 25.4913 9.76921 26.0316 9.76612C29.4603 9.74653 32.2985 12.3089 32.3586 15.478Z" fill="#FDE047"/>
<path d="M36.5653 15.4565C36.5748 15.9559 36.1444 16.3633 35.6041 16.3664C35.0638 16.3695 34.618 15.9671 34.6086 15.4677C34.527 11.1594 30.6685 7.67607 26.0074 7.7027C25.467 7.70579 25.0213 7.3034 25.0119 6.80398C25.0024 6.30455 25.4328 5.89716 25.9731 5.89407C31.7132 5.86127 36.4648 10.151 36.5653 15.4565Z" fill="#FDE047"/>
<path d="M25.1276 14.5502C25.1181 14.0506 25.5488 13.643 26.0894 13.6399C26.6485 13.6367 27.1594 13.844 27.5329 14.1811L26.1733 15.4679C26.1605 15.4563 26.1429 15.4492 26.1237 15.4493C25.5831 15.4524 25.1371 15.0499 25.1276 14.5502Z" fill="#FACC15"/>
<path d="M25.0679 10.6824C25.0584 10.1824 25.4895 9.77445 26.0306 9.77134C27.7474 9.76149 29.3165 10.398 30.4637 11.4335L29.103 12.7213C28.3167 12.0117 27.2414 11.5755 26.0648 11.5822C25.5237 11.5854 25.0774 11.1825 25.0679 10.6824Z" fill="#FACC15"/>
<path d="M26.0052 7.71452C25.464 7.71763 25.0175 7.31462 25.008 6.8144C24.9986 6.31418 25.4297 5.90612 25.971 5.90301C28.8459 5.88648 31.4733 6.9523 33.3946 8.68648L32.0334 9.97476C30.4733 8.56655 28.3398 7.7011 26.0052 7.71452Z" fill="#FACC15"/>
<path d="M17.3647 0.64209L6.73456 0.64209C3.51624 0.64209 0.885354 3.04665 0.858196 6.02407L0.639287 30.0233C0.612129 33.0007 3.19915 35.4053 6.41746 35.4053L17.0477 35.4053C20.2714 35.4053 22.8969 32.9953 22.924 30.0233L23.1429 6.02407C23.17 3.05209 20.5884 0.64209 17.3647 0.64209Z" fill="#444956"/>
<path d="M22.98 29.9784L23.0871 5.97856C23.1003 3.0065 20.5075 0.607102 17.2839 0.620311L11.9688 0.64209L11.8138 35.4062L17.1288 35.3844C20.3525 35.3712 22.9668 32.9505 22.98 29.9784Z" fill="#000032"/>
<path d="M17.2741 2.65645L6.64402 2.7C4.64364 2.7082 3.01555 4.20936 3.0073 6.06001L2.90028 30.06C2.89203 31.9105 4.50678 33.3984 6.50716 33.3902L17.1372 33.3467C19.1446 33.3384 20.7657 31.8306 20.774 29.9867L20.881 5.98677C20.8892 4.14285 19.2814 2.64822 17.2741 2.65645Z" fill="#F0F7FF"/>
<path d="M20.774 29.9867L20.881 5.98677C20.8892 4.14284 19.2814 2.64822 17.2741 2.65644L11.959 2.67822L11.8222 33.3684L17.1372 33.3467C19.1445 33.3384 20.7657 31.8306 20.774 29.9867Z" fill="#DFE7F4"/>
<path d="M13.7119 7.03501L10.1686 7.04953C9.55959 7.05203 9.0679 6.59804 9.07041 6.03557C9.07292 5.4731 9.56867 5.01507 10.1777 5.01257L13.721 4.99805C14.33 4.99556 14.8217 5.44954 14.8192 6.01201C14.8167 6.57449 14.3209 7.03252 13.7119 7.03501Z" fill="#444956"/>
<path d="M14.8186 6.01159C14.8211 5.44911 14.3295 4.99513 13.7205 4.99762L11.9488 5.00488L11.9397 7.04184L13.7114 7.03458C14.3204 7.03209 14.8161 6.57406 14.8186 6.01159Z" fill="#000032"/>
<path d="M17.1474 31.0201L6.51727 31.0637C5.90828 31.0662 5.4166 30.6122 5.4191 30.0497C5.42161 29.4873 5.91736 29.0292 6.52635 29.0267L17.1564 28.9832C17.7654 28.9807 18.2571 29.4347 18.2546 29.9971C18.2521 30.5596 17.7563 31.0176 17.1474 31.0201Z" fill="#DFE7F4"/>
<path d="M17.1576 28.9836L11.8426 29.0054L11.8335 31.0423L17.1486 31.0206C17.7575 31.0181 18.2533 30.56 18.2558 29.9976C18.2583 29.4351 17.7666 28.9811 17.1576 28.9836Z" fill="#C7CFE1"/>
<ellipse cx="0.971646" cy="1.10283" rx="0.971646" ry="1.10283" transform="matrix(0.570656 -0.821418 0.867724 0.497403 26.6043 22.0786)" fill="#444956"/>
<path d="M30.9716 18.8869C30.3394 18.5245 28.833 18.3678 27.0205 18.8812C25.992 19.1777 25.0233 19.6324 24.1562 20.2254C24.1278 20.2453 24.1082 20.2741 24.1013 20.3062C24.0945 20.3382 24.1008 20.3712 24.1191 20.3988C24.1265 20.4105 24.1335 20.4219 24.1404 20.4343L24.5122 21.1226C25.1817 22.3076 26.1841 23.304 27.418 24.0108C28.6519 24.7176 30.0735 25.1099 31.539 25.1479L31.5596 25.1482L32.3863 25.1892C32.4302 25.1914 32.4738 25.1789 32.5089 25.1541C32.5441 25.1292 32.5684 25.0937 32.5775 25.0541C33.2873 21.8183 31.946 19.4456 30.9716 18.8869ZM28.6549 22.2116C28.5899 22.3385 28.4835 22.4443 28.3507 22.5141C28.2179 22.584 28.0653 22.6143 27.9144 22.6009C27.7635 22.5876 27.6217 22.5311 27.5091 22.4395C27.3965 22.348 27.3186 22.2259 27.2864 22.0903C27.2543 21.9548 27.2694 21.8127 27.3297 21.6839C27.39 21.5552 27.4925 21.4462 27.6227 21.3723C27.7529 21.2985 27.9044 21.2635 28.0559 21.2721C28.2073 21.2808 28.3511 21.3328 28.4671 21.4208C28.5895 21.5136 28.6743 21.6415 28.7083 21.7845C28.7422 21.9275 28.7234 22.0777 28.6549 22.2116Z" fill="url(#paint0_linear_11141_23158)"/>
<path d="M26.755 24.9992C25.3101 24.1716 24.1371 23.0042 23.3554 21.6156L23.3503 21.6068L23.1715 21.2764C23.1589 21.2527 23.1402 21.2322 23.117 21.2167C23.0938 21.2011 23.0667 21.191 23.0381 21.1871C23.0095 21.1832 22.9801 21.1857 22.9526 21.1944C22.925 21.203 22.8999 21.2176 22.8796 21.2368C22.4591 21.6345 22.0689 22.0581 21.7119 22.5046C21.6699 22.5573 21.6121 22.5978 21.5458 22.621C20.5149 22.9814 18.6016 23.7704 17.3955 25.0014C17.3135 25.0857 17.2557 25.1873 17.2274 25.2967C17.1992 25.4061 17.2016 25.5197 17.2342 25.6271C17.2669 25.7344 17.3288 25.832 17.4142 25.9106C17.4996 25.9893 17.6057 26.0465 17.7227 26.077L19.3984 26.5136C19.4419 26.5249 19.4788 26.5507 19.502 26.5861C19.5251 26.6215 19.5328 26.6638 19.5234 26.7046C19.1414 28.3038 19.3175 29.9708 19.4773 31.2046C19.4867 31.2799 19.4676 31.3564 19.4231 31.4212C19.3787 31.4861 19.3115 31.5354 19.233 31.5609C19.0606 31.6174 18.8876 31.6776 18.714 31.7415C16.6399 32.5084 15.3531 34.0686 15.2997 34.1347C15.2316 34.2184 15.1855 34.3152 15.165 34.4174C15.1446 34.5196 15.1505 34.6243 15.1822 34.7231C15.2139 34.822 15.2705 34.9123 15.3476 34.9867C15.4246 35.0612 15.5199 35.1178 15.6259 35.1521C15.7097 35.1794 17.4006 35.7159 19.1298 35.5965C19.2075 35.591 19.2845 35.6082 19.3499 35.6457C19.4153 35.6832 19.4656 35.7389 19.4935 35.8049C20.1187 37.274 21.38 38.4297 21.4432 38.4866C21.5228 38.5588 21.6201 38.6126 21.7273 38.6437C21.8344 38.6748 21.9485 38.6824 22.0604 38.6658C22.1723 38.6492 22.2788 38.609 22.3716 38.5483C22.4643 38.4876 22.5407 38.4081 22.5945 38.3162C22.6382 38.2425 23.6319 36.5164 23.5027 34.489C23.4916 34.3231 23.4774 34.1591 23.46 33.9972C23.4516 33.9218 23.4718 33.8455 23.5172 33.7812C23.5625 33.7169 23.6303 33.6683 23.7092 33.6437C25.0099 33.2422 26.7449 32.6677 28.1732 31.6633C28.2097 31.6381 28.2549 31.6262 28.2999 31.6299C28.3449 31.6336 28.3865 31.6527 28.4164 31.6833L29.5709 32.871C29.6515 32.9538 29.7541 33.0162 29.869 33.0524C29.9839 33.0885 30.1075 33.0973 30.2282 33.0779C30.3489 33.0584 30.4629 33.0114 30.5595 32.9412C30.656 32.871 30.7321 32.7799 30.7806 32.6763C31.0908 32.0075 31.5627 30.5649 31.352 28.2648C31.3463 28.1992 31.3616 28.1332 31.396 28.0749C31.6863 27.591 31.9401 27.0899 32.1557 26.5752C32.1658 26.5509 32.1696 26.5248 32.1667 26.4991C32.1639 26.4734 32.1545 26.4488 32.1393 26.4272C32.1242 26.4056 32.1036 26.3877 32.0794 26.3748C32.0551 26.3619 32.0278 26.3545 31.9996 26.3531L31.5734 26.3313C29.8595 26.2865 28.1971 25.8269 26.755 24.9992Z" fill="url(#paint1_linear_11141_23158)"/>
<ellipse cx="0.612357" cy="0.642001" rx="0.612357" ry="0.642001" transform="matrix(0.861589 -0.50814 0.582828 0.81295 14.379 14.7715)" fill="#444956"/>
<path d="M17.6711 14.0081C17.4252 13.6651 16.6436 13.2343 15.5086 13.0999C14.8632 13.0265 14.2067 13.0533 13.5676 13.179C13.5465 13.1834 13.5278 13.1946 13.5151 13.2106C13.5025 13.2265 13.4968 13.2461 13.4992 13.2653C13.5001 13.2734 13.5007 13.2813 13.5011 13.2896L13.5141 13.7512C13.5526 14.5527 13.8257 15.3272 14.3057 15.9964C14.7858 16.6656 15.4558 17.2057 16.248 17.5622L16.2591 17.5671L16.7006 17.7789C16.724 17.7902 16.7513 17.7933 16.7775 17.7878C16.8036 17.7822 16.8268 17.7684 16.8427 17.7488C18.1276 16.1417 18.0501 14.5368 17.6711 14.0081ZM15.4815 15.2957C15.4107 15.3502 15.3232 15.3837 15.2311 15.3915C15.139 15.3993 15.047 15.3809 14.9681 15.339C14.8891 15.2971 14.8271 15.2338 14.7908 15.1579C14.7545 15.0821 14.7456 14.9974 14.7655 14.9159C14.7855 14.8345 14.8331 14.7602 14.9018 14.7036C14.9705 14.647 15.0568 14.6109 15.1486 14.6003C15.2403 14.5897 15.333 14.6053 15.4136 14.6447C15.4941 14.6841 15.5585 14.7455 15.5976 14.8202C15.639 14.899 15.65 14.9884 15.629 15.0744C15.608 15.1604 15.5561 15.2382 15.4815 15.2957Z" fill="url(#paint2_linear_11141_23158)"/>
<path d="M13.4701 16.5133C12.9035 15.7236 12.5819 14.8092 12.538 13.8633L12.5377 13.8573L12.5312 13.6339C12.5309 13.6179 12.5263 13.6023 12.5178 13.5884C12.5093 13.5744 12.4972 13.5626 12.4825 13.5539C12.4678 13.5451 12.4509 13.5397 12.4332 13.5381C12.4156 13.5365 12.3977 13.5388 12.3811 13.5447C12.0379 13.6668 11.7042 13.8103 11.3824 13.974C11.3445 13.9934 11.3013 14.0023 11.2582 13.9998C10.5884 13.9605 9.31178 13.9538 8.30221 14.354C8.23335 14.3815 8.17306 14.4242 8.12694 14.478C8.08082 14.5318 8.05037 14.595 8.03842 14.6617C8.02647 14.7284 8.03341 14.7965 8.0586 14.8596C8.08379 14.9226 8.1264 14.9787 8.18247 15.0225L8.98573 15.65C9.00657 15.6662 9.01974 15.689 9.02264 15.7139C9.02554 15.7387 9.01796 15.7638 9.00139 15.7841C8.34391 16.5775 7.97567 17.5371 7.71937 18.2542C7.70354 18.2978 7.67164 18.3356 7.62898 18.3611C7.58632 18.3865 7.53549 18.3982 7.48498 18.3942C7.37406 18.3855 7.26175 18.3788 7.14803 18.374C5.78876 18.3179 4.6427 18.881 4.59477 18.9051C4.53376 18.9355 4.48126 18.9782 4.44147 19.0298C4.40167 19.0814 4.37568 19.1405 4.36557 19.2023C4.35546 19.2641 4.36152 19.327 4.38326 19.3858C4.40499 19.4446 4.44181 19.4979 4.49076 19.5412C4.52939 19.5756 5.31312 20.2617 6.30117 20.595C6.34555 20.6099 6.38329 20.6372 6.40892 20.6729C6.43455 20.7087 6.44674 20.751 6.44373 20.7939C6.3787 21.748 6.75235 22.6763 6.77134 22.7222C6.79515 22.7804 6.83384 22.8325 6.88432 22.8744C6.9348 22.9163 6.99567 22.9468 7.06206 22.9635C7.12844 22.9802 7.19852 22.9826 7.26667 22.9706C7.33482 22.9585 7.39917 22.9323 7.45456 22.8941C7.49925 22.8636 8.52987 22.1414 9.02468 20.9939C9.06487 20.8999 9.10277 20.8062 9.13838 20.7129C9.15483 20.6694 9.18726 20.6321 9.23027 20.6071C9.27328 20.5821 9.32427 20.571 9.37471 20.5756C10.205 20.6545 11.3232 20.7383 12.3922 20.5143C12.4194 20.5089 12.4477 20.5128 12.4715 20.5252C12.4953 20.5376 12.513 20.5577 12.5209 20.5815L12.8267 21.5027C12.8481 21.567 12.8873 21.6251 12.9406 21.6715C12.994 21.718 13.0597 21.7514 13.1318 21.7685C13.2039 21.7857 13.2799 21.7861 13.3528 21.7697C13.4258 21.7533 13.4932 21.7206 13.5489 21.6747C13.9069 21.3776 14.5703 20.6913 15.0962 19.3747C15.1114 19.3372 15.1382 19.3044 15.1736 19.2802C15.4689 19.0804 15.749 18.8628 16.0117 18.6288C16.0241 18.6177 16.0334 18.6042 16.0391 18.5894C16.0447 18.5746 16.0464 18.5588 16.044 18.5434C16.0417 18.528 16.0354 18.5134 16.0256 18.5007C16.0158 18.488 16.0028 18.4776 15.9876 18.4703L15.7584 18.3599C14.8246 17.9396 14.0352 17.3025 13.4701 16.5133Z" fill="url(#paint3_linear_11141_23158)"/>
<defs>
<linearGradient id="paint0_linear_11141_23158" x1="27.4167" y1="24.0101" x2="30.5068" y2="18.6205" gradientUnits="userSpaceOnUse">
<stop offset="0.491403" stop-color="#FACC15"/>
<stop offset="0.5006" stop-color="#FDE047"/>
</linearGradient>
<linearGradient id="paint1_linear_11141_23158" x1="27.5989" y1="23.7852" x2="19.7256" y2="37.5206" gradientUnits="userSpaceOnUse">
<stop offset="0.40356" stop-color="#347357"/>
<stop offset="0.406324" stop-color="#568A73"/>
</linearGradient>
<linearGradient id="paint2_linear_11141_23158" x1="14.3052" y1="15.9957" x2="17.4699" y2="13.7274" gradientUnits="userSpaceOnUse">
<stop offset="0.491403" stop-color="#FACC15"/>
<stop offset="0.5006" stop-color="#FDE047"/>
</linearGradient>
<linearGradient id="paint3_linear_11141_23158" x1="14.275" y1="16.0389" x2="6.1457" y2="21.867" gradientUnits="userSpaceOnUse">
<stop offset="0.359939" stop-color="#347357"/>
<stop offset="0.362078" stop-color="#568A73"/>
</linearGradient>
</defs>
</svg>
