<svg width="40" height="40" viewBox="0 0 40 40" fill="none" xmlns="http://www.w3.org/2000/svg">
<path d="M35.3497 10.3668C35.4395 10.4094 35.5599 10.379 35.6187 10.2988C35.6774 10.2187 35.6523 10.1191 35.5625 10.0765L33.3367 9.01939C33.2469 8.97675 33.1264 9.00718 33.0677 9.08735C33.0089 9.16752 33.0341 9.26708 33.1239 9.30972L33.892 9.67451C33.9818 9.71715 34.0069 9.81671 33.9482 9.89688C33.8894 9.97705 33.769 10.0075 33.6792 9.96484L33.6596 9.95551C33.5589 9.90772 33.424 9.94182 33.3581 10.0317L33.2646 10.1593C33.1471 10.3196 32.9062 10.3805 32.7267 10.2952L32.2729 10.0797C32.0087 9.95426 31.8502 9.71775 31.8518 9.45152L31.8524 9.35906C31.8543 9.0503 31.6704 8.77601 31.364 8.63049L30.764 8.34553C30.4575 8.19996 30.0702 8.20311 29.7353 8.3539L29.6433 8.39533C29.3498 8.52749 29.0103 8.53025 28.7416 8.40266L28.275 8.18107C28.0955 8.09578 28.0451 7.89667 28.1627 7.73632L28.2562 7.6087C28.3221 7.51884 28.2939 7.40726 28.1932 7.35946L28.1736 7.35014C28.0838 7.3075 28.0586 7.20794 28.1174 7.12777C28.1762 7.0476 28.2966 7.01717 28.3864 7.05981L29.1545 7.42461C29.2443 7.46725 29.3647 7.43682 29.4235 7.35665C29.4822 7.27648 29.4571 7.17692 29.3673 7.13428L27.1415 6.07721C27.0517 6.03457 26.9312 6.06499 26.8725 6.14516C26.8137 6.22533 26.8389 6.32489 26.9287 6.36753L27.6968 6.73233C27.7866 6.77497 27.8117 6.87453 27.753 6.9547C27.6942 7.03487 27.5738 7.06529 27.484 7.02265L27.4644 7.01332C27.3637 6.96553 27.2288 6.99963 27.1629 7.08949L26.576 7.89032C26.3784 8.15989 26.463 8.49465 26.7649 8.63802L27.149 8.82042C27.2388 8.86306 27.3592 8.83263 27.4179 8.75246C27.4767 8.67229 27.5971 8.64187 27.6869 8.68451L28.6323 9.13348C28.6611 9.14716 28.6783 9.17293 28.6782 9.20195C28.6779 9.25428 28.6224 9.29826 28.5608 9.29659C27.9782 9.28082 27.4011 9.38609 26.8859 9.60287C26.3364 9.83413 25.8789 10.1833 25.5641 10.6117C25.5358 10.6502 25.528 10.6962 25.5422 10.7397C25.5564 10.7831 25.5916 10.8204 25.6399 10.8434C25.6882 10.8663 25.7458 10.873 25.7999 10.862C25.854 10.851 25.9003 10.8232 25.9285 10.7847C26.2059 10.4073 26.6099 10.1002 27.0951 9.89792C27.4399 9.75416 27.8161 9.66739 28.2016 9.64122C28.4757 9.62261 28.6743 9.80982 28.6729 10.0409C28.672 10.2003 28.7669 10.3418 28.925 10.4169L30.0049 10.9298C30.1605 11.0037 30.3572 11.0021 30.5272 10.9256C30.775 10.814 31.0712 10.8638 31.181 11.0642C31.3364 11.3478 31.4219 11.6536 31.431 11.9647C31.4437 12.4017 31.3051 12.832 31.0304 13.2077C31.0022 13.2462 30.9943 13.2923 31.0085 13.3357C31.0228 13.3792 31.0579 13.4165 31.1062 13.4394C31.1546 13.4624 31.2121 13.4691 31.2662 13.4581C31.3204 13.4471 31.3666 13.4193 31.3948 13.3808C31.7068 12.9541 31.8654 12.4659 31.8531 11.9695C31.8416 11.5059 31.6816 11.052 31.3893 10.651C31.3565 10.6059 31.3787 10.5425 31.4384 10.5156C31.4717 10.5006 31.5102 10.5003 31.5407 10.5147L32.4637 10.9531C32.5535 10.9957 32.5786 11.0953 32.5199 11.1754C32.4611 11.2556 32.4863 11.3552 32.576 11.3978L32.9601 11.5802C33.262 11.7236 33.6669 11.6213 33.8645 11.3517L34.4514 10.5509C34.5173 10.461 34.4891 10.3494 34.3884 10.3017L34.3688 10.2923C34.279 10.2497 34.2538 10.1501 34.3126 10.07C34.3714 9.98978 34.4918 9.95936 34.5816 10.002L35.3497 10.3668Z" fill="url(#paint0_linear_11141_18880)"/>
<path d="M14.1165 39.9998C13.5642 39.9998 13.1165 39.5521 13.1165 38.9998V33.811C13.1165 33.1323 12.4521 32.6499 11.7828 32.7627C11.2511 32.8523 10.7021 32.8985 10.1359 32.8985C5.16821 32.8985 1.19409 29.3479 1.19409 24.9095C1.19409 22.9143 1.97216 21.0998 3.3355 19.6998C3.65154 19.3752 3.75393 18.8929 3.60215 18.4661C3.33019 17.7013 3.18115 16.8825 3.18115 16.0329C3.18115 11.5946 7.15527 8.04395 12.1229 8.04395C15.031 8.04395 17.6243 9.29397 19.263 11.2077C19.4665 11.4453 19.7583 11.5946 20.0712 11.5946C21.5064 11.5946 22.9275 11.8472 24.2535 12.3379C25.5794 12.8286 26.7842 13.5478 27.799 14.4545C28.8139 15.3612 29.6189 16.4376 30.1681 17.6223C30.7173 18.8069 31 20.0766 31 21.3589C31 22.6412 30.7173 23.9109 30.1681 25.0955C29.6189 26.2802 28.8139 27.3566 27.799 28.2633C26.7842 29.17 25.5794 29.8892 24.2535 30.3799C22.9275 30.8706 21.5064 31.1232 20.0712 31.1232C19.4964 31.1232 18.9216 31.0816 18.3468 30.9984C17.7028 30.9052 17.0906 31.3807 17.0906 32.0313V38.9998C17.0906 39.5521 16.6429 39.9998 16.0906 39.9998H14.1165Z" fill="url(#paint1_linear_11141_18880)"/>
<path d="M11.6503 14.3941C11.9144 14.263 12.1355 14.0667 12.2898 13.8264C12.4441 13.5861 12.5257 13.3109 12.526 13.0302C12.526 12.9791 12.5044 12.93 12.4659 12.8939C12.4274 12.8577 12.3752 12.8374 12.3207 12.8374H12.1155C11.822 12.8375 11.5339 12.9115 11.2812 13.0516C11.0285 13.1918 10.8204 13.393 10.6785 13.6343C10.5367 13.393 10.3285 13.1918 10.0758 13.0516C9.82314 12.9115 9.53507 12.8375 9.24161 12.8374H9.03633C8.98189 12.8374 8.92968 12.8577 8.89118 12.8939C8.85269 12.93 8.83106 12.9791 8.83106 13.0302C8.83106 13.0814 8.85269 13.1304 8.89118 13.1666C8.92968 13.2028 8.98189 13.2231 9.03633 13.2231H9.24161C9.53445 13.2235 9.81759 13.3217 10.0404 13.5002C10.2632 13.6787 10.4112 13.9258 10.4579 14.1974C9.91451 14.2473 9.40882 14.4805 9.03442 14.8538C8.66002 15.2271 8.44225 15.7151 8.42144 16.2276C8.40063 16.7401 8.57818 17.2423 8.92123 17.6413C9.26427 18.0403 9.74957 18.309 10.2873 18.3977C10.825 18.4864 11.3787 18.3891 11.846 18.1238C12.3132 17.8585 12.6622 17.4431 12.8285 16.9546C12.9948 16.4661 12.9671 15.9376 12.7505 15.4668C12.5338 14.996 12.143 14.6149 11.6503 14.3941ZM12.0983 13.2231C12.0498 13.4898 11.9036 13.7322 11.685 13.9083C11.4663 14.0844 11.189 14.1831 10.901 14.1873C10.9494 13.9205 11.0956 13.6781 11.3143 13.5021C11.5329 13.326 11.8103 13.2273 12.0983 13.2231ZM12.1126 16.5331C12.0598 16.8127 11.9169 17.0702 11.7032 17.271C11.4895 17.4718 11.2153 17.606 10.9177 17.6556C10.9065 17.6574 10.8952 17.6582 10.8838 17.6583C10.8323 17.6582 10.7828 17.64 10.7449 17.6072C10.7071 17.5744 10.6838 17.5295 10.6795 17.4813C10.6753 17.4331 10.6905 17.3852 10.7221 17.347C10.7537 17.3089 10.7994 17.2833 10.8502 17.2753C11.0638 17.2396 11.2606 17.1432 11.414 16.9991C11.5674 16.855 11.67 16.6701 11.708 16.4695C11.7174 16.4194 11.7475 16.3749 11.7917 16.3455C11.8359 16.3162 11.8906 16.3045 11.944 16.3129C11.9974 16.3212 12.0451 16.3491 12.0767 16.3903C12.1083 16.4316 12.1213 16.4829 12.1129 16.5331H12.1126Z" fill="url(#paint2_linear_11141_18880)"/>
<path d="M24.038 22.6052C24.355 22.4554 24.6203 22.2311 24.8055 21.9565C24.9906 21.6818 25.0886 21.3673 25.0889 21.0466C25.0889 20.9881 25.063 20.9321 25.0168 20.8907C24.9706 20.8494 24.9079 20.8262 24.8426 20.8262H24.5963C24.2441 20.8263 23.8985 20.9108 23.5952 21.071C23.292 21.2312 23.0422 21.4611 22.872 21.7369C22.7017 21.4611 22.452 21.2312 22.1488 21.071C21.8455 20.9108 21.4998 20.8263 21.1477 20.8262H20.9013C20.836 20.8262 20.7734 20.8494 20.7272 20.8907C20.681 20.9321 20.655 20.9881 20.655 21.0466C20.655 21.105 20.681 21.1611 20.7272 21.2024C20.7734 21.2437 20.836 21.2669 20.9013 21.2669H21.1477C21.4991 21.2674 21.8389 21.3796 22.1062 21.5836C22.3736 21.7876 22.5512 22.0701 22.6072 22.3804C21.9551 22.4375 21.3483 22.704 20.899 23.1306C20.4498 23.5572 20.1884 24.115 20.1635 24.7007C20.1385 25.2864 20.3516 25.8604 20.7632 26.3164C21.1749 26.7723 21.7572 27.0794 22.4025 27.1808C23.0478 27.2822 23.7122 27.171 24.2729 26.8677C24.8336 26.5645 25.2524 26.0898 25.452 25.5315C25.6515 24.9733 25.6183 24.3692 25.3583 23.8312C25.0983 23.2932 24.6293 22.8576 24.038 22.6052ZM24.5757 21.2669C24.5176 21.5717 24.3421 21.8488 24.0797 22.05C23.8173 22.2513 23.4845 22.3641 23.1389 22.3689C23.197 22.064 23.3725 21.787 23.6349 21.5858C23.8973 21.3845 24.2301 21.2717 24.5757 21.2669ZM24.5929 25.0498C24.5295 25.3693 24.358 25.6637 24.1016 25.8931C23.8451 26.1226 23.5161 26.276 23.159 26.3327C23.1455 26.3347 23.1319 26.3357 23.1183 26.3358C23.0565 26.3357 22.9971 26.3148 22.9517 26.2774C22.9063 26.2399 22.8783 26.1886 22.8732 26.1335C22.8681 26.0784 22.8863 26.0236 22.9243 25.98C22.9622 25.9364 23.0171 25.9072 23.078 25.898C23.3343 25.8573 23.5705 25.7471 23.7546 25.5824C23.9386 25.4177 24.0618 25.2064 24.1073 24.9771C24.1186 24.9199 24.1547 24.869 24.2078 24.8355C24.2608 24.802 24.3265 24.7885 24.3905 24.7981C24.4546 24.8077 24.5118 24.8395 24.5498 24.8867C24.5877 24.9338 24.603 24.9924 24.5929 25.0498Z" fill="url(#paint3_linear_11141_18880)"/>
<path d="M8.0374 31.1709C8.30152 31.0398 8.52261 30.8436 8.67691 30.6033C8.83121 30.363 8.91288 30.0877 8.91315 29.8071C8.91315 29.756 8.89152 29.7069 8.85303 29.6707C8.81453 29.6346 8.76232 29.6143 8.70788 29.6143H8.5026C8.20914 29.6144 7.92108 29.6883 7.66837 29.8285C7.41566 29.9686 7.20755 30.1698 7.06568 30.4112C6.92381 30.1698 6.7157 29.9686 6.46299 29.8285C6.21028 29.6883 5.92221 29.6144 5.62875 29.6143H5.42348C5.36904 29.6143 5.31683 29.6346 5.27833 29.6707C5.23983 29.7069 5.21821 29.756 5.21821 29.8071C5.21821 29.8582 5.23983 29.9073 5.27833 29.9434C5.31683 29.9796 5.36904 29.9999 5.42348 29.9999H5.62875C5.92159 30.0003 6.20474 30.0985 6.42756 30.277C6.65039 30.4555 6.79835 30.7027 6.84501 30.9742C6.30165 31.0242 5.79597 31.2574 5.42157 31.6307C5.04716 32.0039 4.8294 32.492 4.80859 33.0045C4.78778 33.517 4.96533 34.0192 5.30837 34.4182C5.65142 34.8172 6.13672 35.0859 6.67444 35.1746C7.21217 35.2633 7.76589 35.1659 8.23311 34.9006C8.70032 34.6353 9.04939 34.22 9.21569 33.7315C9.38199 33.243 9.35425 32.7144 9.13762 32.2436C8.92099 31.7729 8.53013 31.3918 8.0374 31.1709ZM8.48541 29.9999C8.43699 30.2666 8.29079 30.509 8.07213 30.6851C7.85347 30.8612 7.57612 30.9599 7.28814 30.9641C7.33656 30.6974 7.48276 30.455 7.70143 30.2789C7.92009 30.1028 8.19743 30.0041 8.48541 29.9999ZM8.49978 33.31C8.44697 33.5895 8.30405 33.8471 8.09033 34.0479C7.87661 34.2486 7.60242 34.3829 7.30482 34.4325C7.29362 34.4342 7.2823 34.4351 7.27095 34.4352C7.21948 34.4351 7.16992 34.4168 7.13209 34.3841C7.09425 34.3513 7.07091 34.3063 7.06668 34.2582C7.06245 34.21 7.07765 34.1621 7.10926 34.1239C7.14086 34.0857 7.18658 34.0601 7.23734 34.0521C7.45094 34.0165 7.64775 33.9201 7.80116 33.776C7.95456 33.6319 8.05718 33.447 8.09513 33.2463C8.10455 33.1963 8.13464 33.1517 8.17883 33.1224C8.22303 33.0931 8.27777 33.0813 8.33114 33.0897C8.38451 33.0981 8.4322 33.1259 8.46383 33.1672C8.49546 33.2084 8.50821 33.2597 8.49978 33.31Z" fill="url(#paint4_linear_11141_18880)"/>
<path d="M32.7089 7.42159C32.8126 7.72377 32.6467 8.05201 32.3384 8.15471C32.0301 8.25741 31.6962 8.09569 31.5926 7.79351C31.5852 7.77206 31.5614 7.76056 31.5395 7.76785C31.2313 7.87055 30.8973 7.70883 30.7937 7.40665C30.6901 7.10448 30.856 6.77624 31.1642 6.67354C31.8017 6.46113 32.4946 6.79674 32.7089 7.42159Z" fill="#FDE047"/>
<path d="M35.1047 6.62472C35.2083 6.92689 35.0424 7.25514 34.7342 7.35783C34.4259 7.46053 34.092 7.29881 33.9884 6.99664C33.5377 5.68258 32.0804 4.97682 30.7399 5.42342C30.4316 5.52612 30.0977 5.3644 29.9941 5.06222C29.8904 4.76005 30.0563 4.4318 30.3646 4.3291C32.3207 3.67742 34.4471 4.70722 35.1047 6.62472Z" fill="#FDE047"/>
<path d="M37.5005 5.82833C37.6041 6.13051 37.4382 6.45875 37.1299 6.56145C36.8217 6.66415 36.4877 6.50243 36.3841 6.20025C35.4901 3.59351 32.5994 2.19356 29.9402 3.07949C29.6319 3.18219 29.298 3.02047 29.1944 2.71829C29.0907 2.41612 29.2566 2.08787 29.5649 1.98517C32.8396 0.894162 36.3995 2.61819 37.5005 5.82833Z" fill="#FDE047"/>
<path d="M30.7934 7.40695C30.6897 7.1047 30.8557 6.77637 31.164 6.67364C31.4828 6.56743 31.8155 6.59823 32.0953 6.73371L31.5714 7.77026C31.5618 7.76561 31.5504 7.76458 31.5394 7.76823C31.2311 7.87096 30.897 7.7092 30.7934 7.40695Z" fill="#FACC15"/>
<path d="M29.9935 5.0648C29.8898 4.76243 30.0558 4.43396 30.3643 4.33118C31.343 4.0051 32.3643 4.09968 33.2232 4.51561L32.699 5.55261C32.1105 5.26756 31.4105 5.20276 30.7398 5.42623C30.4314 5.52901 30.0972 5.36718 29.9935 5.0648Z" fill="#FACC15"/>
<path d="M29.9398 3.08417C29.6313 3.18696 29.2972 3.02511 29.1935 2.72268C29.0897 2.42025 29.2558 2.09173 29.5643 1.98894C31.2029 1.44294 32.9129 1.60129 34.351 2.29771L33.8268 3.33488C32.659 2.76936 31.2705 2.6408 29.9398 3.08417Z" fill="#FACC15"/>
<defs>
<linearGradient id="paint0_linear_11141_18880" x1="35.0434" y1="9.63617" x2="27.7132" y2="5.03986" gradientUnits="userSpaceOnUse">
<stop offset="0.4849" stop-color="#010132"/>
<stop offset="0.485" stop-color="#444956"/>
</linearGradient>
<linearGradient id="paint1_linear_11141_18880" x1="1.19409" y1="24.0219" x2="31" y2="24.0219" gradientUnits="userSpaceOnUse">
<stop offset="0.463632" stop-color="#568A73"/>
<stop offset="0.47072" stop-color="#347357"/>
</linearGradient>
<linearGradient id="paint2_linear_11141_18880" x1="12.9358" y1="15.6335" x2="8.4198" y2="15.6335" gradientUnits="userSpaceOnUse">
<stop offset="0.485951" stop-color="#FACC15"/>
<stop offset="0.51" stop-color="#FDE047"/>
</linearGradient>
<linearGradient id="paint3_linear_11141_18880" x1="25.5808" y1="24.0218" x2="20.1615" y2="24.0218" gradientUnits="userSpaceOnUse">
<stop offset="0.485951" stop-color="#FACC15"/>
<stop offset="0.51" stop-color="#FDE047"/>
</linearGradient>
<linearGradient id="paint4_linear_11141_18880" x1="9.32299" y1="32.4104" x2="4.80695" y2="32.4104" gradientUnits="userSpaceOnUse">
<stop offset="0.485951" stop-color="#FACC15"/>
<stop offset="0.51" stop-color="#FDE047"/>
</linearGradient>
</defs>
</svg>
