<svg width="41" height="40" viewBox="0 0 41 40" fill="none" xmlns="http://www.w3.org/2000/svg">
<path d="M39.3832 35.8037H33.4373C33.0966 35.8037 32.8205 36.0792 32.8205 36.419V37.7372C32.8205 38.985 33.8381 40.0002 35.0889 40.0002H37.7315C38.9824 40.0002 40 38.985 40 37.7372V36.419C40 36.0792 39.7238 35.8037 39.3832 35.8037Z" fill="#568A73"/>
<path d="M36.0113 40.0002H37.4795C38.8693 40.0002 39.9999 38.985 39.9999 37.7372V36.419C39.9999 36.0792 39.6931 35.8037 39.3146 35.8037H36.0113V40.0002Z" fill="#347357"/>
<path d="M34.4159 34.9642C34.4159 35.5253 34.6472 36.0528 35.0672 36.4495L35.9827 37.3148C36.2188 37.5378 36.6016 37.5378 36.8376 37.3148L37.7534 36.4493C38.1732 36.0528 38.4045 35.5253 38.4045 34.9642C38.4045 34.403 38.1732 33.8755 37.7534 33.4791L36.8376 32.6136C36.6016 32.3905 36.2188 32.3905 35.9827 32.6136L35.0672 33.4788C34.6472 33.8755 34.4159 34.403 34.4159 34.9642Z" fill="#347357"/>
<path d="M36.5242 37.3148L37.6232 36.4493C38.1269 36.0528 38.4045 35.5253 38.4045 34.9642C38.4045 34.403 38.1269 33.8755 37.6232 33.4791L36.5242 32.6136C36.3826 32.502 36.1969 32.4463 36.0113 32.4463V37.4821C36.1969 37.4821 36.3826 37.4263 36.5242 37.3148Z" fill="#2B6049"/>
<path d="M30.538 12.7119C30.0968 13.1709 30.0925 13.9191 30.5285 14.383C30.9645 14.8469 31.6756 14.8509 32.1168 14.392C32.1481 14.3594 32.1988 14.3597 32.2298 14.3927C32.6657 14.8566 33.3769 14.8606 33.8181 14.4016C34.2593 13.9427 34.2635 13.1945 33.8275 12.7305C32.926 11.7712 31.4503 11.7628 30.538 12.7119Z" fill="#FDE047"/>
<path d="M27.1545 9.11278C26.7133 9.57175 26.709 10.32 27.145 10.7839C27.581 11.2478 28.2922 11.2518 28.7333 10.7929C30.6519 8.79697 33.7554 8.8145 35.6513 10.8319C36.0873 11.2959 36.7984 11.2999 37.2396 10.8409C37.6808 10.3819 37.685 9.63372 37.2491 9.1698C34.4825 6.22592 29.9541 6.20034 27.1545 9.11278Z" fill="#FDE047"/>
<path d="M23.7709 5.51366C23.3297 5.97263 23.3255 6.72084 23.7615 7.18476C24.1975 7.64869 24.9086 7.6527 25.3498 7.19373C29.1558 3.23443 35.3119 3.2692 39.0729 7.27124C39.5088 7.73517 40.22 7.73919 40.6612 7.28022C41.1024 6.82125 41.1066 6.07304 40.6706 5.60911C36.039 0.680671 28.4579 0.637852 23.7709 5.51366Z" fill="#FDE047"/>
<path d="M33.8173 14.402C34.2585 13.943 34.2627 13.1948 33.8267 12.7309C33.3759 12.2512 32.7816 12.0093 32.1859 12.0059L32.1726 14.3681C32.193 14.3682 32.2134 14.3766 32.2289 14.3931C32.6649 14.857 33.3761 14.861 33.8173 14.402Z" fill="#FACC15"/>
<path d="M37.2392 10.8423C37.6804 10.3833 37.6846 9.635 37.2486 9.17105C35.8653 7.69903 34.0413 6.95659 32.2134 6.94627L32.2 9.3086C33.4528 9.31568 34.7027 9.82451 35.6508 10.8333C36.0868 11.2973 36.798 11.3013 37.2392 10.8423Z" fill="#FACC15"/>
<path d="M39.0724 7.27317C39.5084 7.73714 40.2196 7.74115 40.6609 7.28214C41.1021 6.82313 41.1063 6.07486 40.6703 5.61089C38.3543 3.14646 35.3009 1.90353 32.2405 1.88619L32.2271 4.24856C34.7123 4.26265 37.1917 5.27197 39.0724 7.27317Z" fill="#FACC15"/>
<path d="M22.0334 15.4546H7.77649L8.20852 20.9091L15.121 23.1819L22.0334 19.5455V15.4546Z" fill="url(#paint0_linear_11141_15773)"/>
<ellipse cx="31.538" cy="28.6366" rx="1.29608" ry="1.36364" fill="#DFE7F4"/>
<path d="M5.2568 21.9251V32.7161C5.2568 33.7109 6.03984 34.5146 7.00906 34.5146H8.76133C9.73055 34.5146 10.5136 33.7109 10.5136 32.7161V27.759C11.0557 28.1299 11.6416 28.4334 12.2659 28.6639V30.024C12.2659 30.5186 12.6601 30.9232 13.142 30.9232C13.6239 30.9232 14.0181 30.5186 14.0181 30.024V29.0742C14.3083 29.1079 14.5986 29.1247 14.8943 29.1247C15.19 29.1247 15.4802 29.1079 15.7704 29.0742V30.024C15.7704 30.5186 16.1646 30.9232 16.6465 30.9232C17.1284 30.9232 17.5227 30.5186 17.5227 30.024V28.6639C18.1469 28.4391 18.7328 28.1356 19.2749 27.759V32.7161C19.2749 33.7109 20.058 34.5146 21.0272 34.5146H22.7794C23.7487 34.5146 24.5317 33.7109 24.5317 32.7161V23.7236L26.284 25.5221V28.3042C26.284 28.8381 26.4373 29.3552 26.7275 29.7992L29.0219 33.3344C29.5038 34.0706 30.3087 34.5146 31.1739 34.5146C32.406 34.5146 33.4683 33.621 33.7092 32.3789L34.8208 26.6687C34.9632 25.938 34.8044 25.1793 34.3827 24.5723L34.1692 24.2632V19.677C34.1692 18.9295 33.5833 18.3281 32.855 18.3281C32.1267 18.3281 31.5408 18.9295 31.5408 19.677V20.4863L28.6441 16.3217C27.1601 14.1972 24.7727 12.9326 22.2264 12.9326H7.88519C4.25472 12.9326 1.3142 15.9507 1.3142 19.677V22.712C0.514728 23.3752 0 24.3868 0 25.5221V26.5113C0 26.9609 0.350453 27.3206 0.788519 27.3206C2.52983 27.3206 3.9426 25.8706 3.9426 24.0833V19.677C3.9426 18.3113 4.60517 17.1029 5.61272 16.3666C5.38274 16.9736 5.2568 17.6368 5.2568 18.3281V21.9251ZM30.6646 28.2199C30.6646 27.9814 30.7569 27.7526 30.9213 27.584C31.0856 27.4154 31.3084 27.3206 31.5408 27.3206C31.7731 27.3206 31.996 27.4154 32.1603 27.584C32.3246 27.7526 32.4169 27.9814 32.4169 28.2199C32.4169 28.4584 32.3246 28.6871 32.1603 28.8557C31.996 29.0244 31.7731 29.1191 31.5408 29.1191C31.3084 29.1191 31.0856 29.0244 30.9213 28.8557C30.7569 28.6871 30.6646 28.4584 30.6646 28.2199ZM9.12273 18.6991C8.89275 18.463 8.76133 18.137 8.76133 17.7998C8.76133 17.0973 9.31439 16.5296 9.99886 16.5296H19.7842C20.4686 16.5296 21.0217 17.0973 21.0217 17.7998C21.0217 18.137 20.8903 18.463 20.6603 18.6991L19.379 20.0142C18.1907 21.2394 16.5753 21.9251 14.8943 21.9251C13.2132 21.9251 11.5978 21.2394 10.4096 20.0198L9.12821 18.7047L9.12273 18.6991Z" fill="url(#paint1_linear_11141_15773)"/>
<defs>
<linearGradient id="paint0_linear_11141_15773" x1="8.64054" y1="19.091" x2="21.6014" y2="19.091" gradientUnits="userSpaceOnUse">
<stop offset="0.505" stop-color="#F0F7FF"/>
<stop offset="0.5051" stop-color="#DFE7F4"/>
</linearGradient>
<linearGradient id="paint1_linear_11141_15773" x1="33.8462" y1="24.3529" x2="-0.000752227" y2="23.8654" gradientUnits="userSpaceOnUse">
<stop offset="0.5549" stop-color="#000032"/>
<stop offset="0.555" stop-color="#444956"/>
</linearGradient>
</defs>
</svg>
