<svg width="56" height="56" viewBox="0 0 56 56" fill="none" xmlns="http://www.w3.org/2000/svg">
<path d="M34.314 10.0636H21.686C20.1594 10.063 18.6477 10.3632 17.2372 10.947C15.8268 11.5308 14.5451 12.3869 13.4656 13.4662C12.386 14.5455 11.5297 15.827 10.9456 17.2374C10.3615 18.6477 10.061 20.1594 10.0613 21.6859V34.3139C10.0607 35.8407 10.361 37.3526 10.945 38.7632C11.5289 40.1739 12.3852 41.4556 13.4648 42.5352C14.5443 43.6148 15.8261 44.471 17.2367 45.055C18.6474 45.639 20.1593 45.9392 21.686 45.9386H34.314C35.8407 45.9392 37.3526 45.639 38.7633 45.055C40.1739 44.471 41.4557 43.6148 42.5352 42.5352C43.6148 41.4556 44.4711 40.1739 45.055 38.7632C45.639 37.3526 45.9393 35.8407 45.9387 34.3139V21.6859C45.9393 20.1592 45.639 18.6473 45.055 17.2367C44.4711 15.826 43.6148 14.5443 42.5352 13.4647C41.4557 12.3851 40.1739 11.5289 38.7633 10.9449C37.3526 10.3609 35.8407 10.0607 34.314 10.0613V10.0636Z" stroke="#347357" stroke-width="2"/>
<path d="M45.7473 36.372H49.525C50.1593 36.372 50.7676 36.1201 51.2162 35.6715C51.6647 35.223 51.9167 34.6147 51.9167 33.9804V22.022C51.9167 21.3877 51.6647 20.7794 51.2162 20.3309C50.7676 19.8823 50.1593 19.6304 49.525 19.6304H45.745M10.255 36.372H6.475C6.16092 36.372 5.84992 36.3102 5.55975 36.19C5.26958 36.0698 5.00592 35.8936 4.78383 35.6715C4.56175 35.4494 4.38558 35.1858 4.26539 34.8956C4.14519 34.6055 4.08333 34.2944 4.08333 33.9804V22.022C4.08333 21.3877 4.33531 20.7794 4.78383 20.3309C5.23236 19.8823 5.84069 19.6304 6.475 19.6304H10.255" stroke="#347357" stroke-width="2"/>
<path d="M6.45167 19.6304V10.0637M49.525 19.6304L49.5017 10.0637" stroke="#347357" stroke-width="2" stroke-linecap="round" stroke-linejoin="round"/>
<path d="M31.5163 17.9758H24.4837C22.7575 17.9764 21.1023 18.6626 19.8819 19.8834C18.6616 21.1042 17.976 22.7597 17.976 24.4858V31.5162C17.9766 33.2423 18.6628 34.8976 19.8836 36.1179C21.1044 37.3383 22.7598 38.0238 24.486 38.0238H31.5163C33.2425 38.0232 34.8977 37.3371 36.1181 36.1163C37.3384 34.8955 38.024 33.24 38.024 31.5138V24.4835C38.0234 22.7573 37.3372 21.1021 36.1164 19.8817C34.8956 18.6614 33.2402 17.9758 31.514 17.9758H31.5163Z" stroke="#347357" stroke-width="2"/>
<path d="M25.2496 24.5376C25.2756 23.935 25.524 23.3661 25.9433 22.9493C26.3625 22.5325 26.9201 22.2999 27.5 22.3C28.0968 22.3 28.6691 22.5465 29.091 22.9854C29.513 23.4242 29.75 24.0194 29.75 24.64C29.75 25.3035 29.601 25.6904 29.412 25.9738C29.228 26.2494 28.994 26.4548 28.6765 26.7325L28.5335 26.8578C28.161 27.1864 27.7265 27.5962 27.3995 28.2244C27.07 28.8572 26.875 29.6596 26.875 30.75C26.875 30.9224 26.9409 31.0877 27.0581 31.2096C27.1753 31.3315 27.3343 31.4 27.5 31.4C27.6658 31.4 27.8248 31.3315 27.942 31.2096C28.0592 31.0877 28.125 30.9224 28.125 30.75C28.125 29.8254 28.289 29.2462 28.499 28.8432C28.711 28.436 28.9955 28.1547 29.3415 27.85L29.471 27.7371C29.779 27.4693 30.1525 27.1448 30.4395 26.7148C30.7895 26.1896 31 25.5365 31 24.64C31 23.6746 30.6313 22.7488 29.9749 22.0661C29.3185 21.3835 28.4283 21 27.5 21C26.5979 20.9999 25.7305 21.3618 25.0786 22.0104C24.4267 22.6589 24.0405 23.5441 24.0006 24.4814C23.9934 24.6537 24.0524 24.8218 24.1644 24.9489C24.2765 25.0759 24.4325 25.1515 24.5981 25.159C24.7637 25.1664 24.9254 25.1051 25.0476 24.9886C25.1697 24.8721 25.2424 24.7098 25.2496 24.5376ZM27.5 34C27.699 34 27.8897 33.9178 28.0304 33.7715C28.171 33.6253 28.25 33.4269 28.25 33.22C28.25 33.0131 28.171 32.8147 28.0304 32.6685C27.8897 32.5222 27.699 32.44 27.5 32.44C27.3011 32.44 27.1104 32.5222 26.9697 32.6685C26.8291 32.8147 26.7501 33.0131 26.7501 33.22C26.7501 33.4269 26.8291 33.6253 26.9697 33.7715C27.1104 33.9178 27.3011 34 27.5 34Z" fill="#347357"/>
</svg>
