<svg width="56" height="56" viewBox="0 0 56 56" fill="none" xmlns="http://www.w3.org/2000/svg">
<path d="M34.314 10.0636H21.686C20.1594 10.063 18.6477 10.3632 17.2372 10.947C15.8268 11.5308 14.5451 12.3869 13.4656 13.4662C12.386 14.5455 11.5297 15.827 10.9456 17.2374C10.3615 18.6477 10.061 20.1594 10.0613 21.6859V34.3139C10.0607 35.8407 10.361 37.3526 10.945 38.7632C11.5289 40.1739 12.3852 41.4556 13.4648 42.5352C14.5443 43.6148 15.8261 44.471 17.2367 45.055C18.6474 45.639 20.1593 45.9392 21.686 45.9386H34.314C35.8407 45.9392 37.3526 45.639 38.7633 45.055C40.1739 44.471 41.4557 43.6148 42.5352 42.5352C43.6148 41.4556 44.4711 40.1739 45.055 38.7632C45.639 37.3526 45.9393 35.8407 45.9387 34.3139V21.6859C45.9393 20.1592 45.639 18.6473 45.055 17.2367C44.4711 15.826 43.6148 14.5443 42.5352 13.4647C41.4557 12.3851 40.1739 11.5289 38.7633 10.9449C37.3526 10.3609 35.8407 10.0607 34.314 10.0613V10.0636Z" stroke="#347357" stroke-width="2"/>
<path d="M45.7473 36.372H49.525C50.1593 36.372 50.7676 36.1201 51.2162 35.6715C51.6647 35.223 51.9167 34.6147 51.9167 33.9804V22.022C51.9167 21.3877 51.6647 20.7794 51.2162 20.3309C50.7676 19.8823 50.1593 19.6304 49.525 19.6304H45.745M10.255 36.372H6.475C6.16092 36.372 5.84992 36.3102 5.55975 36.19C5.26958 36.0698 5.00592 35.8936 4.78383 35.6715C4.56175 35.4494 4.38558 35.1858 4.26539 34.8956C4.14519 34.6055 4.08333 34.2944 4.08333 33.9804V22.022C4.08333 21.3877 4.33531 20.7794 4.78383 20.3309C5.23236 19.8823 5.84069 19.6304 6.475 19.6304H10.255" stroke="#347357" stroke-width="2"/>
<path d="M6.45167 19.6304V10.0637M49.525 19.6304L49.5017 10.0637M23.2167 35.5531C24.4886 36.8155 26.2079 37.5239 28 37.5239C29.7921 37.5239 31.5114 36.8155 32.7833 35.5531M18.3867 25.6084L20.7737 23.2167L23.1653 25.6084M32.7367 25.6084L35.1283 23.2167L37.5177 25.6084" stroke="#347357" stroke-width="2" stroke-linecap="round" stroke-linejoin="round"/>
</svg>
