<svg width="14" height="14" viewBox="0 0 14 14" fill="none" xmlns="http://www.w3.org/2000/svg">
<path d="M2.2752 2.80005C1.40535 2.80005 0.700195 3.5052 0.700195 4.37505V9.62505C0.700195 10.4949 1.40535 11.2 2.2752 11.2H7.5252C8.39504 11.2 9.1002 10.4949 9.1002 9.62505V4.37505C9.1002 3.5052 8.39504 2.80005 7.5252 2.80005H2.2752Z" fill="#347357"/>
<path d="M13.3002 3.32506C13.3002 3.11272 13.1723 2.92129 12.9761 2.84003C12.7799 2.75877 12.5541 2.80368 12.404 2.95383L10.304 5.05383C10.2055 5.15229 10.1502 5.28583 10.1502 5.42506V8.57506C10.1502 8.7143 10.2055 8.84784 10.304 8.94629L12.404 11.0463C12.5541 11.1964 12.7799 11.2414 12.9761 11.1601C13.1723 11.0788 13.3002 10.8874 13.3002 10.6751V3.32506Z" fill="#347357"/>
</svg>
