<svg width="38" height="38" viewBox="0 0 38 38" fill="none" xmlns="http://www.w3.org/2000/svg">
<g clip-path="url(#clip0_12813_20491)">
<path d="M18.9156 36.0897C28.2827 36.0897 35.8762 28.4962 35.8762 19.1291C35.8762 9.76207 28.2827 2.16858 18.9156 2.16858C9.54857 2.16858 1.95508 9.76207 1.95508 19.1291C1.95508 28.4962 9.54857 36.0897 18.9156 36.0897Z" fill="#E5E4DF"/>
<path d="M28.5457 19.1291C28.5457 24.4467 24.2349 28.7575 18.9173 28.7575C13.5996 28.7575 9.38847 24.4458 9.28887 19.1291C9.19001 13.8519 13.2611 9.63921 18.9173 9.50072C24.2333 9.37047 28.5457 13.8115 28.5457 19.1291Z" fill="#E5E4DF"/>
<path d="M18.9163 37.5453C8.76151 37.5453 0.5 29.2838 0.5 19.1291C0.5 8.97416 8.76151 0.712646 18.9163 0.712646C29.071 0.712646 37.3325 8.97416 37.3325 19.1291C37.3325 29.2838 29.071 37.5453 18.9163 37.5453ZM18.9163 4.19492C10.6816 4.19492 3.9822 10.8943 3.9822 19.1291C3.9822 27.3638 10.6816 34.0631 18.9163 34.0631C27.151 34.0631 33.8503 27.3638 33.8503 19.1291C33.8503 10.8943 27.1509 4.19492 18.9163 4.19492Z" fill="#FF473E"/>
<path d="M18.916 30.2132C12.8168 30.2132 7.9483 25.3564 7.83215 19.1563C7.71644 12.979 12.4662 8.20231 18.8804 8.04527C24.9825 7.8923 30.0003 12.9267 30.0003 19.129C30.0003 25.2409 25.028 30.2132 18.916 30.2132ZM19.1207 11.7811C19.0635 11.7811 19.0056 11.7819 18.948 11.7832C14.6659 11.888 11.4942 15.0354 11.5705 19.1045C11.6478 23.237 14.8745 26.4742 18.9159 26.4742C22.9662 26.4742 26.2613 23.1791 26.2613 19.1289C26.2613 15.0773 23.058 11.7811 19.1207 11.7811Z" fill="#FF473E"/>
<path d="M18.916 22.1427C20.5804 22.1427 21.9296 20.7934 21.9296 19.129C21.9296 17.4646 20.5804 16.1154 18.916 16.1154C17.2516 16.1154 15.9023 17.4646 15.9023 19.129C15.9023 20.7934 17.2516 22.1427 18.916 22.1427Z" fill="#FF473E"/>
<path d="M21.5767 17.1533L20.7648 16.3413L18.4919 18.6141L18.4923 18.6146C18.4891 18.6176 18.4857 18.6202 18.4826 18.6233C18.2584 18.8475 18.2584 19.2111 18.4826 19.4353C18.7068 19.6595 19.0704 19.6595 19.2946 19.4353C19.2977 19.4321 19.3003 19.4287 19.3033 19.4255L19.3038 19.426L21.5767 17.1533Z" fill="#2B3B47"/>
<path d="M32.4804 5.47465C35.2991 -0.638679 29.9224 -2.90806 29.0142 7.31935L21.134 14.3395C21.0797 14.3824 21.0267 14.4278 20.9765 14.4779C20.9735 14.4809 20.9709 14.4844 20.9678 14.4875L20.9618 14.4928L20.9624 14.4934C20.2868 15.1851 20.2909 16.2929 20.9764 16.9784C21.662 17.664 22.7699 17.668 23.4615 16.9924L23.4621 16.993L23.4674 16.9871C23.4705 16.984 23.4739 16.9815 23.4769 16.9784C23.5271 16.9282 23.5725 16.8752 23.6154 16.8209L30.6356 8.94073C40.8631 8.03267 38.5937 2.65597 32.4804 5.47465Z" fill="#0074A8"/>
</g>
<defs>
<clipPath id="clip0_12813_20491">
<rect width="38" height="38" fill="white"/>
</clipPath>
</defs>
</svg>
