<svg width="360" height="239" viewBox="0 0 360 239" fill="none" xmlns="http://www.w3.org/2000/svg">
<g clip-path="url(#clip0_12817_23333)">
<g clip-path="url(#clip1_12817_23333)">
<rect width="620.426" height="243" transform="translate(-250 1)" fill="url(#paint0_radial_12817_23333)"/>
<path d="M190.467 1C205.03 1 217.112 11.6131 219.405 25.5264C222.388 24.0362 225.753 23.1973 229.313 23.1973C241.041 23.1975 250.643 32.2917 251.454 43.8125L251.51 43.8096V45.3223C251.51 45.3463 251.511 45.3704 251.511 45.3945C251.511 45.4183 251.51 45.4421 251.51 45.4658V67.5869H229.723C229.587 67.5894 229.45 67.5918 229.313 67.5918C229.177 67.5918 229.04 67.5894 228.904 67.5869H130.646C130.504 67.5905 130.36 67.5928 130.217 67.5928C130.073 67.5928 129.93 67.5905 129.787 67.5869H-21.875C5.7774 67.445 63.674 64.4951 104.055 53.3223C105.501 51.3968 107.804 50.1515 110.397 50.1514C111.525 50.1514 112.598 50.3889 113.569 50.8135C113.64 41.6793 121.066 34.2959 130.217 34.2959C135.054 34.2959 139.409 36.3601 142.45 39.6543C144.187 37.3624 146.939 35.8819 150.036 35.8818C150.168 35.8818 150.3 35.8863 150.431 35.8916C151.767 29.2891 156.386 23.8777 162.511 21.4326C166.279 9.5842 177.37 1.00021 190.467 1Z" fill="white" fill-opacity="0.4"/>
<path d="M370.843 11.3405H345.154V14.7291H370.843V11.3405Z" fill="#78A28F"/>
<path d="M370.843 14.3902H342.788V19.4732H370.843V14.3902Z" fill="#78A28F"/>
<path d="M339.746 34.3832H370.843V39.8051H339.746L339.746 34.3832Z" fill="#78A28F"/>
<path d="M370.843 58.7815V53.3596H339.746V58.7815H370.843Z" fill="#78A28F"/>
<path d="M370.843 79.1134V73.6915H339.746V79.1134H370.843Z" fill="#78A28F"/>
<path d="M370.843 98.0898V92.6679H339.746V98.0898H370.843Z" fill="#78A28F"/>
<path d="M344.478 34.3832H339.746V98.0898H344.478V34.3832Z" fill="#78A28F"/>
<path d="M339.746 34.3832H344.478L349.886 19.4732H345.154L339.746 34.3832Z" fill="#78A28F"/>
<path d="M344.478 98.0898H339.746L332.986 119.099H339.746L344.478 98.0898Z" fill="#78A28F"/>
<path d="M344.478 35.7387L343.126 33.7055L370.167 18.1177L371.519 20.1509L344.478 35.7387Z" fill="#78A28F"/>
<path d="M323.732 58.3072L322.17 57.0872L322.176 56.4094L343.362 34.0909L345.235 35.6548L323.732 58.3072Z" fill="#78A28F"/>
<path d="M323.74 96.8779L322.187 95.6553L322.192 94.978L343.18 72.7185L345.043 74.2853L323.74 96.8779Z" fill="#78A28F"/>
<path d="M345.83 56.0706L344.478 54.0374L371.519 38.4496L372.871 40.4828L345.83 56.0706Z" fill="#78A28F"/>
<path d="M345.83 75.7247L344.478 73.6915L371.519 58.1038L372.871 60.1369L345.83 75.7247Z" fill="#78A28F"/>
<path d="M345.83 94.7011L344.478 92.6679L371.519 77.0802L372.871 79.1134L345.83 94.7011Z" fill="#78A28F"/>
<path d="M340.422 119.099L339.07 117.066L370.843 97.412L372.195 99.4452L340.422 119.099Z" fill="#78A28F"/>
<path d="M374.223 37.0942L375.575 35.061L348.534 19.4732L347.182 21.5064L374.223 37.0942Z" fill="#78A28F"/>
<path d="M370.167 56.0706L371.519 54.0374L344.478 38.4496L343.126 40.4828L370.167 56.0706Z" fill="#78A28F"/>
<path d="M370.167 75.7247L371.519 73.6915L344.478 58.1038L343.126 60.1369L370.167 75.7247Z" fill="#78A28F"/>
<path d="M370.167 94.7011L371.519 92.6679L344.478 77.0802L343.126 79.1134L370.167 94.7011Z" fill="#78A28F"/>
<path d="M373.547 115.711L374.899 114.355L344.478 97.412L343.126 99.4452L373.547 115.711Z" fill="#78A28F"/>
<path d="M322.508 56.0706H340.422V58.7815H322.17V56.4094L322.508 56.0706Z" fill="#78A28F"/>
<path d="M322.508 94.7011H340.422V97.412H322.17V95.04L322.508 94.7011Z" fill="#78A28F"/>
<path d="M322.17 58.7815H324.874V60.8147H322.17V58.7815Z" fill="#78A28F"/>
<path d="M322.17 97.412H324.874V99.4452H322.17V97.412Z" fill="#78A28F"/>
<path d="M344.478 34.3832L349.886 19.4732H345.154L339.746 34.3832H370.843V39.8051H339.746L339.746 34.3832M339.746 34.3832H344.478M339.746 34.3832V98.0898M339.746 98.0898H370.843V92.6679H339.746V98.0898ZM339.746 98.0898H344.478M344.478 34.3832V98.0898L339.746 119.099H332.986L339.746 98.0898M322.17 58.7815H340.422V56.0706H322.508L322.17 56.4094V58.7815ZM322.17 58.7815H324.874V60.8147H322.17V58.7815ZM322.17 97.412H340.422V94.7011H322.508L322.17 95.04V97.412ZM322.17 97.412H324.874V99.4452H322.17V97.412ZM345.154 11.3405H370.843V14.7291H345.154V11.3405ZM342.788 14.3902H370.843V19.4732H342.788V14.3902ZM370.843 53.3596V58.7815H339.746V53.3596H370.843ZM370.843 73.6915V79.1134H339.746V73.6915H370.843ZM343.126 33.7055L344.478 35.7387L371.519 20.1509L370.167 18.1177L343.126 33.7055ZM322.17 57.0872L323.732 58.3072L345.235 35.6548L343.362 34.0909L322.176 56.4094L322.17 57.0872ZM322.187 95.6553L323.74 96.8779L345.043 74.2853L343.18 72.7185L322.192 94.978L322.187 95.6553ZM344.478 54.0374L345.83 56.0706L372.871 40.4828L371.519 38.4496L344.478 54.0374ZM344.478 73.6915L345.83 75.7247L372.871 60.1369L371.519 58.1038L344.478 73.6915ZM344.478 92.6679L345.83 94.7011L372.871 79.1134L371.519 77.0802L344.478 92.6679ZM339.07 117.066L340.422 119.099L372.195 99.4452L370.843 97.412L339.07 117.066ZM375.575 35.061L374.223 37.0942L347.182 21.5064L348.534 19.4732L375.575 35.061ZM371.519 54.0374L370.167 56.0706L343.126 40.4828L344.478 38.4496L371.519 54.0374ZM371.519 73.6915L370.167 75.7247L343.126 60.1369L344.478 58.1038L371.519 73.6915ZM371.519 92.6679L370.167 94.7011L343.126 79.1134L344.478 77.0802L371.519 92.6679ZM374.899 114.355L373.547 115.711L343.126 99.4452L344.478 97.412L374.899 114.355Z" stroke="#78A28F" stroke-width="1.7234"/>
<g filter="url(#filter0_d_12817_23333)">
<path d="M-81.106 221.596L-151.766 280.191H372.149V114.745H290.288L198.947 137.149L137.766 142.319L16.2663 197.468L-81.106 221.596Z" fill="#78A28F"/>
</g>
<path d="M201.814 174.338C255.057 158.185 360.004 167.593 372.148 166.195V280.191H-112.99C-55.2562 257.787 -81.969 267.266 -25.9583 248.308C30.0523 229.351 27.4672 230.213 137.765 195.745C248.063 161.276 181.712 180.436 201.814 174.338Z" fill="#BBD0C7"/>
<path d="M247.52 158.622C279.267 131.423 362.398 138.449 371.288 137.149V283.638H-52.6699C-50.6682 280.45 79.9385 237.354 119.284 229.242C158.629 221.13 157.359 189.637 198.63 183.911C239.901 178.185 233.039 171.028 247.52 158.622Z" fill="#347357"/>
<path d="M251.099 97.5106L215.318 133.291V192.298H286.88V133.291L251.099 97.5106Z" fill="#99B9AB"/>
<path d="M286.937 133.291L251.156 97.5105H334.645L370.425 133.291H286.937Z" fill="#347357"/>
<path d="M370.37 133.347H286.994L286.994 192.298H370.37L370.37 133.347Z" fill="#BBD0C7"/>
<rect x="245.305" y="150.9" width="11.9269" height="17.8904" fill="#347357"/>
<path d="M268.816 234.037C268.816 248.667 268.816 227.285 268.816 245.983C262.064 245.983 253.234 243.992 253.234 229.363C253.234 214.734 259.986 201.836 268.816 188.851C268.816 206.51 268.816 219.408 268.816 234.037Z" fill="#234D3A"/>
<path d="M268.815 234.037C268.815 248.667 268.815 227.285 268.815 245.983C275.567 245.983 284.916 243.992 284.916 229.363C284.916 214.734 277.645 201.836 268.815 188.851C268.815 206.51 268.815 219.408 268.815 234.037Z" fill="#234D3A"/>
<line x1="269.678" y1="214.82" x2="269.678" y2="264.681" stroke="#1A392B" stroke-width="1.7234"/>
<path d="M340.49 223.366C340.49 237.331 340.49 216.921 340.49 234.769C334.045 234.769 325.617 232.869 325.617 218.904C325.617 204.94 332.062 192.628 340.49 180.234C340.49 197.09 340.49 209.402 340.49 223.366Z" fill="#234D3A"/>
<path d="M340.49 223.366C340.49 237.33 340.49 216.921 340.49 234.769C346.935 234.769 355.859 232.868 355.859 218.904C355.859 204.94 348.919 192.628 340.49 180.234C340.49 197.09 340.49 209.402 340.49 223.366Z" fill="#234D3A"/>
<line x1="341.352" y1="205.023" x2="341.352" y2="252.617" stroke="#1A392B" stroke-width="1.7234"/>
<path d="M302.976 210.571C302.976 226.53 302.976 203.205 302.976 223.602C295.611 223.602 285.979 221.43 285.979 205.471C285.979 189.512 293.344 175.442 302.976 161.277C302.976 180.541 302.976 194.612 302.976 210.571Z" fill="#1A392B"/>
<path d="M302.976 210.571C302.976 226.53 302.976 203.205 302.976 223.602C310.342 223.602 320.541 221.43 320.541 205.471C320.541 189.512 312.609 175.442 302.976 161.277C302.976 180.541 302.976 194.612 302.976 210.571Z" fill="#1A392B"/>
<line x1="303.838" y1="189.607" x2="303.838" y2="244" stroke="#11261D" stroke-width="1.7234"/>
<path d="M202.237 119.378C202.237 128.132 202.237 115.338 202.237 126.526C198.197 126.526 192.914 125.335 192.914 116.581C192.914 107.828 196.954 100.11 202.237 92.3405C202.237 102.907 202.237 110.625 202.237 119.378Z" fill="#78A28F"/>
<path d="M202.237 119.378C202.237 128.132 202.237 115.338 202.237 126.526C206.277 126.526 211.871 125.335 211.871 116.581C211.871 107.828 207.52 100.11 202.237 92.3406C202.237 102.907 202.237 110.625 202.237 119.378Z" fill="#78A28F"/>
<line x1="203.098" y1="107.879" x2="203.098" y2="137.714" stroke="#78A28F" stroke-width="1.7234"/>
<path d="M179.833 126.272C179.833 135.025 179.833 122.232 179.833 133.42C175.793 133.42 170.51 132.228 170.51 123.475C170.51 114.721 174.55 107.003 179.833 99.234C179.833 109.8 179.833 117.518 179.833 126.272Z" fill="#78A28F"/>
<path d="M179.833 126.272C179.833 135.025 179.833 122.232 179.833 133.42C183.873 133.42 189.467 132.228 189.467 123.475C189.467 114.721 185.116 107.003 179.833 99.2339C179.833 109.8 179.833 117.518 179.833 126.272Z" fill="#78A28F"/>
<line x1="180.694" y1="114.773" x2="180.694" y2="144.607" stroke="#78A28F" stroke-width="1.7234"/>
<path d="M155.001 285.362C232.758 284.987 389.874 284.462 396.277 285.362C382.555 267.365 371.121 253.869 349.394 243.747C327.668 233.625 297.937 234.748 277.354 249.37C256.771 263.991 245.337 258.368 229.328 256.118C213.319 253.869 204.171 261.742 198.453 265.116C192.736 268.49 191.121 270.924 176.727 270.74C165.255 272.199 160.865 275.923 155.001 285.362Z" fill="#2B6048"/>
<path d="M150.266 87.1343L153.539 86.3235C153.4 86.9136 152.9 87.4181 152.186 87.5951C151.471 87.7722 150.742 87.5722 150.266 87.1343ZM155.457 77.7322L152.786 78.3941C152.51 78.4626 152.349 78.7122 152.427 78.9513C152.505 79.1904 152.793 79.3288 153.069 79.2603L153.904 79.0535L154.943 82.2297L154.609 82.3124L154.562 82.1681C154.38 81.6108 153.707 81.2873 153.063 81.447L147.72 82.7709C147.076 82.9306 146.7 83.5138 146.882 84.0711L146.929 84.2155L146.595 84.2982L145.556 81.122L146.391 80.9152C146.668 80.8466 146.828 80.597 146.75 80.3579C146.672 80.1188 146.384 79.9804 146.108 80.0489L143.436 80.7108C143.16 80.7794 142.999 81.029 143.077 81.2681C143.155 81.5072 143.443 81.6456 143.72 81.5771L144.555 81.3702L145.593 84.5464L145.427 84.5878C145.15 84.6563 144.989 84.906 145.067 85.145C145.146 85.3841 145.433 85.5226 145.71 85.454L147.212 85.0817L147.449 85.8036C147.55 86.1131 147.804 86.346 148.119 86.4683L147.636 87.7636C147.531 88.0451 147.568 88.3542 147.738 88.6098L149.009 90.5242C149.13 90.7071 149.378 90.7875 149.602 90.7319C149.642 90.722 149.682 90.7079 149.72 90.6891C149.969 90.5643 150.055 90.2888 149.912 90.0738L148.641 88.1588C148.617 88.1229 148.612 88.0786 148.627 88.0387L149.216 86.4581L154.023 85.2671L155.48 86.3412C155.517 86.3683 155.539 86.4079 155.54 86.4499L155.618 88.6599C155.627 88.9082 155.867 89.1033 156.155 89.0945C156.198 89.0937 156.24 89.087 156.28 89.0771C156.505 89.0215 156.666 88.8392 156.659 88.6288L156.581 86.4194C156.57 86.1235 156.416 85.8441 156.155 85.6532L154.961 84.7731C155.154 84.5247 155.23 84.2095 155.129 83.9005L154.892 83.1787L156.395 82.8063C156.672 82.7378 156.833 82.4882 156.754 82.2491C156.676 82.01 156.388 81.8716 156.112 81.9401L155.945 81.9815L154.906 78.8053L155.741 78.5984C156.017 78.5299 156.178 78.2803 156.1 78.0412C156.022 77.8021 155.734 77.6637 155.457 77.7322Z" fill="#78A28F"/>
<path d="M277.29 79.3789C276.881 79.3789 276.472 79.2424 276.199 78.8331C275.653 78.2874 275.79 77.3323 276.335 76.923C282.475 71.8749 291.207 71.8749 297.347 76.923C297.892 77.4688 298.029 78.2874 297.483 78.8331C296.937 79.3789 296.119 79.5153 295.573 78.9695C290.525 74.74 283.157 74.74 278.109 78.9695C277.973 79.3789 277.563 79.3789 277.29 79.3789Z" fill="#347357"/>
<path d="M301.303 74.6037C301.03 74.6037 300.621 74.4673 300.348 74.1944C292.571 67.3726 280.974 67.3726 273.334 74.1944C272.788 74.7402 271.969 74.6037 271.424 74.058C270.878 73.5123 271.014 72.6936 271.56 72.1479C280.292 64.371 293.526 64.371 302.258 72.1479C302.804 72.6936 302.94 73.5123 302.395 74.058C301.985 74.4673 301.712 74.6037 301.303 74.6037Z" fill="#347357"/>
<path d="M291.616 84.2911C291.343 84.2911 291.071 84.1547 290.798 84.0182C288.478 82.381 285.204 82.381 282.884 84.0182C282.202 84.4276 281.384 84.2911 280.974 83.7454C280.565 83.0632 280.701 82.2446 281.247 81.8353C284.522 79.5158 289.024 79.5158 292.299 81.8353C292.981 82.2446 293.117 83.0632 292.571 83.7454C292.435 84.1547 292.026 84.2911 291.616 84.2911Z" fill="#347357"/>
<g opacity="0.5">
<path d="M148.011 147.49C146.252 148.927 145.291 151.276 145.028 152.66H145.944C146.32 151.263 146.552 149.656 148.011 147.49L148.011 147.49ZM143.461 148.087C144.083 148.803 144.676 149.597 145.148 150.359C145.233 150.496 145.315 150.634 145.395 150.774C145.491 150.549 145.594 150.328 145.705 150.11C145.09 149.298 144.358 148.571 143.461 148.087L143.461 148.087ZM148.106 149.612C147.493 150.142 147.169 150.916 147.03 151.785C147.194 152.079 147.347 152.37 147.492 152.65H147.96C147.66 151.835 147.823 150.799 148.106 149.612ZM143.326 149.786C144.192 150.622 144.76 151.936 144.277 152.645H144.811C144.865 152.359 144.946 152.034 145.057 151.685C144.838 150.724 144.091 149.815 143.326 149.786V149.786ZM142.936 150.789C143.565 151.711 143.668 152.213 143.422 152.642H144.223C144.068 151.821 143.85 151.317 142.936 150.789V150.789ZM146.509 151.309C146.382 151.78 146.281 152.225 146.167 152.656H147.256C147.028 152.22 146.782 151.763 146.509 151.309Z" fill="#347357"/>
<path d="M146.286 154.383C144.527 155.821 143.566 158.17 143.303 159.553H144.22C144.595 158.157 144.827 156.55 146.286 154.383L146.286 154.383ZM141.736 154.981C142.358 155.697 142.951 156.491 143.424 157.252C143.508 157.389 143.591 157.528 143.671 157.667C143.766 157.443 143.869 157.221 143.98 157.003C143.365 156.191 142.633 155.464 141.736 154.981L141.736 154.981ZM146.381 156.505C145.769 157.035 145.445 157.81 145.305 158.678C145.469 158.973 145.623 159.263 145.768 159.543H146.235C145.935 158.729 146.098 157.693 146.381 156.505ZM141.601 156.68C142.468 157.515 143.036 158.83 142.552 159.539H143.087C143.14 159.252 143.221 158.927 143.332 158.578C143.113 157.617 142.366 156.708 141.601 156.68V156.68ZM141.211 157.682C141.84 158.605 141.944 159.107 141.697 159.536H142.498C142.343 158.715 142.125 158.21 141.211 157.682V157.682ZM144.784 158.202C144.658 158.674 144.556 159.119 144.442 159.55H145.531C145.304 159.114 145.057 158.656 144.784 158.202Z" fill="#347357"/>
<path d="M144.564 161.277C142.805 162.714 141.844 165.064 141.58 166.447H142.497C142.872 165.051 143.104 163.443 144.564 161.277L144.564 161.277ZM140.014 161.874C140.636 162.59 141.228 163.384 141.701 164.146C141.786 164.283 141.868 164.421 141.948 164.561C142.043 164.336 142.147 164.115 142.258 163.897C141.643 163.085 140.911 162.358 140.014 161.874L140.014 161.874ZM144.658 163.399C144.046 163.929 143.722 164.703 143.583 165.572C143.746 165.867 143.9 166.157 144.045 166.437H144.513C144.213 165.622 144.376 164.586 144.658 163.399ZM139.879 163.574C140.745 164.409 141.313 165.724 140.83 166.432H141.364C141.417 166.146 141.499 165.821 141.61 165.472C141.391 164.511 140.644 163.602 139.879 163.574V163.574ZM139.488 164.576C140.118 165.499 140.221 166.001 139.974 166.43H140.776C140.62 165.609 140.402 165.104 139.488 164.576V164.576ZM143.061 165.096C142.935 165.567 142.834 166.013 142.719 166.444H143.808C143.581 166.007 143.334 165.55 143.061 165.096Z" fill="#347357"/>
<path d="M142.841 168.17C141.082 169.608 140.121 171.957 139.858 173.341H140.774C141.15 171.944 141.382 170.337 142.841 168.17L142.841 168.17ZM138.291 168.768C138.913 169.484 139.506 170.278 139.978 171.04C140.063 171.177 140.145 171.315 140.225 171.455C140.321 171.23 140.424 171.008 140.535 170.79C139.92 169.978 139.188 169.251 138.291 168.768L138.291 168.768ZM142.936 170.292C142.323 170.822 142 171.597 141.86 172.466C142.024 172.76 142.177 173.05 142.322 173.331H142.79C142.49 172.516 142.653 171.48 142.936 170.292ZM138.156 170.467C139.022 171.302 139.59 172.617 139.107 173.326H139.641C139.695 173.04 139.776 172.715 139.887 172.366C139.668 171.405 138.921 170.496 138.156 170.467V170.467ZM137.766 171.47C138.395 172.392 138.498 172.894 138.252 173.323H139.053C138.898 172.502 138.68 171.997 137.766 171.47V171.47ZM141.339 171.989C141.212 172.461 141.111 172.906 140.997 173.337H142.086C141.858 172.901 141.612 172.444 141.339 171.989Z" fill="#347357"/>
<path d="M141.116 175.064C139.357 176.502 138.396 178.851 138.133 180.234H139.05C139.425 178.838 139.657 177.231 141.116 175.064L141.116 175.064ZM136.566 175.662C137.189 176.378 137.781 177.172 138.254 177.933C138.338 178.07 138.421 178.209 138.501 178.348C138.596 178.124 138.7 177.902 138.811 177.684C138.195 176.872 137.463 176.145 136.566 175.662L136.566 175.662ZM141.211 177.186C140.599 177.716 140.275 178.491 140.136 179.359C140.299 179.654 140.453 179.944 140.598 180.224H141.065C140.766 179.41 140.928 178.373 141.211 177.186ZM136.431 177.361C137.298 178.196 137.866 179.511 137.382 180.22H137.917C137.97 179.933 138.051 179.608 138.162 179.259C137.943 178.298 137.196 177.389 136.431 177.361V177.361ZM136.041 178.363C136.671 179.286 136.774 179.788 136.527 180.217H137.329C137.173 179.396 136.955 178.891 136.041 178.363V178.363ZM139.614 178.883C139.488 179.354 139.386 179.8 139.272 180.231H140.361C140.134 179.795 139.887 179.337 139.614 178.883Z" fill="#347357"/>
<path d="M139.394 181.958C137.635 183.395 136.674 185.744 136.41 187.128H137.327C137.702 185.731 137.934 184.124 139.394 181.958L139.394 181.958ZM134.844 182.555C135.466 183.271 136.059 184.065 136.531 184.827C136.616 184.964 136.698 185.102 136.778 185.242C136.874 185.017 136.977 184.796 137.088 184.578C136.473 183.766 135.741 183.039 134.844 182.555L134.844 182.555ZM139.489 184.08C138.876 184.61 138.552 185.384 138.413 186.253C138.576 186.547 138.73 186.838 138.875 187.118H139.343C139.043 186.303 139.206 185.267 139.489 184.08ZM134.709 184.254C135.575 185.09 136.143 186.404 135.66 187.113H136.194C136.247 186.827 136.329 186.502 136.44 186.153C136.221 185.192 135.474 184.283 134.709 184.254V184.254ZM134.318 185.257C134.948 186.179 135.051 186.681 134.804 187.11H135.606C135.45 186.289 135.233 185.785 134.318 185.257V185.257ZM137.892 185.777C137.765 186.248 137.664 186.693 137.549 187.125H138.639C138.411 186.688 138.165 186.231 137.892 185.777Z" fill="#347357"/>
</g>
<g opacity="0.5">
<path d="M137.671 149.213C135.912 150.65 134.951 153 134.688 154.383H135.605C135.98 152.987 136.212 151.379 137.671 149.213L137.671 149.213ZM133.121 149.81C133.743 150.526 134.336 151.32 134.808 152.082C134.893 152.219 134.976 152.357 135.055 152.497C135.151 152.272 135.254 152.051 135.365 151.833C134.75 151.021 134.018 150.294 133.121 149.81L133.121 149.81ZM137.766 151.335C137.153 151.865 136.83 152.639 136.69 153.508C136.854 153.802 137.007 154.093 137.153 154.373H137.62C137.32 153.558 137.483 152.522 137.766 151.335ZM132.986 151.51C133.852 152.345 134.42 153.659 133.937 154.368H134.471C134.525 154.082 134.606 153.757 134.717 153.408C134.498 152.447 133.751 151.538 132.986 151.51V151.51ZM132.596 152.512C133.225 153.435 133.328 153.936 133.082 154.365H133.883C133.728 153.544 133.51 153.04 132.596 152.512V152.512ZM136.169 153.032C136.042 153.503 135.941 153.949 135.827 154.38H136.916C136.689 153.943 136.442 153.486 136.169 153.032Z" fill="#347357"/>
<path d="M135.948 156.106C134.189 157.544 133.228 159.893 132.965 161.276H133.882C134.257 159.88 134.489 158.273 135.948 156.106L135.948 156.106ZM131.398 156.704C132.021 157.42 132.613 158.214 133.086 158.976C133.171 159.112 133.253 159.251 133.333 159.391C133.428 159.166 133.532 158.944 133.643 158.726C133.027 157.914 132.295 157.187 131.398 156.704L131.398 156.704ZM136.043 158.228C135.431 158.758 135.107 159.533 134.968 160.402C135.131 160.696 135.285 160.986 135.43 161.266H135.897C135.598 160.452 135.76 159.416 136.043 158.228ZM131.263 158.403C132.13 159.238 132.698 160.553 132.214 161.262H132.749C132.802 160.975 132.883 160.65 132.994 160.301C132.775 159.341 132.028 158.432 131.263 158.403V158.403ZM130.873 159.406C131.503 160.328 131.606 160.83 131.359 161.259H132.161C132.005 160.438 131.787 159.933 130.873 159.406V159.406ZM134.446 159.925C134.32 160.397 134.218 160.842 134.104 161.273H135.193C134.966 160.837 134.719 160.38 134.446 159.925Z" fill="#347357"/>
<path d="M134.224 163C132.465 164.437 131.504 166.787 131.24 168.17H132.157C132.532 166.774 132.764 165.166 134.224 163L134.224 163ZM129.674 163.598C130.296 164.313 130.889 165.107 131.361 165.869C131.446 166.006 131.528 166.145 131.608 166.284C131.704 166.06 131.807 165.838 131.918 165.62C131.303 164.808 130.571 164.081 129.674 163.598L129.674 163.598ZM134.319 165.122C133.706 165.652 133.382 166.427 133.243 167.295C133.407 167.59 133.56 167.88 133.705 168.16H134.173C133.873 167.346 134.036 166.309 134.319 165.122ZM129.539 165.297C130.405 166.132 130.973 167.447 130.49 168.155H131.024C131.077 167.869 131.159 167.544 131.27 167.195C131.051 166.234 130.304 165.325 129.539 165.297V165.297ZM129.148 166.299C129.778 167.222 129.881 167.724 129.635 168.153H130.436C130.28 167.332 130.063 166.827 129.148 166.299V166.299ZM132.722 166.819C132.595 167.29 132.494 167.736 132.38 168.167H133.469C133.241 167.73 132.995 167.273 132.722 166.819Z" fill="#347357"/>
<path d="M132.501 169.894C130.742 171.331 129.781 173.68 129.518 175.064H130.435C130.81 173.667 131.042 172.06 132.501 169.894L132.501 169.894ZM127.951 170.491C128.573 171.207 129.166 172.001 129.638 172.763C129.723 172.9 129.806 173.038 129.885 173.178C129.981 172.953 130.084 172.732 130.195 172.514C129.58 171.702 128.848 170.975 127.951 170.491L127.951 170.491ZM132.596 172.016C131.983 172.546 131.66 173.32 131.52 174.189C131.684 174.483 131.837 174.774 131.983 175.054H132.45C132.15 174.239 132.313 173.203 132.596 172.016ZM127.816 172.19C128.682 173.026 129.25 174.34 128.767 175.049H129.301C129.355 174.763 129.436 174.438 129.547 174.089C129.328 173.128 128.581 172.219 127.816 172.191V172.19ZM127.426 173.193C128.055 174.115 128.158 174.617 127.912 175.046H128.713C128.558 174.225 128.34 173.721 127.426 173.193V173.193ZM130.999 173.713C130.873 174.184 130.771 174.63 130.657 175.061H131.746C131.519 174.624 131.272 174.167 130.999 173.713Z" fill="#347357"/>
<path d="M130.776 176.787C129.018 178.225 128.056 180.574 127.793 181.957H128.71C129.085 180.561 129.317 178.954 130.776 176.787L130.776 176.787ZM126.227 177.385C126.849 178.101 127.441 178.895 127.914 179.656C127.999 179.793 128.081 179.932 128.161 180.071C128.256 179.847 128.36 179.625 128.471 179.407C127.855 178.595 127.123 177.868 126.227 177.385L126.227 177.385ZM130.871 178.909C130.259 179.439 129.935 180.214 129.796 181.082C129.959 181.377 130.113 181.667 130.258 181.947H130.726C130.426 181.133 130.589 180.097 130.871 178.909ZM126.092 179.084C126.958 179.919 127.526 181.234 127.043 181.943H127.577C127.63 181.656 127.711 181.331 127.822 180.982C127.603 180.022 126.856 179.112 126.092 179.084V179.084ZM125.701 180.086C126.331 181.009 126.434 181.511 126.187 181.94H126.989C126.833 181.119 126.615 180.614 125.701 180.086V180.086ZM129.274 180.606C129.148 181.078 129.047 181.523 128.932 181.954H130.021C129.794 181.518 129.547 181.061 129.274 180.606Z" fill="#347357"/>
<path d="M129.054 183.681C127.295 185.118 126.334 187.468 126.071 188.851H126.987C127.363 187.455 127.595 185.847 129.054 183.681L129.054 183.681ZM124.504 184.279C125.126 184.994 125.719 185.788 126.191 186.55C126.276 186.687 126.358 186.825 126.438 186.965C126.534 186.74 126.637 186.519 126.748 186.301C126.133 185.489 125.401 184.762 124.504 184.279L124.504 184.279ZM129.149 185.803C128.536 186.333 128.212 187.107 128.073 187.976C128.237 188.271 128.39 188.561 128.535 188.841H129.003C128.703 188.026 128.866 186.99 129.149 185.803ZM124.369 185.978C125.235 186.813 125.803 188.128 125.32 188.836H125.854C125.908 188.55 125.989 188.225 126.1 187.876C125.881 186.915 125.134 186.006 124.369 185.978V185.978ZM123.979 186.98C124.608 187.903 124.711 188.405 124.465 188.834H125.266C125.111 188.013 124.893 187.508 123.979 186.98V186.98ZM127.552 187.5C127.425 187.971 127.324 188.417 127.21 188.848H128.299C128.071 188.411 127.825 187.954 127.552 187.5Z" fill="#347357"/>
</g>
<g opacity="0.5">
<path d="M156.628 145.766C154.869 147.204 153.908 149.553 153.645 150.936H154.562C154.937 149.54 155.169 147.933 156.628 145.766L156.628 145.766ZM152.078 146.364C152.7 147.08 153.293 147.874 153.765 148.635C153.85 148.772 153.933 148.911 154.012 149.05C154.108 148.826 154.211 148.604 154.322 148.386C153.707 147.574 152.975 146.847 152.078 146.364L152.078 146.364ZM156.723 147.888C156.11 148.418 155.787 149.193 155.647 150.061C155.811 150.356 155.964 150.646 156.11 150.926H156.577C156.277 150.112 156.44 149.076 156.723 147.888ZM151.943 148.063C152.809 148.898 153.377 150.213 152.894 150.922H153.428C153.482 150.635 153.563 150.31 153.674 149.961C153.455 149 152.708 148.091 151.943 148.063V148.063ZM151.553 149.065C152.182 149.988 152.285 150.49 152.039 150.919H152.84C152.685 150.098 152.467 149.593 151.553 149.065V149.065ZM155.126 149.585C154.999 150.057 154.898 150.502 154.784 150.933H155.873C155.646 150.497 155.399 150.039 155.126 149.585Z" fill="#347357"/>
<path d="M154.905 152.66C153.146 154.097 152.185 156.447 151.922 157.83H152.839C153.214 156.434 153.446 154.826 154.905 152.66L154.905 152.66ZM150.355 153.257C150.978 153.973 151.57 154.767 152.043 155.529C152.128 155.666 152.21 155.804 152.29 155.944C152.385 155.719 152.489 155.498 152.6 155.28C151.984 154.468 151.252 153.741 150.355 153.257L150.355 153.257ZM155 154.782C154.388 155.312 154.064 156.086 153.925 156.955C154.088 157.249 154.242 157.54 154.387 157.82H154.854C154.555 157.005 154.717 155.969 155 154.782ZM150.22 154.957C151.087 155.792 151.655 157.106 151.171 157.815H151.706C151.759 157.529 151.84 157.204 151.951 156.855C151.732 155.894 150.985 154.985 150.22 154.957V154.957ZM149.83 155.959C150.46 156.882 150.563 157.383 150.316 157.812H151.118C150.962 156.991 150.744 156.487 149.83 155.959V155.959ZM153.403 156.479C153.277 156.95 153.175 157.396 153.061 157.827H154.15C153.923 157.39 153.676 156.933 153.403 156.479Z" fill="#347357"/>
<path d="M153.181 159.553C151.422 160.991 150.461 163.34 150.197 164.724H151.114C151.489 163.327 151.721 161.72 153.181 159.553L153.181 159.553ZM148.631 160.151C149.253 160.867 149.846 161.661 150.318 162.423C150.403 162.56 150.485 162.698 150.565 162.838C150.661 162.613 150.764 162.391 150.875 162.173C150.26 161.361 149.528 160.634 148.631 160.151L148.631 160.151ZM153.276 161.675C152.663 162.205 152.339 162.98 152.2 163.849C152.364 164.143 152.517 164.433 152.662 164.714H153.13C152.83 163.899 152.993 162.863 153.276 161.675ZM148.496 161.85C149.362 162.685 149.93 164 149.447 164.709H149.981C150.034 164.423 150.116 164.098 150.227 163.749C150.008 162.788 149.261 161.879 148.496 161.85V161.85ZM148.105 162.853C148.735 163.775 148.838 164.277 148.592 164.706H149.393C149.237 163.885 149.02 163.38 148.105 162.853V162.853ZM151.679 163.372C151.552 163.844 151.451 164.289 151.337 164.72H152.426C152.198 164.284 151.952 163.827 151.679 163.372Z" fill="#347357"/>
<path d="M151.458 166.447C149.699 167.885 148.738 170.234 148.475 171.617H149.392C149.767 170.221 149.999 168.614 151.458 166.447L151.458 166.447ZM146.908 167.045C147.53 167.76 148.123 168.554 148.595 169.316C148.68 169.453 148.763 169.592 148.842 169.731C148.938 169.507 149.041 169.285 149.152 169.067C148.537 168.255 147.805 167.528 146.908 167.045L146.908 167.045ZM151.553 168.569C150.94 169.099 150.617 169.874 150.477 170.742C150.641 171.037 150.794 171.327 150.94 171.607H151.407C151.107 170.793 151.27 169.756 151.553 168.569ZM146.773 168.744C147.639 169.579 148.207 170.894 147.724 171.602H148.258C148.312 171.316 148.393 170.991 148.504 170.642C148.285 169.681 147.538 168.772 146.773 168.744V168.744ZM146.383 169.746C147.012 170.669 147.115 171.171 146.869 171.6H147.67C147.515 170.779 147.297 170.274 146.383 169.746V169.746ZM149.956 170.266C149.83 170.737 149.728 171.183 149.614 171.614H150.703C150.476 171.177 150.229 170.72 149.956 170.266Z" fill="#347357"/>
<path d="M149.733 173.341C147.975 174.778 147.014 177.127 146.75 178.511H147.667C148.042 177.114 148.274 175.507 149.733 173.341L149.733 173.341ZM145.184 173.938C145.806 174.654 146.398 175.448 146.871 176.21C146.956 176.347 147.038 176.485 147.118 176.625C147.213 176.4 147.317 176.179 147.428 175.961C146.812 175.149 146.08 174.422 145.184 173.938L145.184 173.938ZM149.828 175.463C149.216 175.993 148.892 176.767 148.753 177.636C148.916 177.93 149.07 178.221 149.215 178.501H149.683C149.383 177.686 149.546 176.65 149.828 175.463ZM145.049 175.637C145.915 176.473 146.483 177.787 146 178.496H146.534C146.587 178.21 146.669 177.885 146.779 177.536C146.561 176.575 145.813 175.666 145.049 175.638V175.637ZM144.658 176.64C145.288 177.562 145.391 178.064 145.144 178.493H145.946C145.79 177.672 145.572 177.168 144.658 176.64V176.64ZM148.231 177.16C148.105 177.631 148.004 178.077 147.889 178.508H148.978C148.751 178.071 148.504 177.614 148.231 177.16Z" fill="#347357"/>
<path d="M148.011 180.234C146.252 181.672 145.291 184.021 145.028 185.404H145.944C146.32 184.008 146.552 182.401 148.011 180.234L148.011 180.234ZM143.461 180.832C144.083 181.548 144.676 182.342 145.148 183.103C145.233 183.24 145.315 183.379 145.395 183.518C145.491 183.294 145.594 183.072 145.705 182.854C145.09 182.042 144.358 181.315 143.461 180.832L143.461 180.832ZM148.106 182.356C147.493 182.886 147.169 183.661 147.03 184.529C147.194 184.824 147.347 185.114 147.492 185.394H147.96C147.66 184.58 147.823 183.544 148.106 182.356ZM143.326 182.531C144.192 183.366 144.76 184.681 144.277 185.39H144.811C144.865 185.103 144.946 184.778 145.057 184.429C144.838 183.469 144.091 182.559 143.326 182.531V182.531ZM142.936 183.533C143.565 184.456 143.668 184.958 143.422 185.387H144.223C144.068 184.566 143.85 184.061 142.936 183.533V183.533ZM146.509 184.053C146.382 184.525 146.281 184.97 146.167 185.401H147.256C147.028 184.965 146.782 184.508 146.509 184.053Z" fill="#347357"/>
</g>
<g opacity="0.5">
<path d="M165.245 144.043C163.486 145.48 162.525 147.829 162.262 149.213H163.179C163.554 147.816 163.786 146.209 165.245 144.043L165.245 144.043ZM160.695 144.64C161.317 145.356 161.91 146.15 162.382 146.912C162.467 147.049 162.55 147.187 162.63 147.327C162.725 147.102 162.828 146.881 162.939 146.663C162.324 145.851 161.592 145.124 160.695 144.64L160.695 144.64ZM165.34 146.165C164.728 146.695 164.404 147.469 164.264 148.338C164.428 148.632 164.582 148.923 164.727 149.203H165.194C164.894 148.388 165.057 147.352 165.34 146.165ZM160.56 146.34C161.427 147.175 161.995 148.489 161.511 149.198H162.046C162.099 148.912 162.18 148.587 162.291 148.238C162.072 147.277 161.325 146.368 160.56 146.34V146.34ZM160.17 147.342C160.799 148.265 160.903 148.766 160.656 149.195H161.457C161.302 148.374 161.084 147.87 160.17 147.342V147.342ZM163.743 147.862C163.617 148.333 163.515 148.779 163.401 149.21H164.49C164.263 148.773 164.016 148.316 163.743 147.862Z" fill="#347357"/>
<path d="M163.522 150.936C161.764 152.374 160.803 154.723 160.539 156.106H161.456C161.831 154.71 162.063 153.103 163.523 150.936L163.522 150.936ZM158.973 151.534C159.595 152.25 160.187 153.044 160.66 153.806C160.745 153.943 160.827 154.081 160.907 154.221C161.002 153.996 161.106 153.774 161.217 153.556C160.602 152.744 159.87 152.017 158.973 151.534L158.973 151.534ZM163.617 153.058C163.005 153.588 162.681 154.363 162.542 155.232C162.705 155.526 162.859 155.816 163.004 156.096H163.472C163.172 155.282 163.335 154.246 163.617 153.058ZM158.838 153.233C159.704 154.068 160.272 155.383 159.789 156.092H160.323C160.376 155.805 160.458 155.48 160.569 155.131C160.35 154.171 159.603 153.262 158.838 153.233V153.233ZM158.447 154.236C159.077 155.158 159.18 155.66 158.933 156.089H159.735C159.579 155.268 159.361 154.763 158.447 154.236V154.236ZM162.02 154.755C161.894 155.227 161.793 155.672 161.678 156.103H162.767C162.54 155.667 162.293 155.21 162.02 154.755Z" fill="#347357"/>
<path d="M161.798 157.83C160.039 159.267 159.078 161.617 158.815 163H159.731C160.107 161.604 160.339 159.996 161.798 157.83L161.798 157.83ZM157.248 158.428C157.87 159.143 158.463 159.937 158.935 160.699C159.02 160.836 159.103 160.974 159.182 161.114C159.278 160.889 159.381 160.668 159.492 160.45C158.877 159.638 158.145 158.911 157.248 158.428L157.248 158.428ZM161.893 159.952C161.28 160.482 160.957 161.257 160.817 162.125C160.981 162.42 161.134 162.71 161.28 162.99H161.747C161.447 162.175 161.61 161.139 161.893 159.952ZM157.113 160.127C157.979 160.962 158.547 162.277 158.064 162.985H158.598C158.652 162.699 158.733 162.374 158.844 162.025C158.625 161.064 157.878 160.155 157.113 160.127V160.127ZM156.723 161.129C157.352 162.052 157.455 162.554 157.209 162.983H158.01C157.855 162.162 157.637 161.657 156.723 161.129V161.129ZM160.296 161.649C160.169 162.12 160.068 162.566 159.954 162.997H161.043C160.815 162.56 160.569 162.103 160.296 161.649Z" fill="#347357"/>
<path d="M160.075 164.724C158.316 166.161 157.355 168.51 157.092 169.894H158.009C158.384 168.497 158.616 166.89 160.075 164.724L160.075 164.724ZM155.525 165.321C156.148 166.037 156.74 166.831 157.213 167.593C157.297 167.73 157.38 167.868 157.46 168.008C157.555 167.783 157.659 167.562 157.77 167.344C157.154 166.532 156.422 165.805 155.525 165.321L155.525 165.321ZM160.17 166.846C159.558 167.376 159.234 168.15 159.095 169.019C159.258 169.313 159.412 169.604 159.557 169.884H160.024C159.725 169.069 159.887 168.033 160.17 166.846ZM155.39 167.02C156.257 167.856 156.825 169.17 156.341 169.879H156.876C156.929 169.593 157.01 169.268 157.121 168.919C156.902 167.958 156.155 167.049 155.39 167.02V167.02ZM155 168.023C155.63 168.945 155.733 169.447 155.486 169.876H156.288C156.132 169.055 155.914 168.551 155 168.023V168.023ZM158.573 168.543C158.447 169.014 158.345 169.459 158.231 169.891H159.32C159.093 169.454 158.846 168.997 158.573 168.543Z" fill="#347357"/>
<path d="M158.351 171.617C156.592 173.055 155.631 175.404 155.367 176.787H156.284C156.659 175.391 156.891 173.784 158.351 171.617L158.351 171.617ZM153.801 172.215C154.423 172.931 155.016 173.725 155.488 174.486C155.573 174.623 155.655 174.762 155.735 174.901C155.831 174.677 155.934 174.455 156.045 174.237C155.43 173.425 154.698 172.698 153.801 172.215L153.801 172.215ZM158.446 173.739C157.833 174.269 157.509 175.044 157.37 175.912C157.533 176.207 157.687 176.497 157.832 176.777H158.3C158 175.963 158.163 174.927 158.446 173.739ZM153.666 173.914C154.532 174.749 155.1 176.064 154.617 176.773H155.151C155.204 176.486 155.286 176.161 155.397 175.812C155.178 174.851 154.431 173.942 153.666 173.914V173.914ZM153.275 174.916C153.905 175.839 154.008 176.341 153.761 176.77H154.563C154.407 175.949 154.19 175.444 153.275 174.916V174.916ZM156.849 175.436C156.722 175.908 156.621 176.353 156.506 176.784H157.596C157.368 176.348 157.122 175.89 156.849 175.436Z" fill="#347357"/>
<path d="M156.628 178.511C154.869 179.948 153.908 182.298 153.645 183.681H154.562C154.937 182.285 155.169 180.677 156.628 178.511L156.628 178.511ZM152.078 179.108C152.7 179.824 153.293 180.618 153.765 181.38C153.85 181.517 153.933 181.655 154.012 181.795C154.108 181.57 154.211 181.349 154.322 181.131C153.707 180.319 152.975 179.592 152.078 179.108L152.078 179.108ZM156.723 180.633C156.11 181.163 155.787 181.937 155.647 182.806C155.811 183.101 155.964 183.391 156.11 183.671H156.577C156.277 182.856 156.44 181.82 156.723 180.633ZM151.943 180.808C152.809 181.643 153.377 182.958 152.894 183.666H153.428C153.482 183.38 153.563 183.055 153.674 182.706C153.455 181.745 152.708 180.836 151.943 180.808V180.808ZM151.553 181.81C152.182 182.733 152.285 183.235 152.039 183.664H152.84C152.685 182.843 152.467 182.338 151.553 181.81V181.81ZM155.126 182.33C154.999 182.801 154.898 183.247 154.784 183.678H155.873C155.646 183.241 155.399 182.784 155.126 182.33Z" fill="#347357"/>
</g>
<g opacity="0.5">
<path d="M173.862 142.319C172.104 143.757 171.142 146.106 170.879 147.489H171.796C172.171 146.093 172.403 144.486 173.862 142.319L173.862 142.319ZM169.313 142.917C169.935 143.633 170.527 144.427 171 145.189C171.085 145.325 171.167 145.464 171.247 145.604C171.342 145.379 171.446 145.157 171.557 144.939C170.941 144.127 170.209 143.4 169.313 142.917L169.313 142.917ZM173.957 144.441C173.345 144.971 173.021 145.746 172.882 146.615C173.045 146.909 173.199 147.199 173.344 147.479H173.811C173.512 146.665 173.674 145.629 173.957 144.441ZM169.177 144.616C170.044 145.451 170.612 146.766 170.128 147.475H170.663C170.716 147.188 170.797 146.863 170.908 146.514C170.689 145.554 169.942 144.645 169.177 144.616V144.616ZM168.787 145.619C169.417 146.541 169.52 147.043 169.273 147.472H170.075C169.919 146.651 169.701 146.146 168.787 145.619V145.619ZM172.36 146.138C172.234 146.61 172.132 147.055 172.018 147.486H173.107C172.88 147.05 172.633 146.593 172.36 146.138Z" fill="#347357"/>
<path d="M172.138 149.213C170.379 150.65 169.418 153 169.154 154.383H170.071C170.447 152.987 170.678 151.379 172.138 149.213L172.138 149.213ZM167.588 149.811C168.21 150.526 168.803 151.32 169.275 152.082C169.36 152.219 169.442 152.357 169.522 152.497C169.618 152.272 169.721 152.051 169.832 151.833C169.217 151.021 168.485 150.294 167.588 149.811L167.588 149.811ZM172.233 151.335C171.62 151.865 171.296 152.64 171.157 153.508C171.321 153.803 171.474 154.093 171.619 154.373H172.087C171.787 153.558 171.95 152.522 172.233 151.335ZM167.453 151.51C168.319 152.345 168.887 153.66 168.404 154.368H168.938C168.992 154.082 169.073 153.757 169.184 153.408C168.965 152.447 168.218 151.538 167.453 151.51V151.51ZM167.062 152.512C167.692 153.435 167.795 153.937 167.549 154.366H168.35C168.195 153.545 167.977 153.04 167.062 152.512V152.512ZM170.636 153.032C170.509 153.503 170.408 153.949 170.294 154.38H171.383C171.155 153.943 170.909 153.486 170.636 153.032Z" fill="#347357"/>
<path d="M170.415 156.106C168.656 157.544 167.695 159.893 167.432 161.277H168.349C168.724 159.88 168.956 158.273 170.415 156.106L170.415 156.106ZM165.865 156.704C166.487 157.42 167.08 158.214 167.552 158.976C167.637 159.113 167.72 159.251 167.8 159.391C167.895 159.166 167.998 158.945 168.109 158.726C167.494 157.914 166.762 157.188 165.865 156.704L165.865 156.704ZM170.51 158.228C169.898 158.759 169.574 159.533 169.434 160.402C169.598 160.696 169.751 160.986 169.897 161.267H170.364C170.064 160.452 170.227 159.416 170.51 158.228ZM165.73 158.403C166.597 159.238 167.164 160.553 166.681 161.262H167.216C167.269 160.976 167.35 160.651 167.461 160.302C167.242 159.341 166.495 158.432 165.73 158.403V158.403ZM165.34 159.406C165.969 160.328 166.073 160.83 165.826 161.259H166.627C166.472 160.438 166.254 159.933 165.34 159.406V159.406ZM168.913 159.925C168.787 160.397 168.685 160.842 168.571 161.273H169.66C169.433 160.837 169.186 160.38 168.913 159.925Z" fill="#347357"/>
<path d="M168.692 163C166.934 164.438 165.972 166.787 165.709 168.17H166.626C167.001 166.774 167.233 165.167 168.692 163L168.692 163ZM164.143 163.598C164.765 164.314 165.357 165.108 165.83 165.869C165.915 166.006 165.997 166.145 166.077 166.284C166.172 166.06 166.276 165.838 166.387 165.62C165.771 164.808 165.039 164.081 164.143 163.598L164.143 163.598ZM168.787 165.122C168.175 165.652 167.851 166.427 167.712 167.295C167.875 167.59 168.029 167.88 168.174 168.16H168.642C168.342 167.346 168.505 166.309 168.787 165.122ZM164.008 165.297C164.874 166.132 165.442 167.447 164.959 168.156H165.493C165.546 167.869 165.627 167.544 165.738 167.195C165.519 166.234 164.772 165.325 164.008 165.297V165.297ZM163.617 166.299C164.247 167.222 164.35 167.724 164.103 168.153H164.905C164.749 167.332 164.531 166.827 163.617 166.299V166.299ZM167.19 166.819C167.064 167.291 166.963 167.736 166.848 168.167H167.937C167.71 167.731 167.463 167.273 167.19 166.819Z" fill="#347357"/>
<path d="M166.968 169.894C165.209 171.331 164.248 173.681 163.985 175.064H164.901C165.277 173.668 165.509 172.06 166.968 169.894L166.968 169.894ZM162.418 170.491C163.04 171.207 163.633 172.001 164.105 172.763C164.19 172.9 164.272 173.038 164.352 173.178C164.448 172.953 164.551 172.732 164.662 172.514C164.047 171.702 163.315 170.975 162.418 170.491L162.418 170.491ZM167.063 172.016C166.45 172.546 166.126 173.32 165.987 174.189C166.151 174.483 166.304 174.774 166.449 175.054H166.917C166.617 174.239 166.78 173.203 167.063 172.016ZM162.283 172.191C163.149 173.026 163.717 174.34 163.234 175.049H163.768C163.822 174.763 163.903 174.438 164.014 174.089C163.795 173.128 163.048 172.219 162.283 172.191V172.191ZM161.893 173.193C162.522 174.116 162.625 174.618 162.379 175.046H163.18C163.025 174.225 162.807 173.721 161.893 173.193V173.193ZM165.466 173.713C165.339 174.184 165.238 174.63 165.124 175.061H166.213C165.985 174.624 165.739 174.167 165.466 173.713Z" fill="#347357"/>
<path d="M165.245 176.787C163.486 178.225 162.525 180.574 162.262 181.958H163.179C163.554 180.561 163.786 178.954 165.245 176.787L165.245 176.787ZM160.695 177.385C161.317 178.101 161.91 178.895 162.382 179.657C162.467 179.794 162.55 179.932 162.63 180.072C162.725 179.847 162.828 179.625 162.939 179.407C162.324 178.595 161.592 177.868 160.695 177.385L160.695 177.385ZM165.34 178.909C164.728 179.439 164.404 180.214 164.264 181.083C164.428 181.377 164.582 181.667 164.727 181.948H165.194C164.894 181.133 165.057 180.097 165.34 178.909ZM160.56 179.084C161.427 179.919 161.995 181.234 161.511 181.943H162.046C162.099 181.657 162.18 181.332 162.291 180.983C162.072 180.022 161.325 179.113 160.56 179.084V179.084ZM160.17 180.087C160.799 181.009 160.903 181.511 160.656 181.94H161.457C161.302 181.119 161.084 180.614 160.17 180.087V180.087ZM163.743 180.606C163.617 181.078 163.515 181.523 163.401 181.954H164.49C164.263 181.518 164.016 181.061 163.743 180.606Z" fill="#347357"/>
</g>
<g filter="url(#filter1_d_12817_23333)">
<circle cx="-241.384" cy="1" r="87.8936" fill="white"/>
</g>
<rect x="-250" y="1" width="620.426" height="260.234" fill="#347357" fill-opacity="0.7"/>
</g>
</g>
<defs>
<filter id="filter0_d_12817_23333" x="-158.659" y="114.745" width="537.701" height="179.234" filterUnits="userSpaceOnUse" color-interpolation-filters="sRGB">
<feFlood flood-opacity="0" result="BackgroundImageFix"/>
<feColorMatrix in="SourceAlpha" type="matrix" values="0 0 0 0 0 0 0 0 0 0 0 0 0 0 0 0 0 0 127 0" result="hardAlpha"/>
<feOffset dy="6.89362"/>
<feGaussianBlur stdDeviation="3.44681"/>
<feComposite in2="hardAlpha" operator="out"/>
<feColorMatrix type="matrix" values="0 0 0 0 0 0 0 0 0 0 0 0 0 0 0 0 0 0 0.25 0"/>
<feBlend mode="normal" in2="BackgroundImageFix" result="effect1_dropShadow_12817_23333"/>
<feBlend mode="normal" in="SourceGraphic" in2="effect1_dropShadow_12817_23333" result="shape"/>
</filter>
<filter id="filter1_d_12817_23333" x="-536.086" y="-293.702" width="589.404" height="589.404" filterUnits="userSpaceOnUse" color-interpolation-filters="sRGB">
<feFlood flood-opacity="0" result="BackgroundImageFix"/>
<feColorMatrix in="SourceAlpha" type="matrix" values="0 0 0 0 0 0 0 0 0 0 0 0 0 0 0 0 0 0 127 0" result="hardAlpha"/>
<feOffset/>
<feGaussianBlur stdDeviation="103.404"/>
<feColorMatrix type="matrix" values="0 0 0 0 1 0 0 0 0 1 0 0 0 0 1 0 0 0 0.24 0"/>
<feBlend mode="normal" in2="BackgroundImageFix" result="effect1_dropShadow_12817_23333"/>
<feBlend mode="normal" in="SourceGraphic" in2="effect1_dropShadow_12817_23333" result="shape"/>
</filter>
<radialGradient id="paint0_radial_12817_23333" cx="0" cy="0" r="1" gradientTransform="matrix(-369.67 138 -352.34 -715 533.394 44.25)" gradientUnits="userSpaceOnUse">
<stop stop-color="#C3E8D8"/>
<stop offset="1" stop-color="#E2F3EC"/>
</radialGradient>
<clipPath id="clip0_12817_23333">
<rect width="360" height="239" fill="white"/>
</clipPath>
<clipPath id="clip1_12817_23333">
<rect width="620.426" height="243" fill="white" transform="translate(-250 1)"/>
</clipPath>
</defs>
</svg>
