<svg width="38" height="38" viewBox="0 0 38 38" fill="none" xmlns="http://www.w3.org/2000/svg">
<path d="M12.4938 8.93136C11.8768 6.7798 9.64747 5.524 7.49047 6.11796C7.45017 6.12798 7.36931 6.14826 7.29627 6.17262C4.33584 7.15942 4.10068 11.1768 6.75574 12.6449L12.6573 15.9102C13.1545 16.1854 13.7806 16.0054 14.0557 15.5082C14.3308 15.011 14.1507 14.3848 13.6535 14.1098L7.75129 10.8439C6.58521 10.1993 6.77435 8.52187 7.94033 8.12708L7.94763 8.12507C7.96071 8.12158 7.97642 8.11764 8.00179 8.11128C8.01094 8.109 8.02005 8.10659 8.02913 8.10405C9.09744 7.80555 10.2079 8.42517 10.5157 9.4986C10.6723 10.0448 11.2421 10.3607 11.7884 10.204C12.3347 10.0474 12.6504 9.47758 12.4938 8.93136Z" fill="#D3883E"/>
<path d="M26.6727 9.4986C26.9805 8.42517 28.091 7.80555 29.1593 8.10405C29.1683 8.10659 29.1775 8.109 29.1866 8.11128C29.212 8.11764 29.2277 8.12158 29.2408 8.12507L29.2481 8.12708C30.414 8.52187 30.6028 10.1995 29.4367 10.8441L23.5348 14.1098C23.0376 14.3848 22.8576 15.011 23.1327 15.5082C23.4079 16.0054 24.0339 16.1854 24.5311 15.9102L30.433 12.6446C33.0882 11.1766 32.8526 7.15942 29.8921 6.17262C29.8191 6.14826 29.7382 6.12798 29.698 6.11796C27.541 5.524 25.3116 6.7798 24.6947 8.93136C24.538 9.47758 24.8538 10.0474 25.4 10.204C25.9463 10.3607 26.5161 10.0448 26.6727 9.4986Z" fill="#D3883E"/>
<path d="M20.5767 20.7931V15.7819H16.6103V20.7931C16.6103 21.6719 16.2186 22.515 15.5417 23.0731L13.2617 24.9731H23.9253L21.6455 23.0731C20.9686 22.5031 20.5767 21.6719 20.5767 20.7931Z" fill="#D3883E"/>
<path d="M18.5933 19.6413C14.0214 19.6413 10.3164 15.9362 10.3164 11.3644V3.21811C10.3164 2.75499 10.6964 2.375 11.1595 2.375H26.0389C26.502 2.375 26.882 2.75499 26.882 3.21811V11.3644C26.882 15.9362 23.177 19.6413 18.5933 19.6413Z" fill="#FFB02E"/>
<path d="M27.0659 24.9731H9.73416C8.82 24.9731 8.04359 25.5788 7.86828 26.4219L5.95228 34.8413C5.86462 35.2331 6.17768 35.6013 6.60346 35.6013H30.209C30.6348 35.6013 30.9479 35.2331 30.8603 34.8413L28.9442 26.4219C28.7564 25.5788 27.98 24.9731 27.0659 24.9731Z" fill="#6D4534"/>
<path d="M21.829 28.4525H14.9818C14.5837 28.4525 14.2539 28.785 14.2539 29.2125V31.3619C14.2539 31.7775 14.5723 32.1219 14.9818 32.1219H21.829C22.2271 32.1219 22.5569 31.7894 22.5569 31.3619V29.2125C22.5569 28.7969 22.2384 28.4525 21.829 28.4525Z" fill="#FFB02E"/>
</svg>
