<svg width="40" height="40" viewBox="0 0 40 40" fill="none" xmlns="http://www.w3.org/2000/svg">
<path fill-rule="evenodd" clip-rule="evenodd" d="M5.12109 34.1618C5.24466 34.8337 5.33 34.942 6.03198 35.0765C15.7843 33.0858 19.3389 23.4923 19.3389 23.4923L16.194 20.3351C16.194 20.3351 6.00624 24.6897 5.12109 34.1618Z" fill="#FFC643"/>
<path fill-rule="evenodd" clip-rule="evenodd" d="M8.09961 31.4085C8.1705 31.7847 8.21842 31.8463 8.61268 31.9233C14.0768 30.8298 16.0481 25.4584 16.0481 25.4584L14.2762 23.6805C14.2762 23.6805 8.57327 26.099 8.09961 31.4085Z" fill="#FAB007"/>
<path fill-rule="evenodd" clip-rule="evenodd" d="M17.9998 18.854L11.9299 24.9471L5.86716 18.8609C5.78462 18.778 5.73828 18.6657 5.73828 18.5487C5.73828 18.4316 5.78462 18.3194 5.86716 18.2364L6.64538 17.4552C10.4329 17.8989 14.2178 18.3652 17.9998 18.854Z" fill="#C54343"/>
<path fill-rule="evenodd" clip-rule="evenodd" d="M20.9418 21.8071L14.8711 27.901L20.9341 33.9873C20.9749 34.0283 21.0233 34.0608 21.0767 34.083C21.1301 34.1052 21.1873 34.1166 21.2452 34.1166C21.303 34.1166 21.3602 34.1052 21.4136 34.083C21.467 34.0608 21.5155 34.0283 21.5562 33.9873L22.3345 33.2061C21.6398 27.2006 20.9418 21.8071 20.9418 21.8071Z" fill="#C54343"/>
<path fill-rule="evenodd" clip-rule="evenodd" d="M32.9902 4.95049C34.1258 5.18693 34.3112 5.33584 34.5656 6.53208C37.0048 19.1453 16.1048 29.1386 16.1048 29.1386L10.666 23.679C10.666 23.679 20.4876 1.89742 32.9902 4.95049Z" fill="#E85757"/>
<path fill-rule="evenodd" clip-rule="evenodd" d="M34.3589 11.3649C35.1312 6.45699 35.9948 3.77382 28.1191 4.94669L34.3589 11.3649Z" fill="#C54343"/>
<path fill-rule="evenodd" clip-rule="evenodd" d="M18.1577 21.3192L18.4846 21.6473L13.8906 26.9158L12.9102 25.9315L18.1577 21.3192Z" fill="#C54343"/>
<path d="M26.1969 16.4976C27.9895 16.4976 29.4427 15.0444 29.4427 13.2518C29.4427 11.4593 27.9895 10.0061 26.1969 10.0061C24.4043 10.0061 22.9512 11.4593 22.9512 13.2518C22.9512 15.0444 24.4043 16.4976 26.1969 16.4976Z" fill="white"/>
</svg>
