<svg width="38" height="38" viewBox="0 0 38 38" fill="none" xmlns="http://www.w3.org/2000/svg">
<path d="M4.76367 3.67383C4.76367 3.018 5.29534 2.48633 5.95117 2.48633H32.0285C32.6844 2.48633 33.216 3.018 33.216 3.67383V23.6386H4.76367V3.67383Z" fill="url(#paint0_linear_12813_20395)"/>
<path d="M4.76367 3.67383C4.76367 3.018 5.29534 2.48633 5.95117 2.48633H32.0285C32.6844 2.48633 33.216 3.018 33.216 3.67383V23.6386H4.76367V3.67383Z" fill="url(#paint1_linear_12813_20395)"/>
<path d="M5.93164 3.91503C5.93164 3.75107 6.06456 3.61816 6.22852 3.61816H31.7492C31.9132 3.61816 32.046 3.75107 32.046 3.91504V22.2099C32.046 22.3739 31.9132 22.5068 31.7492 22.5068H6.22852C6.06456 22.5068 5.93164 22.3739 5.93164 22.2099V3.91503Z" fill="url(#paint2_linear_12813_20395)"/>
<path d="M4.76359 23.6387H33.2159L35.4364 33.4838C35.6326 34.1407 34.9972 34.4979 34.3524 34.4979H3.7696C2.74444 34.4979 2.45086 34.005 2.56671 33.4857L4.76359 23.6387Z" fill="url(#paint3_linear_12813_20395)"/>
<path d="M2.54393 33.7324L2.54297 34.7483C2.56107 35.1688 2.90634 35.5184 3.76959 35.5184H34.3524C34.9121 35.5184 35.4649 35.2492 35.4726 34.7483V33.7324C35.4616 34.2303 34.9104 34.4979 34.3524 34.4979H3.76959C2.90951 34.4979 2.56437 34.1509 2.54393 33.7324Z" fill="url(#paint4_linear_12813_20395)"/>
<path d="M2.54393 33.7324L2.54297 34.7483C2.56107 35.1688 2.90634 35.5184 3.76959 35.5184H34.3524C34.9121 35.5184 35.4649 35.2492 35.4726 34.7483V33.7324C35.4616 34.2303 34.9104 34.4979 34.3524 34.4979H3.76959C2.90951 34.4979 2.56437 34.1509 2.54393 33.7324Z" fill="url(#paint5_linear_12813_20395)"/>
<path d="M2.54393 33.7324L2.54297 34.7483C2.56107 35.1688 2.90634 35.5184 3.76959 35.5184H34.3524C34.9121 35.5184 35.4649 35.2492 35.4726 34.7483V33.7324C35.4616 34.2303 34.9104 34.4979 34.3524 34.4979H3.76959C2.90951 34.4979 2.56437 34.1509 2.54393 33.7324Z" fill="url(#paint6_linear_12813_20395)"/>
<path d="M13.0053 31.2245C13.0334 31.086 13.1551 30.9863 13.2964 30.9863H24.6956C24.8365 30.9863 24.958 31.0854 24.9864 31.2234L25.3562 33.0232C25.3939 33.2073 25.2533 33.3799 25.0654 33.3799H12.9336C12.7461 33.3799 12.6056 33.2081 12.6427 33.0243L13.0053 31.2245Z" stroke="url(#paint7_linear_12813_20395)" stroke-width="0.15"/>
<path d="M13.0053 31.2245C13.0334 31.086 13.1551 30.9863 13.2964 30.9863H24.6956C24.8365 30.9863 24.958 31.0854 24.9864 31.2234L25.3562 33.0232C25.3939 33.2073 25.2533 33.3799 25.0654 33.3799H12.9336C12.7461 33.3799 12.6056 33.2081 12.6427 33.0243L13.0053 31.2245Z" fill="url(#paint8_linear_12813_20395)"/>
<path d="M5.79652 25.2313C5.84634 25.0159 6.0382 24.8633 6.25931 24.8633H31.7838C32.0062 24.8633 32.1988 25.0175 32.2474 25.2346L33.1689 29.356C33.2103 29.5416 33.0132 29.7177 32.6421 29.7177H5.38529C4.89827 29.7177 4.80417 29.521 4.8472 29.3349L5.79652 25.2313Z" stroke="url(#paint9_linear_12813_20395)" stroke-width="0.15"/>
<path d="M5.79652 25.2313C5.84634 25.0159 6.0382 24.8633 6.25931 24.8633H31.7838C32.0062 24.8633 32.1988 25.0175 32.2474 25.2346L33.1689 29.356C33.2103 29.5416 33.0132 29.7177 32.6421 29.7177H5.38529C4.89827 29.7177 4.80417 29.521 4.8472 29.3349L5.79652 25.2313Z" fill="url(#paint10_linear_12813_20395)"/>
<path d="M6.82998 25.4193C6.83631 25.3924 6.86022 25.3735 6.88775 25.3735H8.06878C8.10572 25.3735 8.1337 25.4069 8.12724 25.4432L7.99524 26.1873C7.9902 26.2157 7.96556 26.2364 7.93677 26.2364H6.71174C6.67343 26.2364 6.64514 26.2005 6.65397 26.1632L6.82998 25.4193Z" fill="#D7D3E6"/>
<path d="M31.1478 25.4193C31.1415 25.3924 31.1175 25.3735 31.09 25.3735H29.909C29.8721 25.3735 29.844 25.4069 29.8506 25.4432L29.9825 26.1873C29.9876 26.2157 30.0122 26.2364 30.041 26.2364H31.2661C31.3043 26.2364 31.3326 26.2005 31.3238 26.1632L31.1478 25.4193Z" fill="#D7D3E6"/>
<path d="M6.56191 26.7699C6.56791 26.7427 6.59203 26.7234 6.6199 26.7234H7.8013C7.83786 26.7234 7.86573 26.7562 7.85991 26.7923L7.7399 27.5362C7.73526 27.5651 7.71043 27.5862 7.68129 27.5862H6.45588C6.41794 27.5862 6.38974 27.5511 6.3979 27.514L6.56191 26.7699Z" fill="#D7D3E6"/>
<path d="M31.416 26.7699C31.41 26.7427 31.3858 26.7234 31.3579 26.7234H30.1766C30.14 26.7234 30.1121 26.7562 30.118 26.7923L30.238 27.5362C30.2426 27.5651 30.2675 27.5862 30.2966 27.5862H31.5221C31.5599 27.5862 31.5882 27.5511 31.58 27.514L31.416 26.7699Z" fill="#D7D3E6"/>
<path d="M6.26394 28.1435C6.26976 28.116 6.29398 28.0964 6.32202 28.0964H7.54519C7.58161 28.0964 7.60945 28.1289 7.60385 28.1648L7.48316 28.9413C7.47866 28.9703 7.45376 28.9917 7.42448 28.9917H6.15705C6.1193 28.9917 6.09113 28.9569 6.09897 28.92L6.26394 28.1435Z" fill="#D7D3E6"/>
<path d="M31.7136 28.1435C31.7078 28.116 31.6836 28.0964 31.6556 28.0964H30.4324C30.396 28.0964 30.3681 28.1289 30.3738 28.1648L30.4944 28.9413C30.4989 28.9703 30.5239 28.9917 30.5531 28.9917H31.8205C31.8583 28.9917 31.8864 28.9569 31.8786 28.92L31.7136 28.1435Z" fill="#D7D3E6"/>
<path d="M8.92698 25.4204C8.93287 25.393 8.95705 25.3735 8.98503 25.3735H10.1665C10.203 25.3735 10.2308 25.4061 10.2252 25.4421L10.1092 26.1861C10.1047 26.215 10.0798 26.2364 10.0505 26.2364H8.82502C8.7872 26.2364 8.75902 26.2015 8.76698 26.1644L8.92698 25.4204Z" fill="#D7D3E6"/>
<path d="M29.051 25.4204C29.045 25.393 29.0209 25.3735 28.9929 25.3735H27.8113C27.7749 25.3735 27.7471 25.4061 27.7527 25.4421L27.8687 26.1861C27.8732 26.215 27.8981 26.2364 27.9273 26.2364H29.1528C29.1907 26.2364 29.2189 26.2015 29.2109 26.1644L29.051 25.4204Z" fill="#D7D3E6"/>
<path d="M8.69936 26.771C8.70492 26.7433 8.72928 26.7234 8.75757 26.7234H9.93946C9.97555 26.7234 10.0033 26.7553 9.99827 26.7911L9.89666 27.5141C9.89254 27.5435 9.86746 27.5653 9.83786 27.5653H8.61213C8.57463 27.5653 8.54652 27.531 8.55392 27.4942L8.69936 26.771Z" fill="#D7D3E6"/>
<path d="M29.278 26.771C29.2724 26.7433 29.2481 26.7234 29.2198 26.7234H28.0379C28.0018 26.7234 27.974 26.7553 27.9791 26.7911L28.0807 27.5141C28.0848 27.5435 28.1099 27.5653 28.1394 27.5653H29.3652C29.4027 27.5653 29.4308 27.531 29.4235 27.4942L29.278 26.771Z" fill="#D7D3E6"/>
<path d="M8.44562 28.1462C8.45028 28.1175 8.47511 28.0964 8.50423 28.0964H9.72838C9.76361 28.0964 9.79109 28.127 9.78742 28.162L9.70708 28.9292C9.70391 28.9594 9.67843 28.9823 9.64803 28.9823H8.3797C8.34311 28.9823 8.31523 28.9497 8.32109 28.9134L8.44562 28.1462Z" fill="#D7D3E6"/>
<path d="M29.5315 28.1462C29.5269 28.1175 29.5021 28.0964 29.473 28.0964H28.2488C28.2135 28.0964 28.1861 28.127 28.1898 28.162L28.2701 28.9292C28.2733 28.9594 28.2988 28.9823 28.3292 28.9823H29.5974C29.634 28.9823 29.6619 28.9497 29.6561 28.9134L29.5315 28.1462Z" fill="#D7D3E6"/>
<path d="M11.0038 25.424C11.0082 25.395 11.0331 25.3735 11.0625 25.3735H12.2451C12.2801 25.3735 12.3075 25.4036 12.3043 25.4384L12.2358 26.1823C12.233 26.213 12.2074 26.2364 12.1766 26.2364H10.95C10.9137 26.2364 10.8859 26.204 10.8913 26.1681L11.0038 25.424Z" fill="#D7D3E6"/>
<path d="M26.9746 25.424C26.9702 25.395 26.9453 25.3735 26.9159 25.3735H25.7332C25.6983 25.3735 25.6709 25.4036 25.6741 25.4384L25.7426 26.1823C25.7455 26.213 25.771 26.2364 25.8017 26.2364H27.0284C27.0646 26.2364 27.0926 26.204 27.0871 26.1681L26.9746 25.424Z" fill="#D7D3E6"/>
<path d="M13.0786 25.4271C13.0815 25.3967 13.1072 25.3735 13.1377 25.3735H14.3209C14.3547 25.3735 14.3816 25.4016 14.3803 25.4352L14.3518 26.1746C14.3506 26.2064 14.3244 26.2316 14.2926 26.2316H13.0653C13.0302 26.2316 13.0028 26.2015 13.0061 26.1665L13.0786 25.4271Z" fill="#D7D3E6"/>
<path d="M24.8994 25.4271C24.8965 25.3967 24.8709 25.3735 24.8403 25.3735H23.6571C23.6234 25.3735 23.5964 25.4016 23.5977 25.4352L23.6262 26.1746C23.6274 26.2064 23.6536 26.2316 23.6856 26.2316H24.9127C24.9479 26.2316 24.9753 26.2015 24.9719 26.1665L24.8994 25.4271Z" fill="#D7D3E6"/>
<path d="M15.1868 25.4288C15.1891 25.3976 15.2149 25.3735 15.2461 25.3735H16.4295C16.4625 25.3735 16.4893 25.4005 16.4889 25.4335L16.4809 26.173C16.4806 26.2055 16.4541 26.2316 16.4216 26.2316H15.1942C15.1597 26.2316 15.1325 26.2025 15.1349 26.1681L15.1868 25.4288Z" fill="#D7D3E6"/>
<path d="M22.7923 25.4288C22.7901 25.3976 22.7642 25.3735 22.7331 25.3735H21.5496C21.5166 25.3735 21.4899 25.4005 21.4902 25.4335L21.4982 26.173C21.4985 26.2055 21.525 26.2316 21.5576 26.2316H22.785C22.8194 26.2316 22.8466 26.2025 22.8442 26.1681L22.7923 25.4288Z" fill="#D7D3E6"/>
<path d="M17.2949 25.4329C17.2949 25.4001 17.3215 25.3735 17.3543 25.3735H18.5344C18.5672 25.3735 18.5938 25.4001 18.5938 25.4329V26.1722C18.5938 26.2051 18.5672 26.2316 18.5344 26.2316H17.3543C17.3215 26.2316 17.2949 26.2051 17.2949 26.1722V25.4329Z" fill="#D7D3E6"/>
<path d="M17.2949 26.7758C17.2949 26.743 17.3215 26.7164 17.3543 26.7164H18.5344C18.5672 26.7164 18.5938 26.743 18.5938 26.7758V27.5153C18.5938 27.548 18.5672 27.5746 18.5344 27.5746H17.3543C17.3215 27.5746 17.2949 27.548 17.2949 27.5153V26.7758Z" fill="#D7D3E6"/>
<path d="M19.3926 25.4329C19.3926 25.4001 19.4192 25.3735 19.452 25.3735H20.632C20.6647 25.3735 20.6913 25.4001 20.6913 25.4329V26.1722C20.6913 26.2051 20.6647 26.2316 20.632 26.2316H19.452C19.4192 26.2316 19.3926 26.2051 19.3926 26.1722V25.4329Z" fill="#D7D3E6"/>
<path d="M19.3926 26.7758C19.3926 26.743 19.4192 26.7164 19.452 26.7164H20.632C20.6647 26.7164 20.6913 26.743 20.6913 26.7758V27.5153C20.6913 27.548 20.6647 27.5746 20.632 27.5746H19.452C19.4192 27.5746 19.3926 27.548 19.3926 27.5153V26.7758Z" fill="#D7D3E6"/>
<path d="M12.9758 26.7773C12.9786 26.7468 13.0042 26.7234 13.0349 26.7234H14.2183C14.2518 26.7234 14.2787 26.7512 14.2776 26.7847L14.2541 27.5102C14.2531 27.5422 14.2268 27.5676 14.1948 27.5676H12.9676C12.9326 27.5676 12.9053 27.5375 12.9085 27.5027L12.9758 26.7773Z" fill="#D7D3E6"/>
<path d="M25.0011 26.7773C24.9983 26.7468 24.9726 26.7234 24.942 26.7234H23.7585C23.725 26.7234 23.6982 26.7512 23.6992 26.7847L23.7226 27.5102C23.7237 27.5422 23.75 27.5676 23.782 27.5676H25.0092C25.0442 27.5676 25.0716 27.5375 25.0683 27.5027L25.0011 26.7773Z" fill="#D7D3E6"/>
<path d="M10.8398 26.775C10.8437 26.7455 10.8689 26.7234 10.8987 26.7234H12.0817C12.1161 26.7234 12.1434 26.7526 12.1409 26.7869L12.0896 27.5101C12.0874 27.5412 12.0615 27.5653 12.0304 27.5653H10.8035C10.7677 27.5653 10.74 27.5337 10.7447 27.4982L10.8398 26.775Z" fill="#D7D3E6"/>
<path d="M27.1372 26.775C27.1333 26.7455 27.1081 26.7234 27.0783 26.7234H25.8953C25.8609 26.7234 25.8337 26.7526 25.8361 26.7869L25.8874 27.5101C25.8896 27.5412 25.9155 27.5653 25.9466 27.5653H27.1736C27.2094 27.5653 27.2371 27.5337 27.2323 27.4982L27.1372 26.775Z" fill="#D7D3E6"/>
<path d="M15.126 26.7792C15.1279 26.7478 15.1539 26.7234 15.1852 26.7234H16.3688C16.4016 26.7234 16.4282 26.75 16.4282 26.7828V27.5082C16.4282 27.5411 16.4016 27.5676 16.3688 27.5676H15.1414C15.1072 27.5676 15.0801 27.5388 15.0821 27.5046L15.126 26.7792Z" fill="#D7D3E6"/>
<path d="M22.853 26.7792C22.8511 26.7478 22.8252 26.7234 22.7937 26.7234H21.6102C21.5774 26.7234 21.5508 26.75 21.5508 26.7828V27.5082C21.5508 27.5411 21.5774 27.5676 21.6102 27.5676H22.8376C22.8718 27.5676 22.8989 27.5388 22.8969 27.5046L22.853 26.7792Z" fill="#D7D3E6"/>
<path d="M10.6282 28.1483C10.6319 28.1186 10.6572 28.0964 10.6871 28.0964H11.9117C11.9461 28.0964 11.9733 28.1255 11.971 28.1598L11.9187 28.927C11.9166 28.9582 11.8907 28.9823 11.8595 28.9823H10.5906C10.5549 28.9823 10.5273 28.9511 10.5317 28.9156L10.6282 28.1483Z" fill="#D7D3E6"/>
<path d="M27.3488 28.1483C27.345 28.1186 27.3199 28.0964 27.2899 28.0964H26.0653C26.0308 28.0964 26.0036 28.1255 26.006 28.1598L26.0583 28.927C26.0604 28.9582 26.0863 28.9823 26.1175 28.9823H27.3864C27.4221 28.9823 27.4498 28.9511 27.4453 28.9156L27.3488 28.1483Z" fill="#D7D3E6"/>
<path d="M12.8419 28.1508C12.8444 28.1201 12.8702 28.0964 12.901 28.0964H14.1261C14.1594 28.0964 14.1863 28.124 14.1854 28.1574L14.1653 28.9246C14.1644 28.9568 14.1381 28.9823 14.1059 28.9823H12.8367C12.802 28.9823 12.7747 28.9526 12.7775 28.9181L12.8419 28.1508Z" fill="#D7D3E6"/>
<path d="M25.1346 28.1508C25.1321 28.1201 25.1063 28.0964 25.0754 28.0964H23.8504C23.817 28.0964 23.7902 28.124 23.791 28.1574L23.8112 28.9246C23.8121 28.9568 23.8384 28.9823 23.8706 28.9823H25.1398C25.1745 28.9823 25.2019 28.9526 25.1989 28.9181L25.1346 28.1508Z" fill="#D7D3E6"/>
<path d="M15.1203 28.1438C15.1217 28.1121 15.1478 28.0872 15.1795 28.0872H22.7846C22.8165 28.0872 22.8427 28.1123 22.844 28.1442L22.8762 28.9207C22.8776 28.9544 22.8507 28.9824 22.8168 28.9824H15.1433C15.1095 28.9824 15.0825 28.9542 15.084 28.9203L15.1203 28.1438Z" fill="#D7D3E6"/>
<defs>
<linearGradient id="paint0_linear_12813_20395" x1="30.1359" y1="3.00586" x2="18.5577" y2="22.7852" gradientUnits="userSpaceOnUse">
<stop offset="0.411199" stop-color="#6863AC"/>
<stop offset="1" stop-color="#574974"/>
</linearGradient>
<linearGradient id="paint1_linear_12813_20395" x1="18.9899" y1="23.1933" x2="18.9899" y2="23.6386" gradientUnits="userSpaceOnUse">
<stop stop-color="#534370" stop-opacity="0"/>
<stop offset="1" stop-color="#534370"/>
</linearGradient>
<linearGradient id="paint2_linear_12813_20395" x1="29.4669" y1="5.34374" x2="10.6896" y2="24.418" gradientUnits="userSpaceOnUse">
<stop offset="0.373087" stop-color="#59E8FF"/>
<stop offset="0.933488" stop-color="#2DB3FF"/>
</linearGradient>
<linearGradient id="paint3_linear_12813_20395" x1="19.0077" y1="23.6387" x2="19.0077" y2="34.4979" gradientUnits="userSpaceOnUse">
<stop stop-color="#C9C6DA"/>
<stop offset="1" stop-color="#DAD5E4"/>
</linearGradient>
<linearGradient id="paint4_linear_12813_20395" x1="19.0078" y1="34.6232" x2="19.0078" y2="35.5184" gradientUnits="userSpaceOnUse">
<stop stop-color="#8C8396"/>
<stop offset="1" stop-color="#998AA9"/>
</linearGradient>
<linearGradient id="paint5_linear_12813_20395" x1="35.7764" y1="34.92" x2="34.1065" y2="34.92" gradientUnits="userSpaceOnUse">
<stop stop-color="#B0A8B8"/>
<stop offset="1" stop-color="#B0A8B8" stop-opacity="0"/>
</linearGradient>
<linearGradient id="paint6_linear_12813_20395" x1="2.89752" y1="34.6254" x2="4.04791" y2="34.6254" gradientUnits="userSpaceOnUse">
<stop stop-color="#81778C"/>
<stop offset="1" stop-color="#81778C" stop-opacity="0"/>
</linearGradient>
<linearGradient id="paint7_linear_12813_20395" x1="18.9995" y1="30.9863" x2="18.9995" y2="33.3799" gradientUnits="userSpaceOnUse">
<stop stop-color="#D8D4E5"/>
<stop offset="1" stop-color="#D8D4E5" stop-opacity="0"/>
</linearGradient>
<linearGradient id="paint8_linear_12813_20395" x1="18.9995" y1="30.9863" x2="18.9995" y2="33.3799" gradientUnits="userSpaceOnUse">
<stop stop-color="#A9A7B8"/>
<stop offset="1" stop-color="#838191"/>
</linearGradient>
<linearGradient id="paint9_linear_12813_20395" x1="19.0062" y1="24.8633" x2="19.0062" y2="29.7177" gradientUnits="userSpaceOnUse">
<stop stop-color="#C9C7DA"/>
<stop offset="1" stop-color="#C9C7DA" stop-opacity="0"/>
</linearGradient>
<linearGradient id="paint10_linear_12813_20395" x1="19.0062" y1="24.8633" x2="19.0062" y2="29.7177" gradientUnits="userSpaceOnUse">
<stop stop-color="#A9A8BD"/>
<stop offset="1" stop-color="#8A8999"/>
</linearGradient>
</defs>
</svg>
