<svg width="38" height="38" viewBox="0 0 38 38" fill="none" xmlns="http://www.w3.org/2000/svg">
<path d="M18.9993 33.25C27.7439 33.25 34.8327 26.1612 34.8327 17.4167C34.8327 8.6722 27.7439 1.58337 18.9993 1.58337C10.2548 1.58337 3.16602 8.6722 3.16602 17.4167C3.16602 26.1612 10.2548 33.25 18.9993 33.25Z" fill="#FFF59D"/>
<path d="M29.2916 17.4167C29.2916 11.3208 24.0666 6.49166 17.8125 7.20416C13.0625 7.75833 9.26248 11.5583 8.78748 16.3083C8.39165 19.95 9.89581 23.1958 12.4291 25.2542C13.5375 26.2042 14.25 27.55 14.25 29.0542V29.2917H23.75V29.2125C23.75 27.7875 24.3833 26.3625 25.4916 25.4125C27.7875 23.5125 29.2916 20.6625 29.2916 17.4167Z" fill="#FBC02D"/>
<path d="M24.2246 15.9916L21.8496 14.4083C21.6121 14.25 21.2163 14.25 20.9788 14.4083L18.9996 15.675L17.0996 14.4083C16.8621 14.25 16.4663 14.25 16.2288 14.4083L13.8538 15.9916C13.6954 16.15 13.5371 16.3083 13.5371 16.5458C13.5371 16.7833 13.5371 17.0208 13.6954 17.1791L16.7038 20.9V29.2916H18.2871V20.5833C18.2871 20.425 18.2079 20.2666 18.1288 20.1083L15.5163 16.8625L16.7038 16.0708L18.6038 17.3375C18.8413 17.4958 19.2371 17.4958 19.4746 17.3375L21.3746 16.0708L22.5621 16.8625L19.9496 20.1083C19.8704 20.2666 19.7913 20.425 19.7913 20.5833V29.2916H21.3746V20.9L24.3829 17.1791C24.5413 17.0208 24.6204 16.7833 24.5413 16.5458C24.4621 16.3083 24.3829 16.0708 24.2246 15.9916Z" fill="#FFF59D"/>
<path d="M19 37.2084C20.3117 37.2084 21.375 36.1451 21.375 34.8334C21.375 33.5217 20.3117 32.4584 19 32.4584C17.6883 32.4584 16.625 33.5217 16.625 34.8334C16.625 36.1451 17.6883 37.2084 19 37.2084Z" fill="#5C6BC0"/>
<path d="M20.5833 35.625H17.4167C15.675 35.625 14.25 34.2 14.25 32.4583V28.5H23.75V32.4583C23.75 34.2 22.325 35.625 20.5833 35.625Z" fill="#9FA8DA"/>
<path d="M23.7497 32.4583L14.5664 33.7249C14.8039 34.2791 15.2789 34.8333 15.8331 35.1499L23.2747 34.1208C23.5914 33.6458 23.7497 33.0916 23.7497 32.4583Z" fill="#5C6BC0"/>
<path d="M14.25 30.6375V32.2208L23.75 30.875V29.2916L14.25 30.6375Z" fill="#5C6BC0"/>
</svg>
