<svg width="38" height="38" viewBox="0 0 38 38" fill="none" xmlns="http://www.w3.org/2000/svg">
<g clip-path="url(#clip0_12813_19992)">
<path opacity="0.18" d="M8.41222 7.23244C11.0265 4.56954 15.0225 2.74567 17.8466 5.09155C19.2787 6.28008 20.0483 8.26946 21.211 9.81258C22.3738 11.3557 24.4315 12.4443 25.8393 11.2131C26.4882 10.6465 26.8257 9.72346 27.3249 8.97545C28.8099 6.74735 31.7698 6.3361 33.8633 7.72899C35.9567 9.12187 37.1622 11.9802 37.2639 14.8093C37.372 17.9375 36.2974 20.9467 35.9849 24.0559C35.6925 27.0016 36.088 29.9854 37.1287 32.6863C37.4753 33.582 37.8982 34.4688 37.9853 35.4453C38.0724 36.4219 37.71 37.5461 36.9226 37.8797C36.603 38.014 36.2542 38.007 35.9151 37.9917L3.31184 36.8427C2.63907 36.8191 1.94034 36.7873 1.34383 36.4212C-0.299149 35.411 -0.241823 32.5743 0.486648 30.5683C1.21512 28.5624 2.39787 26.6144 2.23346 24.441C1.98902 21.2147 -1.27585 18.2132 0.892796 15.0193C1.68022 13.8582 3.17123 13.1064 4.12684 12.1082C5.61352 10.5536 6.90822 8.76474 8.41222 7.23244Z" fill="#68E1FD"/>
<path d="M34.8817 3.89914C34.8817 3.89914 35.3203 6.38698 35.6929 6.57733C36.0655 6.76767 36.4744 5.98592 36.5041 5.99293C36.5339 5.99993 36.9368 6.51494 36.9368 6.51494C36.9368 6.51494 36.7042 7.33233 35.9887 7.58889C35.5918 7.73085 34.4355 6.22019 34.2744 5.31049C34.1405 4.54507 34.1222 3.75788 34.2203 2.98499C34.2203 2.98499 34.6751 3.12504 34.8817 3.89914Z" fill="#68E1FD"/>
<path d="M34.8817 3.89914C34.8817 3.89914 35.3203 6.38698 35.6929 6.57733C36.0655 6.76767 36.4744 5.98592 36.5041 5.99293C36.5339 5.99993 36.9368 6.51494 36.9368 6.51494C36.9368 6.51494 36.7042 7.33233 35.9887 7.58889C35.5918 7.73085 34.4355 6.22019 34.2744 5.31049C34.1405 4.54507 34.1222 3.75788 34.2203 2.98499C34.2203 2.98499 34.6751 3.12504 34.8817 3.89914Z" fill="url(#paint0_linear_12813_19992)"/>
<path d="M32.038 5.41047L24.133 12.6671L14.4157 4.95276L2.65039 17.3569" stroke="#3F3D56" stroke-width="4" stroke-miterlimit="10"/>
<path d="M2.68359 22.4606H6.71479V37.0999H2.68359V22.4606Z" fill="#145E6F"/>
<path d="M22.1172 17.7739H26.1484V37.0999H22.1172V17.7739Z" fill="#145E6F"/>
<path d="M12.4004 11.1621H16.4316V37.0998H12.4004V11.1621Z" fill="#145E6F"/>
<path d="M31.834 9.82971H35.8652V37.0992H31.834V9.82971Z" fill="#145E6F"/>
<path d="M3.34292 18.1717C3.72498 17.722 3.72498 16.9928 3.34292 16.5431C2.96086 16.0934 2.34142 16.0934 1.95936 16.5431C1.5773 16.9928 1.5773 17.722 1.95936 18.1717C2.34142 18.6215 2.96086 18.6215 3.34292 18.1717Z" fill="#68E1FD"/>
<path d="M14.4158 6.10498C14.9561 6.10498 15.3941 5.58939 15.3941 4.95337C15.3941 4.31735 14.9561 3.80176 14.4158 3.80176C13.8755 3.80176 13.4375 4.31735 13.4375 4.95337C13.4375 5.58939 13.8755 6.10498 14.4158 6.10498Z" fill="#68E1FD"/>
<path d="M24.1326 13.6271C24.6729 13.6271 25.1109 13.1115 25.1109 12.4755C25.1109 11.8394 24.6729 11.3239 24.1326 11.3239C23.5923 11.3239 23.1543 11.8394 23.1543 12.4755C23.1543 13.1115 23.5923 13.6271 24.1326 13.6271Z" fill="#68E1FD"/>
<path d="M3.34292 18.1717C3.72498 17.722 3.72498 16.9928 3.34292 16.5431C2.96086 16.0934 2.34142 16.0934 1.95936 16.5431C1.5773 16.9928 1.5773 17.722 1.95936 18.1717C2.34142 18.6215 2.96086 18.6215 3.34292 18.1717Z" fill="url(#paint1_linear_12813_19992)"/>
<path d="M14.4158 6.10498C14.9561 6.10498 15.3941 5.58939 15.3941 4.95337C15.3941 4.31735 14.9561 3.80176 14.4158 3.80176C13.8755 3.80176 13.4375 4.31735 13.4375 4.95337C13.4375 5.58939 13.8755 6.10498 14.4158 6.10498Z" fill="url(#paint2_linear_12813_19992)"/>
<path d="M24.1326 13.6271C24.6729 13.6271 25.1109 13.1115 25.1109 12.4755C25.1109 11.8394 24.6729 11.3239 24.1326 11.3239C23.5923 11.3239 23.1543 11.8394 23.1543 12.4755C23.1543 13.1115 23.5923 13.6271 24.1326 13.6271Z" fill="url(#paint3_linear_12813_19992)"/>
<path d="M37.2841 37.9427H0.757258C0.663045 37.943 0.569703 37.9215 0.48258 37.8793C0.395457 37.8371 0.316267 37.775 0.249548 37.6967C0.182829 37.6184 0.129893 37.5254 0.0937734 37.423C0.0576542 37.3205 0.0390621 37.2107 0.0390625 37.0998C0.0390621 36.9889 0.0576542 36.8791 0.0937734 36.7767C0.129893 36.6743 0.182829 36.5812 0.249548 36.5029C0.316267 36.4246 0.395457 36.3626 0.48258 36.3204C0.569703 36.2782 0.663045 36.2566 0.757258 36.257H37.2841C37.474 36.257 37.6561 36.3458 37.7904 36.5038C37.9247 36.6619 38.0001 36.8763 38.0001 37.0998C38.0001 37.3234 37.9247 37.5377 37.7904 37.6958C37.6561 37.8539 37.474 37.9427 37.2841 37.9427Z" fill="#68E1FD"/>
<path d="M37.2841 37.9427H0.757258C0.663045 37.943 0.569703 37.9215 0.48258 37.8793C0.395457 37.8371 0.316267 37.775 0.249548 37.6967C0.182829 37.6184 0.129893 37.5254 0.0937734 37.423C0.0576542 37.3205 0.0390621 37.2107 0.0390625 37.0998C0.0390621 36.9889 0.0576542 36.8791 0.0937734 36.7767C0.129893 36.6743 0.182829 36.5812 0.249548 36.5029C0.316267 36.4246 0.395457 36.3626 0.48258 36.3204C0.569703 36.2782 0.663045 36.2566 0.757258 36.257H37.2841C37.474 36.257 37.6561 36.3458 37.7904 36.5038C37.9247 36.6619 38.0001 36.8763 38.0001 37.0998C38.0001 37.3234 37.9247 37.5377 37.7904 37.6958C37.6561 37.8539 37.474 37.9427 37.2841 37.9427Z" fill="url(#paint4_linear_12813_19992)"/>
<path d="M33.0042 3.11487C33.0042 3.11487 32.1676 3.33195 31.835 3.84824C31.5024 4.36452 31.4651 8.57373 31.7268 8.8532C31.9886 9.13267 34.9511 8.561 34.7191 8.04344C34.2789 7.0618 34.6559 2.98246 34.2243 2.98755C33.7927 2.99265 33.0042 3.11487 33.0042 3.11487Z" fill="#68E1FD"/>
<path d="M32.6112 4.65479C32.6112 4.65479 31.88 8.2293 32.3354 8.87672C32.3354 8.87672 31.8924 9.01805 31.7291 8.85126C31.5658 8.68447 31.4636 6.5595 31.7426 5.60459C32.0217 4.64969 32.6112 4.65479 32.6112 4.65479Z" fill="url(#paint5_linear_12813_19992)"/>
<path d="M33.06 2.11804C33.06 2.11804 32.9772 2.88706 32.9708 3.1226C32.9643 3.35814 33.5916 3.73246 33.7333 3.5001C33.7748 3.4338 33.8037 3.35773 33.818 3.2771C33.8322 3.19646 33.8316 3.11315 33.816 3.03284L33.7744 2.52356L33.06 2.11804Z" fill="url(#paint6_linear_12813_19992)"/>
<path d="M33.0114 1.28277C33.0114 1.28277 32.9573 2.35417 33.2694 2.57762C33.5814 2.80106 33.7561 3.02324 34.1417 2.50632C34.5273 1.9894 34.4851 1.13126 34.4007 1.00585C34.3164 0.880436 33.2769 0.131157 33.0114 1.28277Z" fill="url(#paint7_linear_12813_19992)"/>
<path d="M32.6761 0.568502C32.5923 0.804681 32.6036 1.07014 32.6161 1.32542H32.7047C32.6874 1.46038 32.6777 1.62144 32.7659 1.70738C32.7902 1.73157 32.8199 1.74749 32.8437 1.77104C32.934 1.86335 32.9519 2.09443 33.0601 2.153C33.0467 1.96202 33.0328 1.77104 33.0184 1.58006C33.0114 1.48266 32.9984 1.31778 33.079 1.29359C33.0974 1.2885 33.1174 1.28977 33.1331 1.2834C33.166 1.26855 33.1937 1.24093 33.2115 1.2051C33.2429 1.14972 33.2737 1.09433 33.3045 1.03831C33.3397 0.958604 33.3953 0.893996 33.4635 0.853699C33.5343 0.822506 33.6339 0.871524 33.6349 0.960648C33.7874 0.829508 34.0021 0.866431 34.1757 0.950462C34.2676 0.990006 34.3508 1.05331 34.4191 1.13571C34.453 1.17755 34.4782 1.22808 34.4926 1.28332C34.5071 1.33855 34.5104 1.39699 34.5024 1.45401C34.6284 0.940913 34.7696 -0.185871 33.8296 0.0261175C33.6917 0.0592208 33.5771 0.180175 33.4375 0.191634C33.4543 0.191634 33.3937 0.112695 33.3835 0.106966C33.3353 0.082775 33.2969 0.115878 33.2542 0.137523C33.1877 0.163651 33.1186 0.180112 33.0487 0.186541C32.9651 0.210346 32.8876 0.257479 32.8228 0.32396C32.7579 0.39044 32.7076 0.474315 32.6761 0.568502Z" fill="#3F3D56"/>
<path d="M32.025 3.62415C32.025 3.62415 32.7237 3.8565 32.609 4.65417C32.609 4.65417 31.6853 5.76504 31.7762 5.99103C31.867 6.21702 33.5436 7.39728 33.5436 7.39728L33.0092 7.91484C33.0092 7.91484 31.018 7.0758 30.8811 6.32333C30.7443 5.57087 31.0748 4.40398 32.025 3.62415Z" fill="#68E1FD"/>
<path d="M37.0064 4.12648L36.4223 6.64487L34.8848 6.78365L35.3526 4.03735L37.0064 4.12648Z" fill="#68E1FD"/>
<path d="M37.0064 4.12648L36.4223 6.64487L34.8848 6.78365L35.3526 4.03735L37.0064 4.12648Z" fill="url(#paint8_linear_12813_19992)"/>
<path d="M36.5616 6.00504C36.5584 6.01857 36.5584 6.03289 36.5616 6.04642C36.5688 6.06341 36.5801 6.07757 36.594 6.08716C36.686 6.17246 36.7249 6.33543 36.8358 6.37872C36.93 6.27043 37.0067 6.14296 37.0624 6.00249C37.1336 5.84381 37.1529 5.65985 37.1165 5.48557C37.0737 5.33604 36.9831 5.21203 36.8639 5.1399C36.8382 5.11941 36.8088 5.10618 36.778 5.10121C36.7473 5.09624 36.716 5.09968 36.6865 5.11125C36.6631 5.12721 36.6429 5.14907 36.6275 5.17526C36.6121 5.20145 36.6018 5.23133 36.5973 5.26276C36.5843 5.32642 36.5821 5.39008 36.5654 5.44992C36.5384 5.51756 36.5149 5.58708 36.4951 5.65809C36.4903 5.68586 36.4915 5.71458 36.4984 5.74169C36.5054 5.7688 36.518 5.79344 36.5351 5.81342C36.5546 5.83761 36.5632 5.82742 36.5724 5.85798C36.5753 5.90736 36.5717 5.95698 36.5616 6.00504Z" fill="url(#paint9_linear_12813_19992)"/>
<path d="M33.9046 7.46476C33.9178 7.46261 33.9312 7.46395 33.9438 7.46869C33.9564 7.47342 33.968 7.48144 33.9777 7.49213C33.9849 7.50814 33.9876 7.52643 33.9855 7.54438C33.9833 7.56233 33.9764 7.57903 33.9658 7.59208C33.9446 7.61776 33.9264 7.64666 33.9117 7.67802C34.002 7.76092 34.0987 7.83381 34.2005 7.89574C34.2713 7.93966 34.3551 7.99505 34.3584 8.08672C34.3557 8.12317 34.3454 8.15827 34.3283 8.18883C34.3112 8.2194 34.2879 8.24447 34.2605 8.26178C34.0935 8.38093 33.8986 8.43465 33.704 8.4152C33.5883 8.41749 33.4745 8.38035 33.3763 8.30826C33.3169 8.25313 33.2654 8.18715 33.2238 8.11282L33.0907 7.90147C33.0861 7.8973 33.0831 7.89116 33.0822 7.88437C33.0814 7.87758 33.0829 7.87069 33.0864 7.86518L33.0907 7.86009L33.2492 7.6551C33.4368 7.4151 33.6429 7.46158 33.9046 7.46476Z" fill="url(#paint10_linear_12813_19992)"/>
<path d="M36.156 13.8785C36.0137 14.0198 35.8931 13.8256 35.8699 13.6671C35.8463 13.49 35.8345 13.311 35.8347 13.1318C35.8163 12.1781 35.7983 11.2245 35.7806 10.2709C35.7882 10.18 35.7691 10.0888 35.7265 10.0124C35.6671 9.9322 35.5643 9.92137 35.4772 9.91692L35.3258 9.90864L33.0982 9.78451C32.8224 9.76923 32.539 9.75204 32.287 9.61899C32.035 9.48594 31.8181 9.20965 31.8105 8.88435C31.8149 9.06069 33.7575 8.57178 33.9229 8.50621C34.2301 8.38589 34.4843 8.21146 34.8028 8.21847C35.1674 8.22674 35.5432 8.30313 35.9061 8.34069C36.2171 8.37316 36.5507 8.41581 36.7865 8.65581C37.0391 8.91045 37.1181 9.32997 37.1386 9.72085C37.2127 11.2665 36.7498 12.4971 36.156 13.8785Z" fill="#3F3D56"/>
<path d="M36.0074 13.8486L35.791 13.7079C35.8202 13.5178 35.8348 13.325 35.8348 13.1318C35.8164 12.1782 35.7984 11.2246 35.7808 10.2709C35.7883 10.18 35.7692 10.0888 35.7267 10.0125C35.6672 9.93225 35.5644 9.92143 35.4774 9.91697L35.3259 9.9087L35.0469 9.27209C35.0469 9.27209 35.9819 9.27591 36.1945 9.63305C36.407 9.99018 36.0074 13.8486 36.0074 13.8486Z" fill="#25233A"/>
<path d="M35.6509 10.7541C35.6509 10.9935 35.5822 11.2258 35.5086 11.4493C35.3464 11.9427 35.1636 12.4233 34.9786 12.9039C34.7785 13.4225 34.5786 13.9418 34.3789 14.4617C34.3437 14.5527 34.2956 14.6565 34.2112 14.6711C34.1122 14.6877 34.0533 14.5814 34.0268 14.4566C34.015 14.401 34.0094 14.3439 34.01 14.2866C34.0154 13.305 34.0497 12.3242 34.1128 11.3443C34.1204 11.2865 34.1155 11.2274 34.0987 11.1724C34.0696 11.1169 34.0273 11.0726 33.977 11.0451C33.5936 10.7815 33.1777 10.5931 32.7873 10.3448C32.3968 10.0965 32.0215 9.78076 31.7911 9.33514C31.7532 9.2766 31.7355 9.20341 31.7413 9.13015C31.7635 9.00665 31.8911 8.96336 31.9966 8.94363L34.1717 8.53302C34.6585 8.44071 35.023 9.26639 35.2658 9.66617C35.4627 9.9902 35.6509 10.3505 35.6509 10.7541Z" fill="#3F3D56"/>
<path d="M34.0099 14.2834L33.8477 15.1314C33.8477 15.1314 34.3971 15.5866 34.5567 15.6407C34.7162 15.6948 35.2467 15.6407 35.2467 15.6407C35.2467 15.6407 35.33 15.3816 35.0493 15.2657C34.8733 15.1942 34.6923 15.1406 34.5085 15.1053C34.3989 14.9572 34.3409 14.7657 34.3463 14.5693C34.3463 14.5693 34.1364 14.6145 34.0099 14.2834Z" fill="#25233A"/>
<path d="M35.8126 13.5934L35.6504 14.4407C35.6504 14.4407 36.1999 14.8965 36.3594 14.95C36.5189 15.0035 37.0495 14.95 37.0495 14.95C37.0495 14.95 37.1327 14.6909 36.8521 14.575C36.6759 14.5036 36.495 14.4497 36.3113 14.414C36.2016 14.2661 36.1436 14.0748 36.149 13.8786C36.149 13.8786 35.9392 13.9244 35.8126 13.5934Z" fill="#25233A"/>
<path d="M34.2112 14.6679L34.0268 14.4534C34.015 14.3978 34.0094 14.3407 34.01 14.2834C34.0154 13.3018 34.0497 12.321 34.1128 11.3411C34.1204 11.2833 34.1155 11.2242 34.0987 11.1692C34.0696 11.1137 34.0273 11.0694 33.977 11.0419C33.5936 10.7783 33.1777 10.5899 32.7873 10.3416C32.3968 10.0933 32.0215 9.77756 31.7911 9.33194C31.7532 9.2734 31.7355 9.20021 31.7413 9.12695C31.7635 9.00345 31.8911 8.96016 31.9966 8.94043C31.9966 8.94043 33.6353 10.1436 34.2626 10.6433C34.8899 11.1431 34.2112 14.6679 34.2112 14.6679Z" fill="#25233A"/>
</g>
<defs>
<linearGradient id="paint0_linear_12813_19992" x1="35.2981" y1="5.19717" x2="29.7063" y2="9.97374" gradientUnits="userSpaceOnUse">
<stop stop-opacity="0"/>
<stop offset="1"/>
</linearGradient>
<linearGradient id="paint1_linear_12813_19992" x1="2.50768" y1="-0.275668" x2="3.19913" y2="52.1143" gradientUnits="userSpaceOnUse">
<stop stop-opacity="0"/>
<stop offset="1"/>
</linearGradient>
<linearGradient id="paint2_linear_12813_19992" x1="14.3661" y1="-0.27631" x2="15.0539" y2="51.9008" gradientUnits="userSpaceOnUse">
<stop stop-opacity="0"/>
<stop offset="1"/>
</linearGradient>
<linearGradient id="paint3_linear_12813_19992" x1="24.0104" y1="-0.403614" x2="24.699" y2="51.7729" gradientUnits="userSpaceOnUse">
<stop stop-opacity="0"/>
<stop offset="1"/>
</linearGradient>
<linearGradient id="paint4_linear_12813_19992" x1="18.9063" y1="32.3692" x2="19.7034" y2="56.3732" gradientUnits="userSpaceOnUse">
<stop stop-opacity="0"/>
<stop offset="1"/>
</linearGradient>
<linearGradient id="paint5_linear_12813_19992" x1="32.8664" y1="6.64416" x2="25.5741" y2="8.16794" gradientUnits="userSpaceOnUse">
<stop stop-opacity="0"/>
<stop offset="1"/>
</linearGradient>
<linearGradient id="paint6_linear_12813_19992" x1="33.2509" y1="2.41724" x2="33.6441" y2="3.39315" gradientUnits="userSpaceOnUse">
<stop stop-color="#ECC4D7"/>
<stop offset="0.42" stop-color="#EFD4D1"/>
<stop offset="1" stop-color="#F2EAC9"/>
</linearGradient>
<linearGradient id="paint7_linear_12813_19992" x1="33.6598" y1="1.31142" x2="33.9978" y2="2.18313" gradientUnits="userSpaceOnUse">
<stop stop-color="#ECC4D7"/>
<stop offset="0.42" stop-color="#EFD4D1"/>
<stop offset="1" stop-color="#F2EAC9"/>
</linearGradient>
<linearGradient id="paint8_linear_12813_19992" x1="35.2368" y1="5.10812" x2="43.6571" y2="8.08227" gradientUnits="userSpaceOnUse">
<stop stop-opacity="0"/>
<stop offset="1"/>
</linearGradient>
<linearGradient id="paint9_linear_12813_19992" x1="36.4961" y1="5.73894" x2="37.1397" y2="5.73894" gradientUnits="userSpaceOnUse">
<stop stop-color="#ECC4D7"/>
<stop offset="0.42" stop-color="#EFD4D1"/>
<stop offset="1" stop-color="#F2EAC9"/>
</linearGradient>
<linearGradient id="paint10_linear_12813_19992" x1="33.0821" y1="7.93775" x2="34.3584" y2="7.93775" gradientUnits="userSpaceOnUse">
<stop stop-color="#ECC4D7"/>
<stop offset="0.42" stop-color="#EFD4D1"/>
<stop offset="1" stop-color="#F2EAC9"/>
</linearGradient>
<clipPath id="clip0_12813_19992">
<rect width="38" height="38" fill="white"/>
</clipPath>
</defs>
</svg>
